<svg width="200" height="192" viewBox="0 0 200 192" fill="none" xmlns="http://www.w3.org/2000/svg">
<g clip-path="url(#clip0_2061_91)">
<path d="M104.975 0.932021C105.6 1.30243 105.6 1.30243 106.292 1.83441C106.661 2.11104 107.031 2.38766 107.412 2.67268C108.701 3.75464 109.417 5.00115 110.117 6.51401C110.247 6.78453 110.377 7.05506 110.511 7.33378C112.216 10.9296 113.746 14.6043 115.287 18.2725C115.622 19.0668 115.958 19.8611 116.294 20.6552C117.007 22.342 117.719 24.0292 118.431 25.7166C120.171 29.8372 121.927 33.951 123.681 38.0658C126.737 45.2347 129.782 52.408 132.813 59.5871C135.676 59.8619 138.539 60.1358 141.401 60.4094C142.469 60.5115 143.537 60.6139 144.606 60.7166C151.472 61.3762 158.34 62.0181 165.211 62.6344C167.5 62.8401 169.788 63.048 172.077 63.2558C174.33 63.4601 176.584 63.6607 178.838 63.8587C180.26 63.9845 181.681 64.1138 183.103 64.244C183.766 64.304 184.429 64.3626 185.092 64.4196C194.11 65.1958 194.11 65.1958 197.558 68.5622C199.995 71.7573 200.187 74.7897 199.898 78.7079C199.3 81.0483 198.194 82.5742 196.388 84.171C195.98 84.5926 195.574 85.0154 195.169 85.4392C194.057 86.5543 192.886 87.5499 191.659 88.5366C189.985 89.8829 188.397 91.2877 186.832 92.7559C184.984 94.4879 183.079 96.1084 181.103 97.6946C179.624 98.9284 178.227 100.242 176.821 101.56C175.525 102.768 174.2 103.915 172.815 105.023C171.109 106.393 169.507 107.841 167.916 109.34C166.002 111.143 164.04 112.838 161.986 114.482C160.477 115.737 159.045 117.069 157.615 118.414C157.316 118.694 157.316 118.694 157.012 118.98C156.818 119.165 156.625 119.351 156.426 119.542C155.825 120.071 155.825 120.071 155.14 120.522C154.371 121.006 154.371 121.006 153.485 122.022C153.611 124.829 154.272 127.528 154.903 130.259C155.008 130.719 155.112 131.18 155.22 131.654C155.506 132.908 155.793 134.162 156.081 135.415C156.384 136.735 156.684 138.055 156.985 139.375C157.555 141.876 158.128 144.377 158.701 146.878C159.348 149.705 159.994 152.533 160.639 155.361C161.647 159.776 162.656 164.191 163.666 168.605C163.812 169.243 163.812 169.243 163.961 169.893C164.054 170.299 164.147 170.705 164.243 171.123C164.333 171.517 164.422 171.911 164.515 172.316C164.712 173.172 164.914 174.026 165.12 174.88C165.226 175.324 165.331 175.768 165.44 176.225C165.537 176.623 165.633 177.022 165.733 177.432C166.562 181.608 165.882 184.952 163.552 188.482C161.193 190.738 158.616 191.913 155.362 191.97C155.018 191.98 154.675 191.99 154.321 192C150.905 191.643 148.233 190 145.366 188.201C144.174 187.454 142.975 186.719 141.778 185.982C141.527 185.827 141.276 185.672 141.017 185.512C138.069 183.693 135.088 181.929 132.107 180.165C131.104 179.572 130.102 178.979 129.101 178.385C128.858 178.241 128.616 178.098 128.366 177.95C126.665 176.942 124.968 175.926 123.273 174.906C121.278 173.707 119.28 172.514 117.278 171.327C117.024 171.177 116.77 171.027 116.509 170.871C115.179 170.083 113.849 169.296 112.519 168.51C110.182 167.128 107.852 165.743 105.565 164.279C105.243 164.075 104.922 163.87 104.59 163.659C104.023 163.295 103.459 162.926 102.899 162.55C101.775 161.831 101.067 161.418 99.7146 161.513C98.3886 161.851 97.4713 162.329 96.3125 163.054C95.8918 163.313 95.4711 163.573 95.0377 163.841C94.7034 164.051 94.7034 164.051 94.3623 164.265C93.3992 164.869 92.4308 165.465 91.4627 166.062C90.9496 166.378 90.4366 166.695 89.924 167.012C87.1123 168.748 84.2713 170.434 81.4276 172.117C80.9034 172.428 80.3792 172.739 79.8551 173.05C78.0017 174.149 76.1475 175.246 74.2934 176.344C72.4458 177.439 70.5986 178.533 68.7517 179.629C68.3667 179.857 68.3667 179.857 67.9739 180.09C65.1423 181.769 62.3175 183.458 59.5069 185.173C59.132 185.401 59.132 185.401 58.7496 185.634C57.5685 186.355 56.3885 187.077 55.2102 187.802C50.9431 190.414 47.4796 192.5 42.3275 191.872C39.1625 190.838 36.939 189.319 35.307 186.409C35.0657 185.998 34.8244 185.588 34.5757 185.165C33.4057 181.198 34.306 177.14 35.2407 173.213C35.3596 172.695 35.4781 172.177 35.5961 171.659C35.8489 170.554 36.1052 169.45 36.3642 168.347C36.7745 166.6 37.177 164.85 37.5785 163.101C38.2148 160.333 38.8562 157.567 39.4999 154.801C40.6526 149.848 41.7967 144.892 42.9382 139.936C43.3383 138.2 43.7408 136.465 44.1454 134.73C44.3972 133.649 44.6473 132.567 44.8972 131.486C45.0674 130.751 45.2396 130.017 45.4119 129.283C45.9684 126.867 46.5012 124.504 46.6178 122.022C45.9256 121.062 45.4722 120.571 44.5702 119.876C44.2484 119.606 44.2484 119.606 43.9202 119.33C43.2678 118.785 42.6047 118.256 41.9375 117.73C41.2384 117.161 40.5396 116.592 39.8411 116.023C39.4922 115.742 39.1432 115.461 38.7838 115.172C37.204 113.846 35.7136 112.432 34.2127 111.018C32.5292 109.441 30.7808 107.976 28.9798 106.534C27.731 105.495 26.5462 104.402 25.3614 103.292C23.8419 101.868 22.3062 100.499 20.6811 99.1945C18.8238 97.7036 17.0873 96.1154 15.3509 94.4881C14.0539 93.2796 12.7296 92.133 11.3448 91.0243C0.575289 82.3695 0.57529 82.3695 0.0402025 77.6455C-0.123832 74.4167 0.145104 71.6048 2.15487 68.9524C4.1887 66.733 6.55991 65.4042 9.56926 65.0449C9.8137 65.0154 10.0581 64.9859 10.31 64.9555C14.8247 64.4328 19.357 64.0558 23.8833 63.6481C25.2899 63.5211 26.6964 63.3927 28.103 63.2643C30.7607 63.022 33.4186 62.7809 36.0766 62.5402C40.8404 62.1089 45.604 61.676 50.3675 61.2421C52.0356 61.0902 53.7038 60.9389 55.372 60.7881C56.1595 60.7169 56.9469 60.6454 57.7343 60.5739C58.6906 60.4869 59.6469 60.4004 60.6033 60.3144C61.431 60.2389 62.2584 60.1609 63.0856 60.0795C63.7667 60.0153 64.4487 59.9605 65.1316 59.9194C66.7176 59.8153 66.7176 59.8153 67.9419 58.8872C68.0661 58.5797 68.1903 58.2721 68.3183 57.9552C68.4678 57.6031 68.6173 57.2509 68.7713 56.8881C68.9217 56.4986 69.0721 56.1091 69.2271 55.7077C69.481 55.0959 69.481 55.0959 69.7401 54.4718C70.2998 53.1165 70.8418 51.7547 71.3844 50.3925C71.7735 49.4429 72.1639 48.4938 72.5557 47.5453C73.1684 46.0611 73.7798 44.5765 74.3853 43.0894C75.8105 39.59 77.2714 36.1075 78.7629 32.6359C78.8658 32.3965 78.9687 32.157 79.0747 31.9102C79.5867 30.719 80.0995 29.5282 80.6127 28.3375C81.3728 26.5727 82.1299 24.8065 82.8863 23.0401C83.2468 22.1991 83.6079 21.3583 83.9697 20.5179C84.8373 18.5012 85.6982 16.4822 86.5405 14.4549C86.9542 13.4601 87.3712 12.4666 87.7885 11.4732C88.0806 10.7742 88.368 10.0732 88.6554 9.37211C90.2954 5.47466 91.9361 2.55003 95.8372 0.633258C98.4776 -0.235042 102.452 -0.27887 104.975 0.932021Z" fill="#D9D9D9"/>
<path d="M99.9996 0.000335693V161.498C99.9077 161.5 99.8128 161.503 99.7145 161.51C98.3885 161.848 97.471 162.327 96.3121 163.051C95.8915 163.311 95.4711 163.571 95.0377 163.838C94.7034 164.048 94.703 164.048 94.3619 164.262C93.3989 164.867 92.4306 165.462 91.4625 166.059C90.9494 166.375 90.4361 166.692 89.9235 167.009C87.112 168.746 84.271 170.432 81.4274 172.115C80.9032 172.425 80.3792 172.736 79.8551 173.047C78.0017 174.146 76.1477 175.244 74.2936 176.342C72.446 177.436 70.5984 178.531 68.7516 179.626C68.3668 179.854 68.3667 179.855 67.9742 180.087C65.1427 181.766 62.3171 183.456 59.5065 185.17C59.132 185.399 59.132 185.399 58.7496 185.632C57.5686 186.353 56.3888 187.075 55.2106 187.8C50.9436 190.412 47.4797 192.497 42.3278 191.869C39.1628 190.836 36.9392 189.317 35.3073 186.407C35.0659 185.996 34.8244 185.585 34.5758 185.162C33.4058 181.195 34.3061 177.138 35.2408 173.21C35.3598 172.693 35.4783 172.175 35.5963 171.657C35.8491 170.552 36.1048 169.447 36.3639 168.344C36.7742 166.597 37.1772 164.847 37.5787 163.098C38.2149 160.331 38.856 157.564 39.4996 154.798C40.6523 149.845 41.7966 144.89 42.9381 139.934C43.3382 138.198 43.7406 136.462 44.1451 134.727C44.3969 133.646 44.6473 132.564 44.8971 131.483C45.0673 130.748 45.2395 130.014 45.4117 129.281C45.9682 126.865 46.5012 124.501 46.6178 122.02C45.9257 121.059 45.472 120.568 44.5699 119.873C44.2486 119.603 44.2482 119.603 43.9205 119.327C43.2682 118.783 42.6044 118.254 41.9371 117.728C41.238 117.159 40.5399 116.589 39.8414 116.02C39.4925 115.739 39.1433 115.458 38.7838 115.169C37.2042 113.843 35.7134 112.43 34.2125 111.016C32.5292 109.439 30.781 107.974 28.9801 106.532C27.7313 105.493 26.5457 104.4 25.361 103.289C23.8416 101.866 22.3063 100.496 20.6813 99.1917C18.8241 97.7009 17.0875 96.1129 15.3512 94.4857C14.0542 93.2772 12.7291 92.1305 11.3444 91.0218C0.575013 82.3672 0.574756 82.3669 0.0396729 77.6429C-0.124358 74.4141 0.145146 71.6019 2.15491 68.9496C4.18865 66.7303 6.55981 65.4016 9.56897 65.0423C9.81341 65.0128 10.0583 64.9839 10.3102 64.9535C14.8248 64.4308 19.3572 64.0535 23.8834 63.6458C25.29 63.5189 26.6967 63.3904 28.1031 63.2621C30.7609 63.0198 33.4189 62.7781 36.0768 62.5374C40.8405 62.1061 45.6044 61.6735 50.3678 61.2396C52.0357 61.0877 53.7037 60.9362 55.3717 60.7855C56.1591 60.7143 56.9467 60.6432 57.734 60.5716C58.6903 60.4847 59.6468 60.3979 60.6031 60.3119C61.4309 60.2364 62.2584 60.1579 63.0856 60.0765C63.7666 60.0123 64.4487 59.9574 65.1315 59.9164C66.7174 59.8123 66.7178 59.8131 67.942 58.8851C68.0662 58.5775 68.19 58.2694 68.318 57.9525C68.4675 57.6004 68.6171 57.2479 68.7711 56.8851C68.9215 56.4957 69.0723 56.1066 69.2272 55.7054C69.4811 55.0936 69.4808 55.0933 69.7399 54.4691C70.2995 53.1138 70.8418 51.7522 71.3844 50.39C71.7735 49.4404 72.1635 48.4908 72.5553 47.5423C73.1679 46.0583 73.7799 44.5742 74.3854 43.0872C75.8106 39.5878 77.2718 36.1048 78.7633 32.6331C78.8661 32.3938 78.9689 32.1542 79.0748 31.9076C79.5868 30.7165 80.0998 29.5259 80.6129 28.3353C81.373 26.5705 82.1299 24.8039 82.8864 23.0374C83.2468 22.1965 83.6076 21.3554 83.9694 20.515C84.8369 18.4984 85.6984 16.4798 86.5406 14.4525C86.9544 13.4577 87.3715 12.4643 87.7887 11.471C88.0808 10.772 88.3676 10.0705 88.6549 9.36948C90.2949 5.47203 91.9365 2.54796 95.8375 0.631195C96.9927 0.251341 98.403 0.0285542 99.8356 0.000335693H99.9996Z" fill="#FFC106"/>
</g>
<defs>
<clipPath id="clip0_2061_91">
<rect width="200" height="192" fill="white"/>
</clipPath>
</defs>
</svg>
