<svg width="200" height="192" viewBox="0 0 200 192" fill="none" xmlns="http://www.w3.org/2000/svg">
<g clip-path="url(#clip0_2061_129)">
<path d="M104.975 0.932021C105.6 1.30243 105.6 1.30243 106.292 1.83441C106.661 2.11104 107.031 2.38766 107.412 2.67268C108.701 3.75464 109.417 5.00115 110.117 6.51401C110.247 6.78453 110.377 7.05506 110.511 7.33378C112.216 10.9296 113.746 14.6043 115.287 18.2725C115.622 19.0668 115.958 19.8611 116.294 20.6552C117.007 22.342 117.719 24.0292 118.431 25.7166C120.171 29.8372 121.927 33.951 123.681 38.0658C126.737 45.2347 129.782 52.408 132.813 59.5871C135.676 59.8619 138.539 60.1358 141.401 60.4094C142.469 60.5115 143.537 60.6139 144.606 60.7166C151.472 61.3762 158.34 62.0181 165.211 62.6344C167.5 62.8401 169.788 63.048 172.077 63.2558C174.33 63.4601 176.584 63.6607 178.838 63.8587C180.26 63.9845 181.681 64.1138 183.103 64.244C183.766 64.304 184.429 64.3626 185.092 64.4196C194.11 65.1958 194.11 65.1958 197.558 68.5622C199.995 71.7573 200.187 74.7897 199.898 78.7079C199.3 81.0483 198.194 82.5742 196.388 84.171C195.98 84.5926 195.574 85.0154 195.169 85.4392C194.057 86.5543 192.886 87.5499 191.659 88.5366C189.985 89.8829 188.397 91.2877 186.832 92.7559C184.984 94.4879 183.079 96.1084 181.103 97.6946C179.624 98.9284 178.227 100.242 176.821 101.56C175.525 102.768 174.2 103.915 172.815 105.023C171.109 106.393 169.507 107.841 167.916 109.34C166.002 111.143 164.04 112.838 161.986 114.482C160.477 115.737 159.045 117.069 157.615 118.414C157.316 118.694 157.316 118.694 157.012 118.98C156.818 119.165 156.625 119.351 156.426 119.542C155.825 120.071 155.825 120.071 155.14 120.522C154.371 121.006 154.371 121.006 153.485 122.022C153.611 124.829 154.272 127.528 154.903 130.259C155.008 130.719 155.112 131.18 155.22 131.654C155.506 132.908 155.793 134.162 156.081 135.415C156.384 136.735 156.684 138.055 156.985 139.375C157.555 141.876 158.128 144.377 158.701 146.878C159.348 149.705 159.994 152.533 160.639 155.361C161.647 159.776 162.656 164.191 163.666 168.605C163.812 169.243 163.812 169.243 163.961 169.893C164.054 170.299 164.147 170.705 164.243 171.123C164.333 171.517 164.422 171.911 164.515 172.316C164.712 173.172 164.914 174.026 165.12 174.88C165.226 175.324 165.331 175.768 165.44 176.225C165.537 176.623 165.633 177.022 165.733 177.432C166.562 181.608 165.882 184.952 163.552 188.482C161.193 190.738 158.616 191.913 155.362 191.97C155.018 191.98 154.675 191.99 154.321 192C150.905 191.643 148.233 190 145.366 188.201C144.174 187.454 142.975 186.719 141.778 185.982C141.527 185.827 141.276 185.672 141.017 185.512C138.069 183.693 135.088 181.929 132.107 180.165C131.104 179.572 130.102 178.979 129.101 178.385C128.858 178.241 128.616 178.098 128.366 177.95C126.665 176.942 124.968 175.926 123.273 174.906C121.278 173.707 119.28 172.514 117.278 171.327C117.024 171.177 116.77 171.027 116.509 170.871C115.179 170.083 113.849 169.296 112.519 168.51C110.182 167.128 107.852 165.743 105.565 164.279C105.243 164.075 104.922 163.87 104.59 163.659C104.023 163.295 103.459 162.926 102.899 162.55C101.775 161.831 101.067 161.418 99.7146 161.513C98.3886 161.851 97.4713 162.329 96.3125 163.054C95.8918 163.313 95.4711 163.573 95.0377 163.841C94.7034 164.051 94.7034 164.051 94.3623 164.265C93.3992 164.869 92.4308 165.465 91.4627 166.062C90.9496 166.378 90.4366 166.695 89.924 167.012C87.1123 168.748 84.2713 170.434 81.4276 172.117C80.9034 172.428 80.3792 172.739 79.8551 173.05C78.0017 174.149 76.1475 175.246 74.2934 176.344C72.4458 177.439 70.5986 178.533 68.7517 179.629C68.3667 179.857 68.3667 179.857 67.9739 180.09C65.1423 181.769 62.3175 183.458 59.5069 185.173C59.132 185.401 59.132 185.401 58.7496 185.634C57.5685 186.355 56.3885 187.077 55.2102 187.802C50.9431 190.414 47.4796 192.5 42.3275 191.872C39.1625 190.838 36.939 189.319 35.307 186.409C35.0657 185.998 34.8244 185.588 34.5757 185.165C33.4057 181.198 34.306 177.14 35.2407 173.213C35.3596 172.695 35.4781 172.177 35.5961 171.659C35.8489 170.554 36.1052 169.45 36.3642 168.347C36.7745 166.6 37.177 164.85 37.5785 163.101C38.2148 160.333 38.8562 157.567 39.4999 154.801C40.6526 149.848 41.7967 144.892 42.9382 139.936C43.3383 138.2 43.7408 136.465 44.1454 134.73C44.3972 133.649 44.6473 132.567 44.8972 131.486C45.0674 130.751 45.2396 130.017 45.4119 129.283C45.9684 126.867 46.5012 124.504 46.6178 122.022C45.9256 121.062 45.4722 120.571 44.5702 119.876C44.2484 119.606 44.2484 119.606 43.9202 119.33C43.2678 118.785 42.6047 118.256 41.9375 117.73C41.2384 117.161 40.5396 116.592 39.8411 116.023C39.4922 115.742 39.1432 115.461 38.7838 115.172C37.204 113.846 35.7136 112.432 34.2127 111.018C32.5292 109.441 30.7808 107.976 28.9798 106.534C27.731 105.495 26.5462 104.402 25.3614 103.292C23.8419 101.868 22.3062 100.499 20.6811 99.1945C18.8238 97.7036 17.0873 96.1154 15.3509 94.4881C14.0539 93.2796 12.7296 92.133 11.3448 91.0243C0.575289 82.3695 0.57529 82.3695 0.0402025 77.6455C-0.123832 74.4167 0.145104 71.6048 2.15487 68.9524C4.1887 66.733 6.55991 65.4042 9.56926 65.0449C9.8137 65.0154 10.0581 64.9859 10.31 64.9555C14.8247 64.4328 19.357 64.0558 23.8833 63.6481C25.2899 63.5211 26.6964 63.3927 28.103 63.2643C30.7607 63.022 33.4186 62.7809 36.0766 62.5402C40.8404 62.1089 45.604 61.676 50.3675 61.2421C52.0356 61.0902 53.7038 60.9389 55.372 60.7881C56.1595 60.7169 56.9469 60.6454 57.7343 60.5739C58.6906 60.4869 59.6469 60.4004 60.6033 60.3144C61.431 60.2389 62.2584 60.1609 63.0856 60.0795C63.7667 60.0153 64.4487 59.9605 65.1316 59.9194C66.7176 59.8153 66.7176 59.8153 67.9419 58.8872C68.0661 58.5797 68.1903 58.2721 68.3183 57.9552C68.4678 57.6031 68.6173 57.2509 68.7713 56.8881C68.9217 56.4986 69.0721 56.1091 69.2271 55.7077C69.481 55.0959 69.481 55.0959 69.7401 54.4718C70.2998 53.1165 70.8418 51.7547 71.3844 50.3925C71.7735 49.4429 72.1639 48.4938 72.5557 47.5453C73.1684 46.0611 73.7798 44.5765 74.3853 43.0894C75.8105 39.59 77.2714 36.1075 78.7629 32.6359C78.8658 32.3965 78.9687 32.157 79.0747 31.9102C79.5867 30.719 80.0995 29.5282 80.6127 28.3375C81.3728 26.5727 82.1299 24.8065 82.8863 23.0401C83.2468 22.1991 83.6079 21.3583 83.9697 20.5179C84.8373 18.5012 85.6982 16.4822 86.5405 14.4549C86.9542 13.4601 87.3712 12.4666 87.7885 11.4732C88.0806 10.7742 88.368 10.0732 88.6554 9.37211C90.2954 5.47466 91.9361 2.55003 95.8372 0.633258C98.4776 -0.235042 102.452 -0.27887 104.975 0.932021Z" fill="#D9D9D9"/>
<path d="M95.8369 0.631165C98.4773 -0.237135 102.452 -0.281874 104.976 0.929016C105.6 1.29942 105.6 1.30036 106.292 1.83234C106.662 2.10886 107.031 2.38532 107.412 2.67023C108.7 3.7521 109.417 4.99838 110.117 6.51105C110.247 6.78155 110.377 7.05266 110.511 7.33136C112.215 10.9272 113.747 14.6017 115.287 18.2698C115.623 19.0642 115.958 19.8585 116.294 20.6526C117.007 22.3394 117.72 24.0268 118.432 25.7142C120.172 29.8345 121.927 33.9483 123.681 38.0628C126.736 45.2316 129.782 52.4053 132.813 59.5843C135.209 59.8142 137.604 60.0427 140 60.2718V184.887C137.384 183.287 134.746 181.724 132.106 180.162C131.104 179.569 130.102 178.976 129.101 178.382C128.858 178.239 128.616 178.095 128.366 177.948C126.665 176.939 124.968 175.923 123.273 174.904C121.279 173.704 119.281 172.511 117.278 171.325C117.025 171.174 116.77 171.023 116.509 170.868C115.179 170.08 113.849 169.293 112.519 168.507C110.182 167.125 107.851 165.74 105.564 164.277C105.243 164.072 104.922 163.867 104.591 163.657C104.023 163.293 103.459 162.923 102.899 162.547C101.775 161.828 101.067 161.415 99.7148 161.51C98.3888 161.848 97.4713 162.327 96.3125 163.051C95.8919 163.311 95.4714 163.571 95.0381 163.838C94.7038 164.048 94.7032 164.048 94.3623 164.262C93.3993 164.867 92.4309 165.462 91.4629 166.059C90.9497 166.375 90.4365 166.692 89.9238 167.009C87.1123 168.746 84.2714 170.431 81.4277 172.115C80.9036 172.425 80.3795 172.736 79.8555 173.047C78.002 174.146 76.1471 175.244 74.293 176.342C72.4455 177.436 70.5986 178.531 68.752 179.626C68.3669 179.855 68.3664 179.854 67.9736 180.087C65.1421 181.766 62.3174 183.456 59.5068 185.17C59.1321 185.399 59.1322 185.399 58.75 185.632C57.5689 186.353 56.3883 187.075 55.21 187.8C50.943 190.412 47.4792 192.497 42.3271 191.869C39.1623 190.836 36.9386 189.317 35.3066 186.407C35.0653 185.996 34.8248 185.585 34.5762 185.162C33.4062 181.195 34.3055 177.138 35.2402 173.21C35.3592 172.693 35.4777 172.174 35.5957 171.657C35.8485 170.552 36.1052 169.448 36.3643 168.345C36.7746 166.598 37.1766 164.847 37.5781 163.098C38.2143 160.331 38.8563 157.565 39.5 154.799C40.6527 149.846 41.797 144.89 42.9385 139.934C43.3386 138.198 43.7409 136.462 44.1455 134.727C44.3973 133.646 44.6477 132.564 44.8975 131.483C45.0676 130.748 45.2398 130.014 45.4121 129.281C45.9686 126.865 46.5015 124.501 46.6182 122.02C45.926 121.059 45.4723 120.568 44.5703 119.873C44.2486 119.603 44.2481 119.603 43.9199 119.327C43.2676 118.783 42.6047 118.254 41.9375 117.728C41.2384 117.159 40.5393 116.589 39.8408 116.02C39.492 115.739 39.1435 115.458 38.7842 115.169C37.2046 113.843 35.7137 112.43 34.2129 111.016C32.5295 109.439 30.7805 107.974 28.9795 106.532C27.7308 105.493 26.546 104.4 25.3613 103.289C23.8419 101.865 22.3058 100.496 20.6807 99.1917C18.8235 97.7009 17.0868 96.1128 15.3506 94.4857C14.0537 93.2772 12.7294 92.1305 11.3447 91.0218C0.575192 82.367 0.575126 82.3669 0.0400391 77.6429C-0.123988 74.4141 0.145519 71.6019 2.15527 68.9495C4.18902 66.7304 6.56016 65.4016 9.56934 65.0423C9.8136 65.0128 10.0579 64.9838 10.3096 64.9534C14.8241 64.4307 19.3567 64.0534 23.8828 63.6458C25.2893 63.5188 26.6961 63.3903 28.1025 63.262C30.7602 63.0197 33.4183 62.778 36.0762 62.5374C40.8398 62.1061 45.6037 61.6734 50.3672 61.2396C52.0353 61.0877 53.7039 60.9362 55.3721 60.7855C56.1595 60.7142 56.947 60.6432 57.7344 60.5716C58.6906 60.4847 59.6472 60.3979 60.6035 60.3118C61.4311 60.2364 62.2589 60.1588 63.0859 60.0775C63.7669 60.0132 64.4491 59.9584 65.1318 59.9173C66.7176 59.8133 66.7181 59.8131 67.9424 58.8851C68.0666 58.5775 68.1904 58.2693 68.3184 57.9525C68.4678 57.6005 68.6175 57.2487 68.7715 56.886C68.9218 56.4966 69.0717 56.1066 69.2266 55.7054C69.4805 55.0936 69.4812 55.0932 69.7402 54.4691C70.2999 53.1138 70.8422 51.7521 71.3848 50.39C71.7738 49.4404 72.1639 48.4908 72.5557 47.5423C73.1682 46.0584 73.7794 44.574 74.3848 43.0872C75.81 39.5878 77.2712 36.1047 78.7627 32.6331C78.8656 32.3937 78.9682 32.1542 79.0742 31.9075C79.5862 30.7165 80.0992 29.5258 80.6123 28.3353C81.3724 26.5704 82.1303 24.8038 82.8867 23.0374C83.2471 22.1965 83.608 21.3553 83.9697 20.515C84.8372 18.4985 85.6978 16.4796 86.54 14.4525C86.9537 13.4578 87.3709 12.4643 87.7881 11.471C88.0802 10.7719 88.3679 10.0705 88.6553 9.36945C90.2952 5.47217 91.9362 2.54792 95.8369 0.631165Z" fill="#FFC106"/>
</g>
<defs>
<clipPath id="clip0_2061_129">
<rect width="200" height="192" fill="white"/>
</clipPath>
</defs>
</svg>
