<svg width="200" height="192" viewBox="0 0 200 192" fill="none" xmlns="http://www.w3.org/2000/svg">
<g clip-path="url(#clip0_2061_111)">
<path d="M104.975 0.932021C105.6 1.30243 105.6 1.30243 106.292 1.83441C106.661 2.11104 107.031 2.38766 107.412 2.67268C108.701 3.75464 109.417 5.00115 110.117 6.51401C110.247 6.78453 110.377 7.05506 110.511 7.33378C112.216 10.9296 113.746 14.6043 115.287 18.2725C115.622 19.0668 115.958 19.8611 116.294 20.6552C117.007 22.342 117.719 24.0292 118.431 25.7166C120.171 29.8372 121.927 33.951 123.681 38.0658C126.737 45.2347 129.782 52.408 132.813 59.5871C135.676 59.8619 138.539 60.1358 141.401 60.4094C142.469 60.5115 143.537 60.6139 144.606 60.7166C151.472 61.3762 158.34 62.0181 165.211 62.6344C167.5 62.8401 169.788 63.048 172.077 63.2558C174.33 63.4601 176.584 63.6607 178.838 63.8587C180.26 63.9845 181.681 64.1138 183.103 64.244C183.766 64.304 184.429 64.3626 185.092 64.4196C194.11 65.1958 194.11 65.1958 197.558 68.5622C199.995 71.7573 200.187 74.7897 199.898 78.7079C199.3 81.0483 198.194 82.5742 196.388 84.171C195.98 84.5926 195.574 85.0154 195.169 85.4392C194.057 86.5543 192.886 87.5499 191.659 88.5366C189.985 89.8829 188.397 91.2877 186.832 92.7559C184.984 94.4879 183.079 96.1084 181.103 97.6946C179.624 98.9284 178.227 100.242 176.821 101.56C175.525 102.768 174.2 103.915 172.815 105.023C171.109 106.393 169.507 107.841 167.916 109.34C166.002 111.143 164.04 112.838 161.986 114.482C160.477 115.737 159.045 117.069 157.615 118.414C157.316 118.694 157.316 118.694 157.012 118.98C156.818 119.165 156.625 119.351 156.426 119.542C155.825 120.071 155.825 120.071 155.14 120.522C154.371 121.006 154.371 121.006 153.485 122.022C153.611 124.829 154.272 127.528 154.903 130.259C155.008 130.719 155.112 131.18 155.22 131.654C155.506 132.908 155.793 134.162 156.081 135.415C156.384 136.735 156.684 138.055 156.985 139.375C157.555 141.876 158.128 144.377 158.701 146.878C159.348 149.705 159.994 152.533 160.639 155.361C161.647 159.776 162.656 164.191 163.666 168.605C163.812 169.243 163.812 169.243 163.961 169.893C164.054 170.299 164.147 170.705 164.243 171.123C164.333 171.517 164.422 171.911 164.515 172.316C164.712 173.172 164.914 174.026 165.12 174.88C165.226 175.324 165.331 175.768 165.44 176.225C165.537 176.623 165.633 177.022 165.733 177.432C166.562 181.608 165.882 184.952 163.552 188.482C161.193 190.738 158.616 191.913 155.362 191.97C155.018 191.98 154.675 191.99 154.321 192C150.905 191.643 148.233 190 145.366 188.201C144.174 187.454 142.975 186.719 141.778 185.982C141.527 185.827 141.276 185.672 141.017 185.512C138.069 183.693 135.088 181.929 132.107 180.165C131.104 179.572 130.102 178.979 129.101 178.385C128.858 178.241 128.616 178.098 128.366 177.95C126.665 176.942 124.968 175.926 123.273 174.906C121.278 173.707 119.28 172.514 117.278 171.327C117.024 171.177 116.77 171.027 116.509 170.871C115.179 170.083 113.849 169.296 112.519 168.51C110.182 167.128 107.852 165.743 105.565 164.279C105.243 164.075 104.922 163.87 104.59 163.659C104.023 163.295 103.459 162.926 102.899 162.55C101.775 161.831 101.067 161.418 99.7146 161.513C98.3886 161.851 97.4713 162.329 96.3125 163.054C95.8918 163.313 95.4711 163.573 95.0377 163.841C94.7034 164.051 94.7034 164.051 94.3623 164.265C93.3992 164.869 92.4308 165.465 91.4627 166.062C90.9496 166.378 90.4366 166.695 89.924 167.012C87.1123 168.748 84.2713 170.434 81.4276 172.117C80.9034 172.428 80.3792 172.739 79.8551 173.05C78.0017 174.149 76.1475 175.246 74.2934 176.344C72.4458 177.439 70.5986 178.533 68.7517 179.629C68.3667 179.857 68.3667 179.857 67.9739 180.09C65.1423 181.769 62.3175 183.458 59.5069 185.173C59.132 185.401 59.132 185.401 58.7496 185.634C57.5685 186.355 56.3885 187.077 55.2102 187.802C50.9431 190.414 47.4796 192.5 42.3275 191.872C39.1625 190.838 36.939 189.319 35.307 186.409C35.0657 185.998 34.8244 185.588 34.5757 185.165C33.4057 181.198 34.306 177.14 35.2407 173.213C35.3596 172.695 35.4781 172.177 35.5961 171.659C35.8489 170.554 36.1052 169.45 36.3642 168.347C36.7745 166.6 37.177 164.85 37.5785 163.101C38.2148 160.333 38.8562 157.567 39.4999 154.801C40.6526 149.848 41.7967 144.892 42.9382 139.936C43.3383 138.2 43.7408 136.465 44.1454 134.73C44.3972 133.649 44.6473 132.567 44.8972 131.486C45.0674 130.751 45.2396 130.017 45.4119 129.283C45.9684 126.867 46.5012 124.504 46.6178 122.022C45.9256 121.062 45.4722 120.571 44.5702 119.876C44.2484 119.606 44.2484 119.606 43.9202 119.33C43.2678 118.785 42.6047 118.256 41.9375 117.73C41.2384 117.161 40.5396 116.592 39.8411 116.023C39.4922 115.742 39.1432 115.461 38.7838 115.172C37.204 113.846 35.7136 112.432 34.2127 111.018C32.5292 109.441 30.7808 107.976 28.9798 106.534C27.731 105.495 26.5462 104.402 25.3614 103.292C23.8419 101.868 22.3062 100.499 20.6811 99.1945C18.8238 97.7036 17.0873 96.1154 15.3509 94.4881C14.0539 93.2796 12.7296 92.133 11.3448 91.0243C0.575289 82.3695 0.57529 82.3695 0.0402025 77.6455C-0.123832 74.4167 0.145104 71.6048 2.15487 68.9524C4.1887 66.733 6.55991 65.4042 9.56926 65.0449C9.8137 65.0154 10.0581 64.9859 10.31 64.9555C14.8247 64.4328 19.357 64.0558 23.8833 63.6481C25.2899 63.5211 26.6964 63.3927 28.103 63.2643C30.7607 63.022 33.4186 62.7809 36.0766 62.5402C40.8404 62.1089 45.604 61.676 50.3675 61.2421C52.0356 61.0902 53.7038 60.9389 55.372 60.7881C56.1595 60.7169 56.9469 60.6454 57.7343 60.5739C58.6906 60.4869 59.6469 60.4004 60.6033 60.3144C61.431 60.2389 62.2584 60.1609 63.0856 60.0795C63.7667 60.0153 64.4487 59.9605 65.1316 59.9194C66.7176 59.8153 66.7176 59.8153 67.9419 58.8872C68.0661 58.5797 68.1903 58.2721 68.3183 57.9552C68.4678 57.6031 68.6173 57.2509 68.7713 56.8881C68.9217 56.4986 69.0721 56.1091 69.2271 55.7077C69.481 55.0959 69.481 55.0959 69.7401 54.4718C70.2998 53.1165 70.8418 51.7547 71.3844 50.3925C71.7735 49.4429 72.1639 48.4938 72.5557 47.5453C73.1684 46.0611 73.7798 44.5765 74.3853 43.0894C75.8105 39.59 77.2714 36.1075 78.7629 32.6359C78.8658 32.3965 78.9687 32.157 79.0747 31.9102C79.5867 30.719 80.0995 29.5282 80.6127 28.3375C81.3728 26.5727 82.1299 24.8065 82.8863 23.0401C83.2468 22.1991 83.6079 21.3583 83.9697 20.5179C84.8373 18.5012 85.6982 16.4822 86.5405 14.4549C86.9542 13.4601 87.3712 12.4666 87.7885 11.4732C88.0806 10.7742 88.368 10.0732 88.6554 9.37211C90.2954 5.47466 91.9361 2.55003 95.8372 0.633258C98.4776 -0.235042 102.452 -0.27887 104.975 0.932021Z" fill="#D9D9D9"/>
<path d="M80.0002 172.96C79.9518 172.989 79.9032 173.018 79.8547 173.047C78.0014 174.146 76.1472 175.244 74.2932 176.342C72.4458 177.436 70.5989 178.531 68.7522 179.626C68.3672 179.855 68.3667 179.854 67.9739 180.087C65.1423 181.766 62.3176 183.456 59.5071 185.17C59.1322 185.399 59.1317 185.399 58.7493 185.632C57.5683 186.353 56.3884 187.075 55.2102 187.8C50.9432 190.412 47.4795 192.497 42.3274 191.87C39.1625 190.836 36.9389 189.317 35.3069 186.407C35.0656 185.996 34.8241 185.585 34.5754 185.162C33.4055 181.196 34.3058 177.138 35.2405 173.21C35.3594 172.693 35.4779 172.175 35.5959 171.657C35.8487 170.552 36.1054 169.447 36.3645 168.344C36.7748 166.597 37.1768 164.847 37.5784 163.098C38.2146 160.331 38.8566 157.564 39.5002 154.798C40.6529 149.845 41.7972 144.89 42.9387 139.934C43.3388 138.198 43.7412 136.462 44.1458 134.727C44.3975 133.646 44.6469 132.564 44.8967 131.483C45.0669 130.748 45.2401 130.015 45.4124 129.281C45.9688 126.865 46.5008 124.501 46.6174 122.02C45.9254 121.06 45.4724 120.568 44.5706 119.873C44.2489 119.603 44.2482 119.603 43.9202 119.328C43.2679 118.783 42.6049 118.254 41.9377 117.728C41.2386 117.159 40.5395 116.589 39.8411 116.02C39.4922 115.739 39.1429 115.458 38.7834 115.169C37.204 113.843 35.7138 112.43 34.2131 111.016C32.5297 109.439 30.7808 107.974 28.9797 106.532C27.731 105.493 26.5463 104.4 25.3616 103.289C23.8421 101.866 22.306 100.496 20.6809 99.1918C18.8237 97.701 17.0871 96.1129 15.3508 94.4857C14.0539 93.2772 12.7296 92.1305 11.345 91.0219C0.57541 82.3671 0.57537 82.367 0.0402832 77.6429C-0.123751 74.4142 0.144774 71.602 2.15454 68.9496C4.18837 66.7302 6.56022 65.4016 9.56958 65.0424C9.81384 65.0129 10.0582 64.9839 10.3098 64.9535C14.8245 64.4308 19.3569 64.0535 23.8831 63.6459C25.2896 63.5189 26.6963 63.3904 28.1028 63.2621C30.7605 63.0198 33.4185 62.7781 36.0764 62.5375C40.8402 62.1062 45.6039 61.6735 50.3674 61.2396C52.0355 61.0877 53.7041 60.9363 55.3723 60.7855C56.1597 60.7143 56.9473 60.6432 57.7346 60.5717C58.6906 60.4848 59.6467 60.3979 60.6028 60.3119C61.4304 60.2364 62.2582 60.1579 63.0852 60.0765C63.7663 60.0123 64.4492 59.9575 65.1321 59.9164C66.7174 59.8124 66.7178 59.8128 67.9417 58.8851C68.0658 58.5776 68.1906 58.2694 68.3186 57.9525C68.4681 57.6005 68.6177 57.2478 68.7717 56.8851C68.922 56.4959 69.072 56.1065 69.2268 55.7054C69.4808 55.0936 69.4814 55.0933 69.7405 54.4691C70.3001 53.1139 70.8414 51.7521 71.384 50.39C71.7731 49.4404 72.1641 48.4909 72.5559 47.5424C73.1684 46.0585 73.7796 44.5741 74.385 43.0873C75.8102 39.5879 77.2714 36.1048 78.7629 32.6332C78.8658 32.3938 78.9685 32.1543 79.0745 31.9076C79.3825 31.1909 79.6917 30.4747 80.0002 29.7582V172.96Z" fill="#FFC106"/>
</g>
<defs>
<clipPath id="clip0_2061_111">
<rect width="200" height="192" fill="white"/>
</clipPath>
</defs>
</svg>
