<svg width="512" height="512" viewBox="0 0 512 512" fill="none" xmlns="http://www.w3.org/2000/svg">
<g clip-path="url(#clip0_2057_40)">
<g clip-path="url(#clip1_2057_40)">
<path d="M203.548 -0.268629C208.547 -0.263451 213.546 -0.268293 218.545 -0.271402C226.929 -0.275008 235.313 -0.270332 243.697 -0.260721C253.294 -0.249843 262.892 -0.253371 272.49 -0.264373C280.833 -0.273544 289.176 -0.274685 297.52 -0.269496C302.458 -0.266429 307.395 -0.265817 312.333 -0.272569C401.968 -0.378102 401.968 -0.378101 439 19C439.6 19.312 440.201 19.6239 440.819 19.9453C449.294 24.3977 456.942 29.4907 464 36C464.611 36.5622 465.223 37.1244 465.853 37.7036C492.892 62.9004 506.307 94.5429 511 131C511.139 132.071 511.139 132.071 511.281 133.165C512.377 143.238 512.156 153.372 512.161 163.49C512.166 165.667 512.171 167.843 512.176 170.019C512.189 175.91 512.196 181.802 512.2 187.693C512.203 191.386 512.207 195.079 512.212 198.772C512.225 210.362 512.235 221.951 512.239 233.541C512.24 235.517 512.24 235.517 512.24 237.532C512.24 238.192 512.241 238.852 512.241 239.532C512.245 250.846 512.265 262.161 512.29 273.476C512.312 283.807 512.322 294.138 512.323 304.469C512.324 310.619 512.33 316.768 512.348 322.918C512.499 377.66 509.604 429.782 469.375 471.125C442.198 498.018 405.26 508.744 367.934 511.093C367.257 511.135 366.581 511.178 365.884 511.222C347.353 512.354 328.809 512.294 310.25 512.269C305.223 512.263 300.196 512.268 295.169 512.271C286.738 512.275 278.307 512.27 269.876 512.261C260.224 512.25 250.572 512.253 240.92 512.264C232.53 512.274 224.14 512.275 215.75 512.27C210.784 512.266 205.818 512.266 200.852 512.273C182.567 512.294 164.321 512.241 146.066 511.093C144.17 510.973 144.17 510.973 142.236 510.852C108.535 508.479 74.1418 498.661 49.1289 475.008C47.2904 473.274 45.4113 471.699 43.4375 470.125C15.849 446.469 4.89737 406.759 1.99999 372C1.79356 368.917 1.63287 365.833 1.48437 362.746C1.4422 361.877 1.40003 361.008 1.35658 360.112C0.910899 350.577 0.633575 341.043 0.437494 331.5C0.416647 330.498 0.395801 329.497 0.374322 328.465C-0.723107 273.07 -1.15074 217.371 0.999994 162C1.04383 160.869 1.04383 160.869 1.08856 159.716C3.09376 109.782 14.9805 69.119 52 34.1875C57.8841 28.8847 64.087 24.8363 71 21C71.5884 20.6676 72.1769 20.3352 72.7832 19.9927C112.445 -2.16066 159.516 -0.328837 203.548 -0.268629ZM75.3633 77.5313C43.0799 111.15 47.8393 164.654 47.8327 207.667C47.832 210.325 47.8299 212.984 47.8272 215.643C47.818 224.989 47.8139 234.334 47.8147 243.68C47.8153 252.276 47.8048 260.872 47.7889 269.468C47.7757 276.942 47.7705 284.415 47.7712 291.889C47.7714 296.311 47.7688 300.732 47.758 305.154C47.7172 323.035 47.9244 340.859 48.9089 358.716C48.9693 359.836 48.9693 359.836 49.0308 360.978C50.6129 389.606 56.7402 414.821 77 436C77.9378 437.05 77.9378 437.05 78.8945 438.121C99.6637 460.552 133.841 463.777 162.513 464.89C175.675 465.305 188.848 465.383 202.016 465.532C205.475 465.572 208.935 465.617 212.394 465.661C241.964 466.037 271.518 466.058 301.088 465.712C305.338 465.663 309.589 465.616 313.84 465.578C330.839 465.424 347.806 465.187 364.773 464.07C365.962 463.992 367.151 463.914 368.375 463.833C394.716 461.909 417.688 454.729 437 436C437.612 435.461 438.225 434.922 438.855 434.367C460.492 414.662 464.329 382.283 465.67 354.765C466.325 339.252 466.165 323.707 466.167 308.183C466.168 305.328 466.17 302.473 466.173 299.617C466.182 289.595 466.186 279.573 466.185 269.551C466.185 260.309 466.195 251.066 466.211 241.824C466.224 233.808 466.229 225.792 466.229 217.776C466.229 213.024 466.231 208.273 466.242 203.521C466.28 185.691 466.21 167.907 465.091 150.107C464.971 148.19 464.971 148.19 464.848 146.234C462.88 118.144 454.971 94.2618 435 74C434.014 72.9946 434.014 72.9946 433.008 71.9688C399.686 40.506 342.446 46.8305 300.357 46.8657C296.256 46.8683 292.156 46.8659 288.055 46.8643C281.18 46.8625 274.305 46.8648 267.429 46.8696C259.562 46.8751 251.695 46.8733 243.827 46.8678C236.983 46.8632 230.139 46.8627 223.295 46.8653C219.246 46.8668 215.197 46.8671 211.149 46.8637C137.994 44.7687 137.994 44.7687 75.3633 77.5313Z" fill="#F2B233"/>
<path d="M341.723 154.277C344.208 156.463 346.609 158.712 349 161C349.797 161.722 350.593 162.444 351.414 163.187C374.922 185.278 388.043 218.227 389.215 250.145C390.066 285.754 378.81 319.421 354.262 345.641C353.515 346.419 352.769 347.198 352 348C351.243 348.82 350.487 349.64 349.707 350.484C336.238 364.634 319.253 374.383 301 381C299.952 381.382 298.904 381.763 297.824 382.156C264.607 393.299 227.688 389.481 196.5 374.125C183.004 367.178 171.573 357.858 161 347C160.493 346.539 159.987 346.077 159.465 345.602C138.492 326.015 126.202 293.64 124.875 265.344C123.834 228.181 133.993 193.856 159.738 166.359C160.485 165.581 161.231 164.802 162 164C162.757 163.18 163.513 162.36 164.293 161.516C210.5 112.972 291.452 112.229 341.723 154.277ZM200 193C199.238 193.666 198.476 194.333 197.691 195.02C181.997 209.68 172.873 231.021 171.84 252.297C171.271 276.135 179.429 297.528 195.766 314.766C196.503 315.503 197.24 316.24 198 317C198.696 317.696 199.392 318.392 200.109 319.109C216.686 334.718 238.371 341.832 260.914 341.25C280.71 340.31 299.246 331.979 314 319C314.762 318.334 315.524 317.667 316.309 316.98C332.066 302.261 340.849 280.756 342.156 259.453C342.883 237.045 334.748 215.766 320 199C319.334 198.238 318.667 197.476 317.98 196.691C303.261 180.934 281.756 172.151 260.453 170.844C238.045 170.117 216.766 178.252 200 193Z" fill="#F2B233"/>
<path d="M412.52 93.6953C419.001 99.0056 423.373 105.704 425 114C425.939 124.288 423.754 132.958 417.105 140.953C409.778 148.077 402.192 150.281 392.268 150.321C384.177 150.186 376.768 147.928 371 142C364.827 133.909 361.437 125.848 362.176 115.551C363.528 106.851 367.51 99.7407 374.25 94.0625C385.985 85.7281 400.591 85.6688 412.52 93.6953Z" fill="#F2B233"/>
</g>
</g>
<defs>
<clipPath id="clip0_2057_40">
<rect width="512" height="512" fill="white" transform="matrix(-1 0 0 1 512 0)"/>
</clipPath>
<clipPath id="clip1_2057_40">
<rect width="512" height="512" fill="white"/>
</clipPath>
</defs>
</svg>
