<svg width="512" height="512" viewBox="0 0 512 512" fill="none" xmlns="http://www.w3.org/2000/svg">
<g clip-path="url(#clip0_2057_38)">
<path d="M251 0C287.3 0 323.6 0 361 0C361.33 7.26 361.66 14.52 362 22C364.836 49.6511 376.711 75.5824 398 94C420.161 111.74 444.123 118.56 472.188 120.062C474.308 120.178 476.428 120.296 478.548 120.419C480.442 120.529 482.337 120.632 484.231 120.735C487 121 487 121 488 122C488.095 123.391 488.122 124.788 488.12 126.182C488.122 127.535 488.122 127.535 488.124 128.915C488.121 129.912 488.117 130.909 488.114 131.936C488.114 132.98 488.114 134.023 488.114 135.099C488.113 138.567 488.105 142.036 488.098 145.504C488.096 147.901 488.094 150.299 488.093 152.697C488.09 159.021 488.08 165.345 488.069 171.67C488.058 178.118 488.054 184.566 488.049 191.014C488.038 203.676 488.021 216.338 488 229C482.27 229.041 476.541 229.07 470.811 229.089C468.868 229.097 466.925 229.108 464.982 229.123C449.92 229.23 435.726 228.46 421 225C420.064 224.786 419.128 224.571 418.164 224.351C398.691 219.775 380.678 212.254 363 203C362.34 202.67 361.68 202.34 361 202C361.019 203.801 361.019 203.801 361.038 205.639C361.158 217.191 361.276 228.744 361.391 240.296C361.45 246.23 361.511 252.163 361.573 258.096C361.728 272.956 361.865 287.816 361.975 302.677C362 305.966 362.027 309.255 362.054 312.543C362.095 317.742 362.123 322.941 362.143 328.139C362.152 330.034 362.164 331.928 362.18 333.823C362.318 350.862 361.932 368.431 357.875 385.062C357.663 385.955 357.452 386.847 357.233 387.766C350.07 416.453 335.622 440.245 316 462C315.325 462.749 314.649 463.498 313.953 464.27C307.943 470.575 300.982 475.827 294 481C293.128 481.647 293.128 481.647 292.238 482.306C267.977 500.004 236.135 512.017 205.891 512.203C205.13 512.21 204.37 512.217 203.587 512.224C201.141 512.242 198.696 512.248 196.25 512.25C195.416 512.251 194.582 512.251 193.723 512.252C181.569 512.236 169.863 511.875 158 509C157.285 508.839 156.571 508.678 155.834 508.512C126.639 501.831 100.406 486.726 79 466C78.4973 465.523 77.9945 465.046 77.4766 464.555C47.9211 436.499 29.8318 396.852 28.6523 356.023C28.0452 327.868 32.4883 301.433 45 276C45.3066 275.369 45.6133 274.738 45.9292 274.088C64.8337 235.632 99.2984 206.015 139.566 191.754C169.287 181.826 200.235 180.79 231 186C231.66 186.33 232.32 186.66 233 187C233 224.62 233 262.24 233 301C226.655 299.731 220.817 298.458 214.75 296.438C198.936 291.202 184.991 292.074 169.875 299.125C156.367 306.047 147.717 316.852 142.5 331.062C138.732 345.036 139.764 359.954 146 373C147.688 375.786 149.448 378.381 151.449 380.949C153 383 153 383 153.957 385.145C155.288 387.512 156.549 387.918 159 389C160.205 389.915 161.392 390.854 162.562 391.812C174.332 400.793 188.919 404.228 203.5 402.375C217.741 399.82 231.026 392.464 240 381C247.805 368.39 250.301 357.263 250.278 342.485C250.283 341.005 250.289 339.526 250.296 338.046C250.312 333.994 250.315 329.942 250.317 325.89C250.32 321.515 250.336 317.14 250.349 312.765C250.372 305.19 250.387 297.615 250.397 290.039C250.411 279.087 250.437 268.134 250.465 257.181C250.51 239.411 250.547 221.64 250.578 203.87C250.608 186.609 250.643 169.348 250.683 152.087C250.685 151.023 250.688 149.959 250.69 148.862C250.702 143.523 250.715 138.184 250.727 132.845C250.831 88.5633 250.919 44.2817 251 0ZM282 30C281.996 34.0818 281.993 38.1635 281.989 42.369C281.954 79.8523 281.899 117.336 281.822 154.819C281.812 159.738 281.802 164.656 281.792 169.575C281.79 171.044 281.79 171.044 281.787 172.542C281.756 188.37 281.739 204.198 281.727 220.025C281.714 236.282 281.687 252.538 281.645 268.795C281.62 278.815 281.607 288.835 281.609 298.856C281.609 305.74 281.594 312.623 281.568 319.507C281.553 323.471 281.545 327.434 281.554 331.398C281.635 370.418 281.635 370.418 273.188 385.5C272.842 386.151 272.497 386.802 272.141 387.473C269.173 392.952 265.862 398.105 262 403C261.432 403.744 260.863 404.488 260.277 405.254C248.12 420.096 227.983 430.73 209 433C182.98 435.051 159.398 430.629 139 413.625C128.014 404.021 119.956 392.587 114.75 379C114.38 378.04 114.38 378.04 114.003 377.06C107.385 358.931 107.627 337.139 114 319C114.374 317.929 114.748 316.858 115.133 315.754C119.575 304.208 126.366 294.78 135 286C135.687 285.3 136.374 284.6 137.082 283.879C155.036 266.791 178.119 262.592 202 261C202 245.49 202 229.98 202 214C188.752 213.889 188.752 213.889 175.75 215.125C174.876 215.256 174.002 215.387 173.101 215.523C157.343 218.082 142.869 223.133 129 231C128.411 231.333 127.822 231.666 127.215 232.009C119.598 236.376 112.681 241.317 106 247C105.291 247.587 104.582 248.173 103.852 248.777C99.0734 252.814 94.9519 257.157 91 262C90.2266 262.936 89.4531 263.872 88.6563 264.836C65.4531 293.534 57.6066 328.222 60.186 364.625C63.2909 393.809 78.1867 420.009 98 441C98.9339 442.013 98.9339 442.013 99.8867 443.047C124.097 468.424 159.343 480.939 193.855 481.964C224.197 482.475 255.439 472.274 279 453C279.841 452.315 279.841 452.315 280.699 451.616C287.681 445.893 294.472 440.183 300 433C300.398 432.497 300.795 431.994 301.205 431.476C325.005 401.206 331.217 368.126 331.094 330.391C331.09 328.137 331.086 325.883 331.083 323.629C331.018 291.047 330.774 258.466 330.555 225.884C330.493 216.708 330.433 207.532 330.373 198.355C330.251 179.57 330.126 160.785 330 142C331.429 142.943 332.857 143.889 334.284 144.835C335.08 145.361 335.875 145.887 336.694 146.43C339.818 148.557 342.752 150.875 345.688 153.25C373.78 175.558 404.347 191.043 440 197C440.786 197.131 441.573 197.263 442.383 197.398C447.343 198.118 451.89 198 457 198C457 182.49 457 166.98 457 151C451.39 150.01 445.78 149.02 440 148C413.628 141.679 391.84 130.736 372 112C371.199 111.276 370.399 110.551 369.574 109.805C346.88 88.4499 337.258 59.724 331 30C314.83 30 298.66 30 282 30Z" fill="#F2B233"/>
</g>
<defs>
<clipPath id="clip0_2057_38">
<rect width="512" height="512" fill="white" transform="matrix(-1 0 0 1 512 0)"/>
</clipPath>
</defs>
</svg>
