<svg width="232" height="260" viewBox="0 0 232 260" fill="none" xmlns="http://www.w3.org/2000/svg">
<path d="M180.549 111.494L197.424 83.4002V118.409L226.289 207.445L213.411 238.996L186.322 162.063L180.549 111.494Z" fill="#EEB327" stroke="#EEB327"/>
<path d="M225.571 38.0189C219.932 39.8832 214.603 47.4384 210.494 51.9843C209.481 53.1029 208.46 54.2122 207.438 55.3211C194.942 69.0121 184.778 85.2829 179.492 103.895C179.159 105.058 179.159 105.058 178.82 106.244C175.853 119.202 176.678 134.304 180.104 147.051C180.242 147.599 180.38 148.147 180.523 148.712C183.374 159.842 187.723 170.256 191.981 180.794C200.806 202.659 208.487 225.568 200.755 249.295C199.73 252.462 199.303 254.423 200.296 257.64C201.778 259.664 202.789 259.669 205.153 260C207.152 259.907 207.57 259.724 209.207 258.272C209.945 257.292 209.945 257.292 210.698 256.291C211.335 255.658 211.973 255.026 212.611 254.395C222.77 243.126 229.025 226.964 229.076 211.14C228.838 195.635 223.374 181.385 218.041 167.281C207.156 138.465 200.039 111.791 211.31 81.642C215.62 71.0571 221.07 61.3716 227.681 52.3565C231.84 46.6424 231.84 46.6424 232 43.5429C231.503 41.1828 231.503 41.1828 230.585 39.497C228.893 38.3784 227.558 37.895 225.571 38.0189ZM197.237 89.7339C197.163 90.1634 197.088 90.5928 197.012 91.0353C192.128 119.973 197.373 143.218 207.639 169.978C218.717 198.207 218.717 198.207 215.594 227.97C215.392 227.97 215.19 227.97 214.982 227.97C214.942 227.567 214.902 227.164 214.862 226.749C213.005 208.384 208.104 192.527 201.421 175.663C187.3 140.116 187.3 140.116 191.013 102.424C192.595 98.0512 194.269 93.6775 196.625 89.7339C196.827 89.7339 197.029 89.7339 197.237 89.7339Z" fill="#EEB327"/>
<path d="M91.0328 80.8069L107.891 41.0436L112.349 56.6032V107.604L140.326 200.529L128.068 238.996L115.901 187.995L93.8784 141.12L91.0328 80.8069Z" fill="#EEB327" stroke="#EEB327"/>
<path d="M142.591 0.0253729C139.594 0.811699 137.658 3.02771 135.552 5.1431C135.121 5.5627 134.689 5.9823 134.245 6.41462C133.424 7.21438 132.606 8.01799 131.792 8.82575C130.635 9.96673 130.635 9.96673 128.96 11.1789C126.93 12.8089 125.33 14.6366 123.626 16.5815C122.474 17.8566 121.282 19.0346 120.026 20.2114C116.821 23.2889 114.062 26.7022 111.266 30.1303C110.722 30.7832 110.178 31.4361 109.618 32.1088C99.0179 45.1043 90.0649 59.9497 85.5928 76.0526C85.4588 76.5093 85.3247 76.9661 85.1866 77.4366C81.1563 91.5869 80.9984 109.113 84.899 123.326C85.0368 123.853 85.1747 124.381 85.3167 124.924C88.8929 138.463 94.1299 151.306 99.6804 164.172C111.507 191.605 122.45 220.296 111.579 249.819C110.443 253.112 110.576 255.196 111.96 258.391C114.523 260.054 116.618 260.275 119.593 259.742C121.065 258.64 121.915 257.745 123.062 256.365C123.509 255.913 123.956 255.46 124.417 254.994C138.976 240.13 146.588 220.895 146.125 200.419C145.371 181.038 137.045 163.048 129.734 145.306C116.193 112.413 110.726 80.8316 125.229 47.2568C130.348 35.8539 136.819 25.2043 144.561 15.3021C144.885 14.8823 145.209 14.4625 145.542 14.03C146.144 13.2565 146.758 12.4913 147.385 11.7373C149.717 8.74896 149.783 6.72335 149.429 3.11711C147.772 0.429622 145.796 -0.136661 142.591 0.0253729ZM109.185 54.4421C109.008 55.1551 108.832 55.8681 108.651 56.6026C100.231 91.4628 106.992 121.074 120.281 153.824C120.524 154.423 120.767 155.023 121.017 155.64C122.218 158.604 123.426 161.565 124.651 164.519C132.418 183.429 138.598 204.069 130.564 223.907C130.155 224.826 129.74 225.742 129.307 226.651C129.078 226.651 128.849 226.651 128.613 226.651C128.572 226.102 128.53 225.552 128.488 224.986C127.752 215.606 127.004 206.293 124.623 197.148C124.474 196.57 124.324 195.992 124.17 195.397C121.059 184.222 116.539 173.503 111.905 162.863C100.403 136.372 87.6898 107.087 97.3887 78.0786C97.5599 77.5563 97.731 77.034 97.9074 76.4958C100.412 69.0264 103.499 61.7908 107.797 55.1174C108.255 54.8946 108.713 54.6717 109.185 54.4421Z" fill="#EEB327"/>
<path d="M3.54935 111.494L20.4243 83.4002V118.409L49.2894 207.445L36.4112 238.996L9.32237 162.063L3.54935 111.494Z" fill="#EEB327" stroke="#EEB327"/>
<path d="M48.5714 38.0189C42.9322 39.8832 37.6028 47.4384 33.494 51.9843C32.4809 53.1029 31.4599 54.2122 30.4381 55.3211C17.9416 69.0121 7.77796 85.2829 2.49174 103.895C2.15927 105.058 2.15927 105.058 1.82009 106.244C-1.14704 119.202 -0.322091 134.304 3.10363 147.051C3.24187 147.599 3.3801 148.147 3.52252 148.712C6.37388 159.842 10.723 170.256 14.9812 180.794C23.806 202.659 31.4867 225.568 23.7551 249.295C22.7301 252.462 22.3025 254.423 23.2962 257.64C24.7776 259.664 25.7888 259.669 28.1531 260C30.1521 259.907 30.5696 259.724 32.2069 258.272C32.9452 257.292 32.9452 257.292 33.6984 256.291C34.3352 255.658 34.9727 255.026 35.6106 254.395C45.7699 243.126 52.0249 226.964 52.0765 211.14C51.8376 195.635 46.3739 181.385 41.0411 167.281C30.156 138.465 23.0391 111.791 34.3103 81.642C38.6201 71.0571 44.0702 61.3716 50.6809 52.3565C54.84 46.6424 54.84 46.6424 55 43.5429C54.5028 41.1828 54.5028 41.1828 53.585 39.497C51.8933 38.3784 50.5581 37.895 48.5714 38.0189ZM20.2367 89.7339C20.1626 90.1634 20.0884 90.5928 20.012 91.0353C15.1279 119.973 20.3732 143.218 30.6389 169.978C41.7166 198.207 41.7166 198.207 38.5936 227.97C38.3916 227.97 38.1897 227.97 37.9817 227.97C37.9421 227.567 37.9025 227.164 37.8617 226.749C36.0054 208.384 31.1039 192.527 24.4211 175.663C10.2997 140.116 10.2997 140.116 14.0126 102.424C15.595 98.0512 17.2688 93.6775 19.6248 89.7339C19.8267 89.7339 20.0287 89.7339 20.2367 89.7339Z" fill="#EEB327"/>
</svg>
