<svg width="512" height="512" viewBox="0 0 512 512" fill="none" xmlns="http://www.w3.org/2000/svg">
<g clip-path="url(#clip0_2057_46)">
<g clip-path="url(#clip1_2057_46)">
<path d="M63.7918 -0.134198C64.4654 -0.13655 65.1389 -0.138903 65.8329 -0.141326C68.0941 -0.147993 70.3554 -0.147559 72.6167 -0.147148C74.2527 -0.150448 75.8887 -0.154174 77.5247 -0.15829C82.0242 -0.168302 86.5237 -0.172025 91.0232 -0.174679C95.8748 -0.178584 100.726 -0.188163 105.578 -0.196892C117.297 -0.21665 129.017 -0.226722 140.736 -0.23562C146.256 -0.240004 151.777 -0.24537 157.298 -0.250608C175.653 -0.267621 194.008 -0.282114 212.364 -0.289357C217.126 -0.291267 221.889 -0.293187 226.652 -0.295143C228.428 -0.295869 228.428 -0.295869 230.239 -0.296609C249.409 -0.304907 268.579 -0.330239 287.749 -0.362724C307.436 -0.395813 327.124 -0.413808 346.811 -0.417001C357.862 -0.419165 368.913 -0.42789 379.965 -0.453463C389.378 -0.475195 398.791 -0.483208 408.204 -0.473496C413.004 -0.468958 417.803 -0.470806 422.603 -0.490257C427.005 -0.507941 431.406 -0.506849 435.807 -0.49136C437.392 -0.488992 438.977 -0.493266 440.562 -0.505189C461.155 -0.650399 478.521 5.8447 493.41 20.3477C504.375 31.8986 512.11 47.7063 512.134 63.7919C512.137 64.4654 512.139 65.139 512.141 65.8329C512.148 68.0942 512.148 70.3554 512.147 72.6167C512.15 74.2527 512.154 75.8887 512.158 77.5247C512.168 82.0242 512.172 86.5237 512.175 91.0232C512.179 95.8749 512.188 100.726 512.197 105.578C512.217 117.297 512.227 129.017 512.236 140.736C512.24 146.256 512.245 151.777 512.251 157.298C512.268 175.653 512.282 194.008 512.289 212.364C512.291 217.126 512.293 221.889 512.295 226.652C512.296 227.836 512.296 229.02 512.297 230.239C512.305 249.409 512.33 268.579 512.363 287.749C512.396 307.436 512.414 327.124 512.417 346.811C512.419 357.862 512.428 368.913 512.453 379.965C512.475 389.378 512.483 398.791 512.474 408.204C512.469 413.004 512.471 417.803 512.49 422.603C512.508 427.005 512.507 431.406 512.491 435.807C512.489 437.392 512.493 438.977 512.505 440.562C512.64 459.72 507.195 476.701 494 491C483.032 502.094 468.532 511.339 452.479 512.123C451.584 512.122 450.689 512.121 449.767 512.12C448.736 512.122 447.705 512.123 446.642 512.124C445.517 512.121 444.392 512.117 443.233 512.114C442.023 512.114 440.813 512.114 439.567 512.114C435.653 512.113 431.738 512.106 427.824 512.098C425.407 512.096 422.989 512.095 420.572 512.095C411.61 512.089 402.649 512.075 393.687 512.062C373.661 512.042 353.634 512.021 333 512C333 451.61 333 391.22 333 329C354.12 328.67 375.24 328.34 397 328C403.868 325.85 403.868 325.85 405.837 322.026C407.546 317.04 408.026 311.796 408.605 306.582C408.734 305.488 408.863 304.395 408.996 303.268C409.266 300.96 409.53 298.651 409.79 296.342C410.184 292.84 410.598 289.341 411.014 285.842C411.275 283.589 411.534 281.335 411.793 279.082C411.915 278.05 412.037 277.019 412.162 275.956C414.054 263.503 414.054 263.503 411.187 251.813C407.313 248.602 403.826 248.853 398.958 248.795C398.246 248.785 397.533 248.775 396.799 248.765C394.446 248.733 392.092 248.708 389.738 248.684C388.106 248.663 386.473 248.642 384.841 248.621C380.545 248.565 376.25 248.516 371.954 248.468C367.57 248.418 363.186 248.362 358.803 248.307C350.202 248.199 341.601 248.098 333 248C332.907 240.271 332.836 232.543 332.793 224.813C332.772 221.223 332.744 217.633 332.698 214.043C332.654 210.567 332.631 207.092 332.62 203.617C332.61 201.669 332.579 199.721 332.547 197.773C332.544 187.638 333.66 175.995 341.191 168.426C354.374 158.033 372.219 159.658 388.102 159.544C390.62 159.522 393.138 159.483 395.656 159.441C396.803 159.441 396.803 159.441 397.973 159.441C402.464 159.358 405.53 158.945 409 156C410.733 152.456 411.255 149.586 411.275 145.662C411.284 144.621 411.294 143.58 411.303 142.507C411.303 141.392 411.302 140.277 411.301 139.129C411.305 137.974 411.309 136.819 411.314 135.629C411.319 133.189 411.32 130.748 411.316 128.308C411.312 124.58 411.336 120.852 411.361 117.123C411.364 114.75 411.364 112.377 411.363 110.004C411.377 108.335 411.377 108.335 411.391 106.632C411.402 98.8508 411.402 98.8508 408 92C404.3 90.1357 401.248 89.744 397.134 89.7254C395.975 89.7158 394.815 89.7063 393.62 89.6965C391.747 89.6978 391.747 89.6978 389.836 89.6992C388.534 89.695 387.232 89.6907 385.891 89.6863C383.129 89.6788 380.367 89.6791 377.604 89.6843C374.81 89.6889 372.015 89.6822 369.221 89.6638C338.763 89.4652 310.328 91.4324 286 112C285.027 112.775 284.053 113.549 283.051 114.348C264.756 129.65 257.264 155.175 255 178C254.699 183.56 254.629 189.112 254.586 194.68C254.567 196.229 254.548 197.779 254.527 199.328C254.476 203.355 254.437 207.383 254.399 211.411C254.359 215.541 254.308 219.671 254.258 223.801C254.162 231.867 254.077 239.933 254 248C253.387 248.008 252.774 248.016 252.142 248.025C245.75 248.111 239.359 248.21 232.967 248.317C230.583 248.356 228.199 248.39 225.815 248.422C222.384 248.468 218.954 248.526 215.523 248.586C213.929 248.603 213.929 248.603 212.303 248.621C204.859 248.583 204.859 248.583 198 251C195.2 256.93 195.727 263.447 195.77 269.891C195.77 271.031 195.77 272.171 195.771 273.346C195.774 275.754 195.782 278.161 195.794 280.568C195.812 284.224 195.815 287.879 195.814 291.535C195.819 293.883 195.825 296.231 195.832 298.578C195.834 300.199 195.834 300.199 195.835 301.853C195.268 314.143 195.268 314.143 199.312 325.125C214.3 335.582 235.729 328.619 254 329C254 389.39 254 449.78 254 512C205.162 512.161 205.162 512.161 184.656 512.195C170.512 512.219 156.368 512.247 142.224 512.302C131.921 512.342 121.619 512.367 111.317 512.376C105.866 512.382 100.415 512.394 94.9638 512.423C89.824 512.45 84.6845 512.458 79.5446 512.452C77.667 512.454 75.7893 512.461 73.9118 512.477C52.2782 512.646 34.4324 507.084 18.5898 491.652C7.62463 480.101 -0.110267 464.294 -0.134251 448.208C-0.136603 447.535 -0.138957 446.861 -0.14138 446.167C-0.148048 443.906 -0.147612 441.645 -0.147202 439.383C-0.150502 437.747 -0.154225 436.111 -0.158341 434.475C-0.168353 429.976 -0.172079 425.476 -0.174732 420.977C-0.178638 416.125 -0.188216 411.274 -0.196945 406.422C-0.216704 394.703 -0.226775 382.983 -0.235672 371.264C-0.240056 365.744 -0.245426 360.223 -0.250664 354.702C-0.267676 336.347 -0.282171 317.992 -0.289414 299.636C-0.291323 294.874 -0.293241 290.111 -0.295197 285.348C-0.29568 284.164 -0.296163 282.98 -0.296662 281.761C-0.304959 262.591 -0.330293 243.421 -0.362778 224.251C-0.395867 204.564 -0.41386 184.876 -0.417053 165.189C-0.419217 154.138 -0.427942 143.087 -0.453514 132.035C-0.475246 122.622 -0.483261 113.209 -0.473549 103.796C-0.469011 98.9962 -0.470859 94.1967 -0.490311 89.397C-0.507994 84.9954 -0.506899 80.5942 -0.491409 76.1926C-0.489041 74.6078 -0.493319 73.0229 -0.505242 71.438C-0.640332 52.2801 4.80492 35.2986 18 21C30.334 8.52446 45.9077 -0.107532 63.7918 -0.134198Z" fill="#F2B233"/>
</g>
</g>
<defs>
<clipPath id="clip0_2057_46">
<rect width="512" height="512" fill="white" transform="matrix(-1 0 0 1 512 0)"/>
</clipPath>
<clipPath id="clip1_2057_46">
<rect width="512" height="512" fill="white"/>
</clipPath>
</defs>
</svg>
