<svg width="957" height="180" viewBox="0 0 957 180" fill="none" xmlns="http://www.w3.org/2000/svg">
<g clip-path="url(#clip0_2051_5)">
<rect x="29" y="13" width="899" height="154" rx="77" fill="#EEB327"/>
<rect x="184" width="450" height="18" fill="#EEB327"/>
<rect x="186" y="159" width="450" height="21" fill="#EEB327"/>
<path d="M605.973 0.105397C715.831 -0.188356 866.479 0.12757 871.627 1.09563C884.102 3.52786 895.3 10.4434 902.825 20.1611C905.234 23.3443 909.518 31.0889 913.58 39.5175C917.331 47.1839 922.292 56.4531 924.623 60.0175C931.926 71.0353 942.824 81.6615 952.824 87.3554C955.155 88.6444 957.108 90.0118 957.108 90.3144C957.107 90.696 954.322 92.6679 950.938 94.7187C947.486 96.8483 941.849 101.254 938.386 104.594C928.763 113.549 922.526 122.74 912.67 142.176C904.557 158.271 903.802 159.414 898.241 164.962C893.646 169.591 890.872 171.564 885.456 174.299C873.125 180.452 890.04 179.992 681.852 179.992C663.506 179.992 646.966 179.992 632.048 179.99V161.751C647.456 161.761 664.29 161.768 682.606 161.768C880.495 161.768 870.04 161.992 878.164 157.519C885.234 153.641 889.518 148.105 896.277 133.982C904.024 118.033 911.094 107.25 920.039 97.913L927.109 90.6171L920.417 83.7909C911.694 74.9027 905.91 66.0258 897.265 48.0253C887.786 28.3546 883.047 23.3442 871.017 20.1611C867.11 19.1747 845.534 19.0172 681.552 19.0956C663.452 19.1053 646.996 19.1161 632.048 19.1288V0.105397H605.973Z" fill="#EEB327"/>
<path d="M186 0C130.302 0.155832 87.7602 0.483475 85.0654 0.990234C72.5832 3.42395 61.3781 10.344 53.8486 20.0674C51.4388 23.2525 47.1515 31.0026 43.0869 39.4365C39.3333 47.1077 34.3693 56.3827 32.0371 59.9492C24.7297 70.9739 13.8243 81.6063 3.81836 87.3037C1.48626 88.5935 -0.46875 89.9618 -0.46875 90.2646C-0.467436 90.6466 2.31981 92.62 5.70605 94.6719C9.15984 96.8028 14.8017 101.211 18.2666 104.553C27.8949 113.514 34.1365 122.71 43.998 142.157C52.116 158.262 52.871 159.407 58.4346 164.958C63.0322 169.59 65.8091 171.564 71.2285 174.301C81.4393 179.396 71.6083 179.958 186 180.001V161.754C79.3643 161.689 85.1858 161.179 78.5244 157.512C71.4503 153.631 67.1636 148.09 60.4004 133.959C52.6488 118 45.5749 107.21 36.624 97.8682L29.5498 90.5674L36.2461 83.7373C44.9749 74.8436 50.761 65.9609 59.4121 47.9492C68.8961 28.2664 73.6385 23.2525 85.6768 20.0674C88.7227 19.2986 102.499 19.0347 186 18.9922V0Z" fill="#EEB327"/>
</g>
<defs>
<clipPath id="clip0_2051_5">
<rect width="957" height="180" fill="white"/>
</clipPath>
</defs>
</svg>
