<svg width="560" height="200" viewBox="0 0 560 200" fill="none" xmlns="http://www.w3.org/2000/svg">
<rect x="51" y="30" width="463" height="142" rx="71" fill="#EEB327"/>
<path d="M103.729 17.5625C97.3854 18.8333 91.9479 21.0208 86.8646 24.2708C77.0625 30.6146 73.1771 35.7708 64.0729 54.6146C60.7604 61.3854 56.2396 69.6458 54.0521 72.9583C47.2812 82.9063 37.8958 91.7292 27.7292 97.6563L23.0729 100.406L26.4583 102.385C32.6771 106.052 40.5729 112.333 45.8021 117.771C52.5729 124.896 58.0729 133.51 65.625 148.469C69.0104 155.24 73.3229 162.792 75.1562 165.26C81.3646 173.521 90.8229 179.656 101.479 182.406C106.625 183.75 111.208 183.75 281.49 183.75C476.885 183.75 461.01 184.177 472.583 178.458C477.667 175.917 480.271 174.083 484.583 169.781C489.802 164.625 490.51 163.563 498.125 148.604C507.375 130.542 513.229 122 522.26 113.677C525.51 110.573 530.802 106.479 534.042 104.5C537.219 102.594 539.833 100.76 539.833 100.406C539.833 100.125 538 98.8542 535.813 97.6563C526.427 92.3646 516.198 82.4896 509.344 72.25C507.156 68.9375 502.5 60.3229 498.979 53.1979C495.167 45.3646 491.146 38.1667 488.885 35.2083C481.823 26.1771 471.313 19.75 459.604 17.4896C452.052 16.0833 110.865 16.1563 103.729 17.5625ZM459.031 35.2083C470.323 38.1667 474.771 42.8229 483.667 61.1042C491.781 77.8333 497.208 86.0833 505.396 94.3438L511.677 100.688L505.042 107.469C496.646 116.146 490.01 126.167 482.74 140.99C476.396 154.115 472.375 159.26 465.74 162.865C458.115 167.021 467.927 166.813 282.198 166.813C162.792 166.813 110.51 166.604 107.542 166.042C101.542 164.979 95.4792 161.802 91.1667 157.573C88.2083 154.531 86.0937 151.073 80.0937 139.365C71.7708 123.135 66.2604 114.875 57.9375 106.406L52.2917 100.625L58.4271 94.4167C66.1875 86.5104 72.1146 77.6875 78.4687 64.5625C81.1562 58.9167 84.0417 52.8438 84.8958 51.1563C88.3542 44.0938 96.6042 37.3229 104.365 35.1354C106.979 34.4271 143.177 34.2917 281.208 34.2188C435.115 34.1458 455.365 34.2917 459.031 35.2083Z" fill="#EEB327"/>
</svg>
