<svg width="2000" height="300" viewBox="0 0 2000 300" fill="none" xmlns="http://www.w3.org/2000/svg">
<g clip-path="url(#clip0_2080_2)">
<rect width="2000" height="300" fill="white"/>
<rect x="-14" width="2029" height="288" fill="url(#paint0_linear_2080_2)"/>
<path d="M2090.62 77.5L2031.96 97.9563C1948.4 127.439 1859.04 155.593 1760.66 165.362C1633.3 178.007 1509.59 149.686 1385.59 138.276C1267.99 127.455 1150.66 131.309 1033.59 142.278C913.827 153.349 792.218 172.008 670.221 160.236C552.769 148.903 446.524 114.59 328.554 104.479C210.959 94.2505 93.6286 111.149 35.2276 119.45L-23.4377 127.9V311.711C681.251 311.711 1385.94 311.711 2090.62 311.711V77.5Z" fill="#292D30" fill-opacity="0.7"/>
<path d="M-4 198.726C107.404 202.279 218.888 205.69 330.498 205.097C442.249 204.653 554.251 200.208 666.001 179.169C775.464 158.706 882.64 120.601 1000.5 121.385C1114.73 122.146 1219.74 161.423 1335 155.463C1446.75 149.832 1558.75 99.4567 1670.5 84.3441C1782.25 69.381 1893.75 89.5298 1949.25 99.7545L2005 109.828V338C1335.33 338 665.667 338 -4 338V198.726Z" fill="#292D30" fill-opacity="0.5"/>
<path d="M2005.47 161.218L1941.99 183.91C1878.8 206.601 1751.84 251.983 1624.6 261.321C1466.79 272.736 1314.02 231.7 1165.89 206.495C1092.76 194.054 1018.25 183.632 942.307 179.296C860.266 174.61 779.369 179.393 698.234 186.734C621.388 193.689 544.6 201.897 466.573 201.934C384.135 201.972 302.311 194.766 221.488 185.86C54.3828 167.443 -113.382 151.922 -282.031 139.175C-282.031 297.367 -282.031 455.563 -282.031 613.755C197.529 613.755 677.089 613.755 1156.65 613.755C1396.43 613.755 1636.21 613.755 1875.99 613.755C1887.67 613.755 2005.47 614.139 2005.47 613.295C2005.47 609.325 2005.47 605.354 2005.47 601.384C2005.47 581.413 2005.47 561.441 2005.47 541.468C2005.47 414.719 2005.47 287.968 2005.47 161.218Z" fill="#292D30"/>
</g>
<defs>
<linearGradient id="paint0_linear_2080_2" x1="1000.52" y1="5.4551e-09" x2="1000.43" y2="288" gradientUnits="userSpaceOnUse">
<stop stop-color="white"/>
<stop offset="0.0108173" stop-color="white"/>
<stop offset="0.02" stop-color="white"/>
<stop offset="0.04" stop-color="white"/>
<stop offset="0.06" stop-color="white" stop-opacity="0.96"/>
<stop offset="0.0769231" stop-color="white" stop-opacity="0.92"/>
<stop offset="0.0961538" stop-color="white" stop-opacity="0.84"/>
<stop offset="0.115385" stop-color="white" stop-opacity="0.75"/>
<stop offset="0.177885" stop-color="white" stop-opacity="0.5"/>
<stop offset="0.317308" stop-color="#FDF0D8" stop-opacity="0.3"/>
<stop offset="0.480769" stop-color="#FAE2B2" stop-opacity="0.5"/>
<stop offset="0.701923" stop-color="#F6CA72" stop-opacity="0.7"/>
<stop offset="0.798077" stop-color="#F5C462" stop-opacity="0.775"/>
<stop offset="0.860577" stop-color="#F4BE53" stop-opacity="0.85"/>
<stop offset="1" stop-color="#F2B233"/>
</linearGradient>
<clipPath id="clip0_2080_2">
<rect width="2000" height="300" fill="white"/>
</clipPath>
</defs>
</svg>
