<svg width="2000" height="380" viewBox="0 0 2000 380" fill="none" xmlns="http://www.w3.org/2000/svg">
<g clip-path="url(#clip0_2074_253)">
<rect width="2000" height="380" fill="url(#paint0_linear_2074_253)"/>
<g clip-path="url(#clip1_2074_253)">
<path d="M2090.62 157.5L2031.96 177.956C1948.4 207.439 1859.04 235.593 1760.66 245.362C1633.3 258.007 1509.59 229.686 1385.59 218.276C1267.99 207.455 1150.66 211.309 1033.59 222.278C913.827 233.349 792.218 252.008 670.221 240.236C552.769 228.903 446.524 194.59 328.554 184.479C210.959 174.251 93.6286 191.149 35.2276 199.45L-23.4377 207.9V391.711C681.251 391.711 1385.94 391.711 2090.62 391.711V157.5Z" fill="#07281E" fill-opacity="0.7"/>
<path d="M0 277.979C110.905 281.532 221.89 284.942 333 284.35C444.25 283.905 555.75 279.461 667 258.423C775.972 237.962 882.668 199.86 1000 200.643C1113.72 201.405 1218.26 240.679 1333 234.719C1444.25 229.089 1555.75 178.717 1667 163.605C1778.25 148.643 1889.25 168.791 1944.5 179.015L2000 189.088V417.243C1333.33 417.243 666.667 417.243 0 417.243V277.979Z" fill="#07281E" fill-opacity="0.5"/>
<path d="M2005.47 241.218L1941.99 263.91C1878.8 286.601 1751.84 331.983 1624.6 341.321C1466.79 352.736 1314.02 311.7 1165.89 286.496C1092.76 274.055 1018.25 263.632 942.307 259.296C860.266 254.61 779.369 259.393 698.234 266.734C621.388 273.689 544.6 281.897 466.573 281.934C384.135 281.972 302.311 274.766 221.488 265.86C54.3828 247.443 -113.382 231.922 -282.031 219.175C-282.031 377.367 -282.031 535.563 -282.031 693.755C197.529 693.755 677.089 693.755 1156.65 693.755C1396.43 693.755 1636.21 693.755 1875.99 693.755C1887.67 693.755 2005.47 694.139 2005.47 693.295C2005.47 689.325 2005.47 685.354 2005.47 681.384C2005.47 661.413 2005.47 641.441 2005.47 621.468C2005.47 494.719 2005.47 367.968 2005.47 241.218Z" fill="#07281E"/>
</g>
</g>
<defs>
<linearGradient id="paint0_linear_2074_253" x1="1000.02" y1="7.19771e-09" x2="999.857" y2="380" gradientUnits="userSpaceOnUse">
<stop stop-color="white"/>
<stop offset="0.0108173" stop-color="white"/>
<stop offset="0.02" stop-color="white"/>
<stop offset="0.04" stop-color="white" stop-opacity="0.98"/>
<stop offset="0.06" stop-color="white" stop-opacity="0.96"/>
<stop offset="0.0769231" stop-color="white" stop-opacity="0.92"/>
<stop offset="0.0961538" stop-color="white" stop-opacity="0.84"/>
<stop offset="0.115385" stop-color="white" stop-opacity="0.75"/>
<stop offset="0.177885" stop-color="white" stop-opacity="0.5"/>
<stop offset="0.317308" stop-color="#FDF0D8" stop-opacity="0.3"/>
<stop offset="0.480769" stop-color="#FAE2B2" stop-opacity="0.5"/>
<stop offset="0.701923" stop-color="#F6CA72" stop-opacity="0.7"/>
<stop offset="0.798077" stop-color="#F5C462" stop-opacity="0.775"/>
<stop offset="0.860577" stop-color="#F4BE53" stop-opacity="0.85"/>
<stop offset="1" stop-color="#F2B233"/>
</linearGradient>
<clipPath id="clip0_2074_253">
<rect width="2000" height="380" fill="white"/>
</clipPath>
<clipPath id="clip1_2074_253">
<rect width="2000" height="380" fill="white" transform="matrix(1 0 0 -1 0 380)"/>
</clipPath>
</defs>
</svg>
