<svg width="340" height="400" viewBox="0 0 340 400" fill="none" xmlns="http://www.w3.org/2000/svg">
<g clip-path="url(#clip0_2045_274)">
<path d="M112.188 19.5312C115.438 21.1504 118.543 23.0118 121.657 24.8783C123.162 25.7743 124.681 26.6427 126.203 27.5116C131.017 30.3419 134.981 32.6953 136.791 38.2811C136.922 38.7967 137.053 39.3124 137.188 39.8437C137.671 41.2214 137.671 41.2214 138.164 42.627C138.357 43.2554 138.551 43.8838 138.75 44.5312C138.907 43.791 139.064 43.0508 139.226 42.2882C140.312 39.8437 140.312 39.8437 142.424 38.8397C143.339 38.6393 144.253 38.4389 145.195 38.2324C145.697 38.1174 146.198 38.0024 146.715 37.8839C147.843 37.6271 148.974 37.3791 150.106 37.1384C152.253 36.6704 154.386 36.1539 156.52 35.6323C158.067 35.261 159.615 34.8908 161.162 34.5215C161.909 34.3406 162.656 34.1598 163.426 33.9735C164.132 33.8109 164.838 33.6483 165.566 33.4808C166.195 33.333 166.824 33.1851 167.472 33.0328C170.732 32.6216 172.666 33.6384 175.219 35.5835C176.018 36.1877 176.018 36.1877 176.833 36.8042C177.382 37.2272 177.931 37.6501 178.496 38.0859C179.039 38.4968 179.582 38.9077 180.141 39.3311C183.342 41.7663 186.461 44.2767 189.531 46.875C189.637 46.3666 189.743 45.8582 189.853 45.3344C190.339 43.0302 190.838 40.729 191.338 38.4277C191.505 37.6276 191.671 36.8275 191.843 36.0031C192.096 34.8513 192.096 34.8513 192.354 33.6761C192.581 32.6145 192.581 32.6145 192.813 31.5313C193.537 29.3944 193.87 28.5595 195.781 27.3437C197.921 27.0632 199.88 26.9224 202.025 26.8951C202.943 26.8779 202.943 26.8779 203.879 26.8603C205.172 26.8416 206.466 26.8295 207.76 26.8236C209.735 26.8067 211.706 26.7441 213.68 26.68C222.72 26.5216 222.72 26.5216 225.473 28.4298C226.542 30.1005 227.144 31.7263 227.812 33.5937C228.671 35.1582 229.55 36.7119 230.443 38.2568C231.36 39.9561 232.273 41.657 233.184 43.3594C233.894 44.6358 233.894 44.6358 234.618 45.9381C237.229 50.8458 238.686 53.9122 237.188 59.375C242.575 57.9752 247.807 56.3723 253.026 54.4312C255.459 53.8315 256.673 53.9821 259.062 54.6875C260.591 55.8741 260.591 55.8741 262.041 57.3883C262.575 57.9357 263.109 58.483 263.658 59.0469C264.204 59.6225 264.75 60.198 265.312 60.791C266.401 61.9209 267.492 63.0491 268.584 64.1754C269.096 64.7078 269.607 65.2401 270.134 65.7886C271.631 67.3225 271.631 67.3225 273.857 68.8568C275.469 70.3125 275.469 70.3125 276.223 72.3938C276.26 75.9402 275.374 78.9535 274.346 82.3242C273.685 84.5479 273.024 86.7715 272.344 89.0625C280.078 89.0625 287.813 89.0625 295.781 89.0625C298.058 94.1863 300.087 99.1183 301.885 104.395C302.138 105.099 302.391 105.804 302.652 106.531C302.887 107.222 303.123 107.912 303.365 108.624C303.578 109.238 303.791 109.852 304.011 110.485C304.842 115.085 303.454 118.726 301.256 122.711C300.773 123.597 300.291 124.484 299.793 125.397C299.27 126.339 298.746 127.281 298.223 128.223C297.691 129.194 297.16 130.166 296.631 131.138C295.562 133.1 294.49 135.06 293.416 137.018C291.196 141.077 289.04 145.169 286.895 149.268C286.537 149.945 286.18 150.622 285.812 151.32C285.486 151.941 285.161 152.562 284.825 153.201C284.544 153.737 284.263 154.273 283.973 154.825C283.185 156.37 283.185 156.37 282.5 158.594C283.032 158.787 283.563 158.98 284.111 159.18C286.851 160.345 289.31 161.772 291.875 163.281C291.976 167.218 291.627 170.898 290.909 174.758C290.805 175.338 290.701 175.919 290.593 176.517C290.245 178.453 289.891 180.386 289.536 182.32C289.284 183.714 289.032 185.107 288.781 186.5C288.097 190.287 287.408 194.072 286.717 197.857C285.989 201.852 285.266 205.849 284.542 209.846C283.321 216.588 282.097 223.328 280.87 230.069C279.162 239.451 277.46 248.834 275.759 258.217C274.419 265.614 273.076 273.011 271.733 280.408C271.594 281.178 271.454 281.947 271.31 282.741C270.897 285.016 270.484 287.291 270.07 289.566C269.869 290.674 269.869 290.674 269.664 291.805C269.003 295.442 268.339 299.079 267.671 302.715C267.41 304.14 267.148 305.564 266.887 306.989C266.758 307.691 266.629 308.393 266.496 309.116C265.671 313.625 264.867 318.138 264.075 322.652C263.532 325.741 262.979 328.828 262.425 331.915C262.166 333.373 261.911 334.831 261.66 336.29C259.891 346.584 257.902 356.059 249.688 363.281C240.176 369.948 229.912 369.758 218.739 369.687C217.365 369.683 215.991 369.681 214.617 369.679C210.908 369.672 207.199 369.655 203.49 369.635C200.385 369.619 197.281 369.607 194.176 369.595C186.851 369.567 179.525 369.529 172.199 369.487C164.656 369.443 157.114 369.417 149.571 369.399C143.078 369.383 136.586 369.355 130.093 369.318C126.223 369.296 122.352 369.278 118.482 369.273C114.842 369.267 111.203 369.247 107.564 369.215C106.233 369.206 104.902 369.202 103.572 369.204C93.6897 369.213 85.2208 368.123 77.8125 360.938C72.5737 354.535 70.5742 347.57 69.2313 339.56C69.0216 338.355 69.0216 338.355 68.8077 337.126C68.3386 334.421 67.8785 331.716 67.4182 329.01C67.0801 327.049 66.7415 325.089 66.4024 323.128C65.6564 318.81 64.915 314.492 64.1762 310.173C63.0222 303.428 61.8581 296.685 60.6928 289.942C58.4774 277.121 56.2734 264.297 54.0771 251.473C52.7511 243.731 51.422 235.989 50.0889 228.249C49.1335 222.7 48.1815 217.15 47.2322 211.6C46.6713 208.321 46.1089 205.043 45.5427 201.765C45.0167 198.719 44.4949 195.672 43.9765 192.625C43.7866 191.514 43.5951 190.402 43.402 189.291C43.1382 187.772 42.8806 186.252 42.6232 184.732C42.4051 183.461 42.4051 183.461 42.1826 182.164C41.5949 177.433 41.4925 174.147 44.0692 170.062C44.5239 169.322 44.9786 168.582 45.4471 167.819C45.928 167.063 46.4088 166.307 46.9043 165.527C47.8524 164.015 48.7956 162.499 49.7333 160.98C50.1547 160.315 50.5761 159.651 51.0102 158.966C52.5252 156.095 53.0371 154.087 52.2889 150.883C51.998 150.061 51.7072 149.24 51.4075 148.394C51.0815 147.457 50.7555 146.521 50.4197 145.557C50.0556 144.541 49.6915 143.526 49.3274 142.511C48.9593 141.462 48.5923 140.412 48.2262 139.362C47.2609 136.6 46.2852 133.841 45.3064 131.084C43.7431 126.677 42.1922 122.267 40.6482 117.854C40.1089 116.319 39.5629 114.786 39.0162 113.254C38.5198 111.842 38.5198 111.842 38.0134 110.402C37.7213 109.58 37.4292 108.757 37.1283 107.909C36.3451 105.262 35.8755 102.749 35.625 100C36.5846 98.3902 36.5846 98.3902 38.0634 97.0947C38.8708 96.3651 38.8708 96.3651 39.6945 95.6207C40.2691 95.1323 40.8436 94.6439 41.4355 94.1406C42.2566 93.408 42.2566 93.408 43.0942 92.6605C44.2002 91.6776 45.3155 90.7051 46.4397 89.743C47.5825 88.7518 48.7037 87.7354 49.8042 86.6974C50.3408 86.1969 50.8773 85.6964 51.4301 85.1807C51.9056 84.726 52.3811 84.2713 52.8711 83.8028C55.2303 82.2493 57.2574 82.6318 59.9353 83.1543C61.4062 83.5938 61.4062 83.5938 62.9688 84.375C62.5659 83.5371 62.1631 82.6992 61.748 81.8359C61.0029 80.2861 60.5802 79.3086 60.7717 77.5877C61.71 74.9166 63.2944 72.7028 64.873 70.3766C65.2169 69.8626 65.5608 69.3487 65.915 68.8192C67.0121 67.1819 68.1154 65.549 69.2188 63.916C69.9617 62.808 70.7043 61.6997 71.4465 60.5911C76.8781 52.4969 76.8781 52.4969 77.8125 51.5625C82.401 51.8845 86.0655 52.9432 90.3125 54.6875C90.0215 53.9523 89.7304 53.2172 89.4305 52.4597C89.0566 51.4773 88.6833 50.4946 88.3105 49.5117C87.9389 48.551 87.5673 47.5902 87.1844 46.6003C86.3336 43.4838 86.3025 42.1386 87.1875 39.0625C88.5772 37.3316 89.893 35.8808 91.4813 34.3597C92.1244 33.7222 92.1244 33.7222 92.7804 33.0718C94.1461 31.7227 95.5251 30.388 96.9043 29.0527C97.8293 28.1406 98.7535 27.2276 99.6768 26.3138C107.816 18.3025 107.816 18.3025 112.188 19.5312Z" fill="#671C26"/>
<path d="M153.432 268.555C185.143 277.021 215.075 274.727 244.955 261.627C246.781 260.844 248.622 260.107 250.469 259.375C249.427 266.9 248.263 274.394 247.002 281.885C246.763 283.321 246.763 283.321 246.518 284.785C245.67 289.849 244.798 294.908 243.898 299.963C242.943 305.332 242.037 310.707 241.143 316.086C240.741 318.488 240.34 320.89 239.938 323.292C239.665 324.928 239.394 326.565 239.125 328.202C238.728 330.61 238.324 333.016 237.92 335.422C237.803 336.143 237.685 336.864 237.565 337.607C236.154 345.921 234.621 353.858 227.553 359.186C219.802 364.115 212.659 364.297 203.683 364.289C202.509 364.294 201.335 364.299 200.162 364.305C196.988 364.319 193.815 364.323 190.641 364.324C188.655 364.325 186.669 364.328 184.683 364.332C177.744 364.347 170.806 364.353 163.867 364.352C157.415 364.351 150.962 364.368 144.51 364.392C138.956 364.413 133.402 364.421 127.849 364.42C124.538 364.42 121.227 364.424 117.916 364.441C114.801 364.456 111.686 364.456 108.571 364.445C107.433 364.443 106.294 364.447 105.156 364.456C96.2574 364.525 88.4687 363.229 81.7188 357.031C76.0085 350.823 74.9789 342.621 73.6682 334.586C73.5086 333.635 73.3489 332.685 73.1844 331.705C72.7586 329.164 72.3377 326.622 71.9191 324.079C71.4853 321.45 71.0451 318.823 70.6056 316.196C69.9203 312.095 69.2387 307.994 68.56 303.893C67.8324 299.497 67.0991 295.102 66.3593 290.707C65.4788 285.473 64.609 280.238 63.75 275C63.6244 274.236 63.4987 273.473 63.3693 272.686C63.0209 270.561 62.6765 268.435 62.334 266.309C62.2369 265.715 62.1397 265.121 62.0397 264.51C61.6354 261.964 61.4062 259.62 61.4062 257.031C92.502 250.939 123.591 260.533 153.432 268.555Z" fill="#E43632"/>
<path d="M90.615 168.489C93.0325 170.488 94.7335 172.978 96.5137 175.537C97.3358 176.668 98.1597 177.797 98.9856 178.925C99.5736 179.734 99.5736 179.734 100.173 180.56C110.812 195.103 126.693 202.978 143.999 206.708C164.041 209.237 183.432 204.981 199.688 192.969C206.507 187.485 212.248 181.37 216.924 173.975C219.498 170.066 220.99 167.899 225.469 166.406C234.351 164.982 242.188 168.719 250.273 171.875C251.66 172.403 253.048 172.93 254.436 173.456C257.808 174.736 261.171 176.034 264.531 177.344C261.842 195.016 258.937 212.651 255.933 230.273C255.545 232.553 255.158 234.834 254.774 237.115C254.314 239.842 253.85 242.568 253.381 245.293C253.123 246.799 252.87 248.306 252.617 249.813C252.461 250.718 252.304 251.624 252.142 252.558C252.007 253.35 251.872 254.141 251.733 254.957C251.271 256.943 250.773 258.436 249.688 260.156C238.216 267.088 223.81 271.501 210.625 273.437C210.137 273.511 209.648 273.584 209.145 273.659C203.911 274.348 198.676 274.364 193.403 274.364C191.848 274.365 190.294 274.38 188.739 274.394C176.737 274.412 165.536 272.561 153.936 269.629C152.85 269.361 151.764 269.093 150.678 268.826C144.472 267.294 138.293 265.67 132.119 264.014C109.438 257.96 84.9604 252.793 61.4062 257.031C61.1484 257.547 60.8906 258.062 60.625 258.594C59.1216 249.731 57.6205 240.867 56.1222 232.004C55.4261 227.887 54.7294 223.77 54.0309 219.654C53.3554 215.672 52.6819 211.691 52.0098 207.709C51.7545 206.199 51.4985 204.688 51.2417 203.178C49.7809 194.584 48.4156 185.997 47.3438 177.344C51.7697 175.641 56.2025 173.959 60.6427 172.294C62.1503 171.726 63.6559 171.152 65.1593 170.573C67.3283 169.738 69.5039 168.924 71.6815 168.112C72.3459 167.852 73.0102 167.591 73.6947 167.323C79.6029 165.159 85.1662 165.005 90.615 168.489Z" fill="#E2332F"/>
<path d="M153.432 268.555C185.241 277.047 215.079 274.649 245.05 261.589C246.843 260.817 248.65 260.086 250.469 259.375C250.067 262.374 249.636 265.368 249.19 268.361C248.983 269.784 248.784 271.208 248.588 272.633C248.239 275.166 247.866 277.695 247.49 280.225C247.38 281.055 247.27 281.886 247.157 282.742C246.256 288.597 246.256 288.597 244.194 290.619C243.429 290.879 242.664 291.139 241.875 291.406C241.347 291.611 240.819 291.816 240.275 292.027C199.632 307.464 158.671 298.082 118.435 286.845C100.827 281.928 83.4784 280.902 65.3125 282.812C64.7528 279.644 64.1966 276.474 63.6436 273.304C63.4551 272.227 63.2656 271.149 63.0752 270.072C62.8012 268.521 62.5309 266.969 62.2607 265.417C62.0971 264.485 61.9334 263.552 61.7648 262.591C61.4062 260.156 61.4062 260.156 61.4062 257.031C92.502 250.939 123.591 260.533 153.432 268.555Z" fill="#FEFDFD"/>
<path d="M200.86 32.7238C201.706 32.7279 202.553 32.732 203.426 32.7362C204.34 32.7387 205.254 32.7412 206.195 32.7438C207.158 32.7504 208.12 32.7569 209.111 32.7637C210.559 32.769 210.559 32.769 212.036 32.7744C214.431 32.7836 216.825 32.7965 219.219 32.8125C217.4 42.0457 215.516 51.2585 213.479 60.4459C212.886 63.1171 212.298 65.7891 211.709 68.461C211.378 69.9602 211.048 71.4594 210.717 72.9586C208.434 83.3095 206.17 93.6644 203.905 104.019C203.544 105.666 203.184 107.314 202.824 108.961C200.242 120.758 197.665 132.556 195.119 144.361C194.761 146.02 194.403 147.679 194.044 149.338C193.928 149.876 193.811 150.414 193.692 150.968C193.458 152.048 193.224 153.128 192.991 154.207C192.316 157.327 191.645 160.447 190.975 163.567C190.182 167.261 189.383 170.954 188.582 174.647C188.275 176.066 187.97 177.486 187.667 178.906C187.246 180.873 186.819 182.839 186.391 184.805C186.269 185.382 186.147 185.958 186.022 186.552C185.172 190.417 184.091 194.025 182.5 197.656C180.065 199.094 180.065 199.094 177.129 199.951C176.615 200.104 176.102 200.258 175.572 200.416C170.647 201.794 165.724 202.193 160.625 202.344C161.579 196.222 162.754 190.205 164.189 184.18C164.607 182.397 165.024 180.613 165.441 178.83C165.782 177.366 165.782 177.366 166.131 175.872C167.568 169.681 168.95 163.477 170.342 157.275C170.647 155.917 170.952 154.558 171.257 153.2C171.858 150.524 172.459 147.849 173.06 145.173C176.132 131.493 179.227 117.818 182.354 104.15C182.612 103.021 182.87 101.891 183.128 100.762C183.259 100.191 183.389 99.6212 183.524 99.0336C184.076 96.6204 184.627 94.2072 185.179 91.794C185.485 90.4541 185.792 89.1143 186.098 87.7745C187.277 82.6216 188.454 77.4683 189.629 72.3145C189.795 71.5849 189.962 70.8554 190.133 70.1038C192.439 59.9844 194.686 49.8555 196.787 39.6914C196.956 38.8846 197.124 38.0779 197.298 37.2467C197.441 36.5531 197.583 35.8596 197.73 35.145C198.311 32.8626 198.45 32.8332 200.86 32.7238Z" fill="#F2CF25"/>
<path d="M137.139 250.684C143.447 252.521 149.785 254.161 156.182 255.664C156.982 255.856 157.782 256.049 158.606 256.247C169.862 258.839 180.953 259.694 192.461 259.668C193.38 259.668 193.38 259.668 194.317 259.669C203.993 259.653 212.982 258.834 222.344 256.25C223.091 256.082 223.838 255.914 224.608 255.74C234.267 253.467 243.737 249.28 252.813 245.312C252.592 247.202 252.363 249.089 252.129 250.977C252.067 251.509 252.006 252.042 251.943 252.591C251.242 258.139 251.242 258.139 249.688 260.156C238.216 267.088 223.81 271.501 210.625 273.437C210.137 273.511 209.648 273.584 209.145 273.659C203.911 274.348 198.676 274.364 193.403 274.364C191.848 274.365 190.294 274.38 188.739 274.394C176.737 274.412 165.536 272.561 153.936 269.629C152.85 269.361 151.764 269.093 150.678 268.826C144.472 267.294 138.293 265.67 132.119 264.014C109.438 257.96 84.9604 252.793 61.4063 257.031C61.1485 257.547 60.8907 258.062 60.625 258.594C60.3609 256.983 60.1014 255.372 59.8438 253.76C59.6988 252.862 59.5537 251.965 59.4043 251.041C59.1134 248.825 58.9954 246.76 59.0625 244.531C79.5393 232.438 116.168 244.572 137.139 250.684Z" fill="#E33733"/>
<path d="M136.162 290.576C172.988 301.209 209.615 303.529 245.781 289.063C245.008 294.219 244.234 299.375 243.438 304.688C243.18 303.914 242.922 303.141 242.656 302.344C241.899 302.646 241.142 302.948 240.361 303.259C232.907 306.179 225.496 308.506 217.656 310.156C217.123 310.274 216.59 310.392 216.04 310.514C189.554 316.204 163.616 310.734 137.969 303.906C137.359 303.745 136.749 303.583 136.12 303.417C133.769 302.795 131.419 302.166 129.07 301.535C128.139 301.286 127.209 301.038 126.25 300.781C125.671 300.626 125.093 300.471 124.497 300.312C119.89 299.088 115.27 297.943 110.625 296.875C110.058 296.743 109.492 296.61 108.908 296.474C99.8889 294.458 90.9169 294.328 81.7188 294.336C81.1183 294.336 80.5179 294.337 79.8993 294.337C73.2882 294.138 73.2882 294.138 66.875 295.313C66.3594 291.188 65.8438 287.063 65.3125 282.813C89.2426 277.912 113.158 283.836 136.162 290.576Z" fill="#E33733"/>
<path d="M167.656 39.0625C169.244 52.7392 169.975 66.4592 170.729 80.2007C170.93 83.8419 171.136 87.4828 171.342 91.1238C171.507 94.0541 171.669 96.9845 171.822 99.9155C172.07 104.625 172.321 109.33 172.727 114.029C173.491 123.323 172.207 131.195 169.854 140.186C169.316 142.34 168.786 144.496 168.255 146.652C167.879 148.178 167.501 149.704 167.119 151.228C165.573 157.433 164.148 163.66 162.758 169.901C162.547 170.846 162.336 171.792 162.119 172.766C161.282 176.525 160.448 180.284 159.617 184.045C159.038 186.662 158.453 189.279 157.866 191.895C157.694 192.682 157.522 193.469 157.344 194.279C157.182 195.001 157.019 195.723 156.852 196.466C156.712 197.095 156.572 197.724 156.429 198.372C155.938 200 155.938 200 154.375 202.344C154.265 192.832 154.566 183.357 154.954 173.854C155.061 171.209 155.166 168.563 155.269 165.918C155.563 158.404 155.862 150.89 156.165 143.376C156.559 133.552 156.934 123.728 157.254 113.901C157.393 109.729 157.567 105.563 157.808 101.396C157.947 98.869 158.037 96.3401 158.135 93.811C158.201 92.9744 158.267 92.1377 158.335 91.2757C158.396 88.9326 158.377 87.3332 157.5 85.1562C155.408 83.424 153.359 82.2212 150.916 81.0373C148.353 79.3163 148.022 77.9546 147.344 75C147.035 73.1974 147.035 73.1974 146.877 71.4752C146.815 70.8253 146.754 70.1755 146.69 69.5059C146.632 68.8214 146.574 68.1369 146.514 67.4316C146.449 66.7205 146.385 66.0093 146.319 65.2765C145.694 58.1108 145.312 50.9353 145 43.75C148.101 43.0814 151.202 42.4139 154.303 41.7473C155.359 41.5202 156.414 41.2929 157.47 41.0652C158.984 40.7387 160.499 40.4133 162.014 40.0879C162.926 39.8915 163.838 39.6951 164.778 39.4928C166.875 39.0625 166.875 39.0625 167.656 39.0625Z" fill="#F2CF26"/>
<path d="M241.875 307.031C241.469 314.707 240.225 322.192 238.87 329.745C238.505 331.79 238.155 333.837 237.805 335.884C234.613 354.084 234.613 354.084 227.66 359.033C219.736 364.073 212.758 364.288 203.559 364.24C202.372 364.239 201.186 364.24 200 364.241C196.795 364.241 193.589 364.232 190.384 364.221C187.029 364.211 183.674 364.21 180.318 364.208C173.971 364.204 167.624 364.191 161.277 364.175C154.049 364.158 146.82 364.149 139.591 364.141C124.727 364.125 109.864 364.097 95 364.062C95 363.805 95 363.547 95 363.281C95.4419 363.282 95.8838 363.283 96.339 363.284C107.105 363.307 117.871 363.299 128.637 363.259C133.843 363.24 139.049 363.232 144.256 363.246C149.281 363.26 154.306 363.247 159.331 363.216C161.248 363.209 163.164 363.211 165.081 363.223C167.767 363.238 170.451 363.219 173.137 363.193C173.929 363.205 174.72 363.217 175.535 363.23C179.589 363.153 181.903 362.788 184.854 359.887C185.656 358.955 186.435 358.003 187.188 357.031C187.572 356.566 187.957 356.101 188.353 355.621C196.904 345.193 202.558 333.388 207.18 320.807C208.281 317.969 208.281 317.969 209.844 315.625C211.628 314.991 211.628 314.991 213.857 314.508C214.674 314.324 215.491 314.14 216.333 313.95C217.205 313.762 218.077 313.573 218.975 313.379C225.847 311.822 232.501 310.077 239.141 307.721C241.094 307.031 241.094 307.031 241.875 307.031Z" fill="#C52C28"/>
<path d="M252.813 60.9375C251.78 66.919 250.549 72.8295 249.166 78.7392C248.963 79.6156 248.759 80.4919 248.549 81.3949C246.68 89.4064 244.763 97.4063 242.826 105.402C241.529 110.761 240.25 116.123 239.013 121.497C237.811 126.714 236.563 131.919 235.284 137.118C234.806 139.094 234.344 141.074 233.898 143.057C230.205 159.409 230.205 159.409 225.883 162.513C223.27 163.974 220.512 164.748 217.656 165.625C215.682 167.245 214.337 168.949 212.969 171.094C212.593 171.666 212.217 172.238 211.83 172.827C210.878 174.317 209.958 175.819 209.063 177.344C208.179 174.693 208.402 173.838 209.066 171.185C209.255 170.412 209.445 169.639 209.641 168.842C209.853 168.006 210.065 167.17 210.283 166.309C210.723 164.53 211.162 162.752 211.602 160.974C211.829 160.061 212.057 159.148 212.291 158.208C213.143 154.766 213.961 151.318 214.778 147.868C216.472 140.726 218.244 133.612 220.139 126.521C221.869 120.014 223.403 113.464 224.943 106.911C225.888 102.912 226.851 98.9173 227.813 94.9219C228.98 90.0671 230.145 85.2118 231.295 80.3528C231.473 79.598 231.652 78.8432 231.836 78.0655C232.173 76.6426 232.509 75.2194 232.843 73.7961C233.068 72.8482 233.068 72.8482 233.297 71.8811C233.491 71.055 233.491 71.055 233.69 70.2122C234.017 68.9276 234.425 67.6639 234.844 66.4062C236.414 65.6382 236.414 65.6382 238.454 64.9811C239.185 64.7419 239.915 64.5027 240.668 64.2563C241.821 63.8945 241.821 63.8945 242.998 63.5254C243.764 63.2751 244.53 63.0249 245.319 62.767C250.987 60.9375 250.987 60.9375 252.813 60.9375Z" fill="#F2CE25"/>
<path d="M134.844 82.0312C134.97 94.4334 134.579 106.777 134.017 119.165C133.931 121.114 133.845 123.063 133.76 125.012C133.581 129.064 133.4 133.117 133.218 137.169C132.985 142.339 132.756 147.509 132.53 152.679C132.353 156.691 132.175 160.703 131.997 164.715C131.912 166.621 131.828 168.527 131.744 170.434C130.904 189.419 130.904 189.419 130.156 197.656C128.412 196.816 126.671 195.969 124.932 195.117C124.443 194.883 123.954 194.648 123.45 194.406C122.969 194.169 122.488 193.933 121.993 193.689C121.336 193.37 121.336 193.37 120.666 193.044C120.189 192.762 119.711 192.479 119.219 192.188C118.523 191.809 117.828 191.43 117.112 191.039C114.302 187.952 114.853 184.962 115.001 180.936C115.017 180.111 115.033 179.287 115.049 178.438C115.111 175.728 115.207 173.021 115.313 170.312C115.346 169.402 115.38 168.492 115.415 167.555C115.677 160.772 116.025 153.995 116.387 147.217C116.468 145.659 116.548 144.1 116.629 142.542C118.222 111.729 118.222 111.729 119.063 101.234C119.162 99.9553 119.237 98.6746 119.278 97.393C119.457 94.3425 119.907 93.073 121.962 90.7593C122.781 90.1349 123.6 89.5105 124.443 88.8672C125.252 88.2347 126.061 87.6023 126.894 86.9507C133.696 82.0312 133.696 82.0312 134.844 82.0312Z" fill="#F2CF25"/>
<path d="M223.125 38.2812C225.594 41.1817 227.434 44.1263 229.18 47.5098C229.659 48.4171 230.138 49.3245 230.632 50.2594C232.692 55.6914 231.643 60.5779 230.196 66.008C229.952 66.9642 229.952 66.9642 229.702 67.9398C229.347 69.3271 228.989 70.7135 228.628 72.0992C227.627 75.9427 226.653 79.793 225.676 83.6426C225.468 84.4594 225.261 85.2762 225.046 86.1177C222.634 95.6294 220.362 105.174 218.096 114.722C217.671 116.509 217.246 118.296 216.821 120.083C215.752 124.585 214.684 129.088 213.618 133.59C211.883 140.909 210.145 148.226 208.407 155.543C207.81 158.06 207.213 160.577 206.617 163.094C205.758 166.719 204.894 170.343 204.026 173.966C203.636 175.602 203.252 177.24 202.87 178.878C202.668 179.722 202.467 180.565 202.26 181.434C202.099 182.12 201.937 182.805 201.772 183.511C201.013 185.904 199.849 187.201 197.881 188.721C197.265 189.205 196.648 189.69 196.013 190.189C193.9 191.623 191.893 192.781 189.531 193.75C190.01 189.536 190.68 185.424 191.591 181.281C191.716 180.703 191.841 180.126 191.97 179.531C192.375 177.662 192.784 175.794 193.193 173.926C193.478 172.619 193.762 171.312 194.046 170.006C195.821 161.864 197.669 153.742 199.571 145.629C201.232 138.482 202.715 131.303 204.184 124.115C205.635 117.03 207.173 109.969 208.757 102.913C210.325 95.9194 211.84 88.9153 213.346 81.9079C215.829 70.3577 218.401 58.8344 221.095 47.3312C221.793 44.3191 222.46 41.3008 223.125 38.2812Z" fill="#C4912F"/>
<path d="M140.312 80.4688C142.953 81.761 145.403 83.2296 147.881 84.8145C148.641 85.2989 149.402 85.7833 150.185 86.2823C152.031 87.5 152.031 87.5 152.812 88.2812C153.03 90.9726 152.959 93.6849 152.956 96.3837C152.955 97.2964 152.954 98.2091 152.954 99.1494C152.853 114.968 152.064 130.779 151.409 146.582C151.262 150.173 151.118 153.764 150.974 157.355C150.8 161.7 150.624 166.044 150.447 170.389C150.415 171.193 150.382 171.997 150.349 172.826C149.949 182.671 149.486 192.508 148.906 202.344C138.835 200.833 138.835 200.833 135.625 200C135.436 187.484 135.991 175.01 136.572 162.512C136.705 159.617 136.835 156.723 136.966 153.829C137.212 148.373 137.462 142.917 137.713 137.461C137.999 131.239 138.281 125.018 138.563 118.796C139.142 106.02 139.726 93.2442 140.312 80.4688Z" fill="#C5922F"/>
<path d="M285.625 170.312C285.006 174.913 284.201 179.47 283.367 184.036C283.069 185.678 282.771 187.32 282.473 188.962C282.318 189.816 282.163 190.67 282.003 191.55C279.811 203.615 277.63 215.679 275.664 227.783C274.426 235.39 273.046 242.95 271.459 250.492C270.54 254.899 269.758 259.296 269.106 263.751C268.953 264.747 268.8 265.742 268.642 266.768C268.35 268.695 268.079 270.626 267.833 272.561C266.845 278.909 266.845 278.909 264.735 281.095C263.141 282.119 261.596 282.879 259.844 283.594C259.022 284.002 258.2 284.409 257.354 284.83C255.319 285.72 253.285 286.61 251.25 287.5C252.23 279.169 253.406 270.886 254.761 262.608C255.056 260.806 255.346 259.003 255.635 257.201C256.645 250.967 257.739 244.758 258.943 238.559C260.201 232.08 261.347 225.585 262.452 219.079C262.727 217.457 263.004 215.836 263.281 214.215C264.419 207.554 264.419 207.554 265.542 200.891C266.005 198.13 266.475 195.371 266.951 192.613C267.214 191.074 267.469 189.534 267.723 187.995C267.885 187.063 268.047 186.13 268.213 185.17C268.351 184.354 268.489 183.538 268.632 182.697C269.404 179.766 270.469 177.364 272.951 175.545C273.703 175.183 273.703 175.183 274.471 174.814C275.295 174.41 275.295 174.41 276.136 173.997C276.99 173.599 276.99 173.599 277.861 173.193C278.434 172.913 279.006 172.632 279.596 172.343C283.809 170.312 283.809 170.312 285.625 170.312Z" fill="#D12E2A"/>
<path d="M258.281 62.5C259.564 63.5958 260.845 64.6938 262.117 65.802C263.222 66.7393 264.352 67.6464 265.505 68.5242C266.07 68.9693 266.635 69.4144 267.217 69.873C268.013 70.4758 268.013 70.4758 268.825 71.0907C270.572 73.4183 270.145 75.2621 270 78.125C269.506 80.5536 269.506 80.5536 268.785 83.1207C268.502 84.1571 268.218 85.1936 267.935 86.2301C267.779 86.79 267.624 87.3499 267.463 87.9268C262.811 104.711 258.767 121.649 254.668 138.574C254.342 139.918 254.016 141.262 253.691 142.606C251.832 150.278 249.976 157.951 248.125 165.625C244.871 165.021 241.981 164.057 238.896 162.842C237.989 162.486 237.082 162.131 236.147 161.765C235.115 161.355 235.115 161.355 234.062 160.938C234.544 155.393 235.635 150.192 237 144.801C237.22 143.918 237.439 143.034 237.666 142.123C238.389 139.222 239.119 136.322 239.849 133.423C240.354 131.403 240.859 129.383 241.364 127.363C242.419 123.141 243.478 118.92 244.54 114.7C245.768 109.817 246.99 104.933 248.21 100.048C249.385 95.3431 250.563 90.6391 251.743 85.9356C252.244 83.9347 252.745 81.9336 253.245 79.9323C253.942 77.1467 254.643 74.3619 255.344 71.5775C255.552 70.7439 255.76 69.9103 255.974 69.0515C256.164 68.2981 256.355 67.5446 256.551 66.7684C256.717 66.1099 256.882 65.4515 257.052 64.7731C257.5 63.2812 257.5 63.2812 258.281 62.5Z" fill="#C4912F"/>
<path d="M55.9375 90.625C56.1239 91.1326 56.3104 91.6402 56.5025 92.1631C58.6772 98.0824 60.8537 104.001 63.0313 109.919C63.6005 111.467 64.1696 113.014 64.7386 114.561C69.9827 128.841 69.9827 128.841 75.3467 143.076C75.5546 143.62 75.7625 144.164 75.9768 144.725C76.8821 147.089 77.7942 149.45 78.7137 151.809C79.0175 152.596 79.3213 153.382 79.6344 154.193C79.89 154.847 80.1456 155.5 80.4089 156.173C80.9375 157.812 80.9375 157.812 80.9375 160.156C78.5338 161.098 76.1233 162.02 73.7109 162.939C73.0291 163.207 72.3473 163.474 71.6449 163.75C70.6554 164.124 70.6554 164.124 69.646 164.505C69.0405 164.738 68.435 164.971 67.8111 165.212C65.7147 165.716 64.8748 165.907 62.9687 164.844C62.0164 162.857 61.3042 161.03 60.628 158.948C60.4169 158.333 60.2058 157.718 59.9883 157.085C59.2933 155.053 58.6163 153.015 57.9394 150.977C57.463 149.569 56.9853 148.163 56.5064 146.757C55.7649 144.578 55.0244 142.4 54.2887 140.219C52.5923 135.199 50.8318 130.205 49.0283 125.223C48.5515 123.899 48.0749 122.574 47.5984 121.25C46.9143 119.35 46.2277 117.451 45.5323 115.555C44.8914 113.804 44.2624 112.049 43.6358 110.294C43.4444 109.781 43.2529 109.268 43.0556 108.739C42.0207 105.799 41.6068 103.756 42.6562 100.781C44.3316 98.9716 44.3316 98.9716 46.416 97.2168C49.3773 94.6998 49.3773 94.6998 52.138 91.9708C53.5937 90.625 53.5937 90.625 55.9375 90.625Z" fill="#F2CF26"/>
<path d="M253.594 173.438C257.203 174.727 260.812 176.016 264.531 177.344C262.12 193 259.621 208.639 256.937 224.25C256.662 225.855 256.388 227.46 256.116 229.065C255.732 231.326 255.341 233.586 254.949 235.846C254.835 236.522 254.721 237.198 254.604 237.894C254.494 238.518 254.384 239.143 254.27 239.786C254.177 240.328 254.084 240.87 253.987 241.428C253.389 243.769 252.742 245.618 250.699 246.985C250.173 247.216 249.647 247.446 249.105 247.684C248.518 247.944 247.932 248.204 247.328 248.473C246.705 248.735 246.082 248.997 245.439 249.268C244.808 249.541 244.177 249.814 243.526 250.096C238.911 252.053 234.288 253.649 229.375 254.688C229.831 250.896 230.609 247.455 231.789 243.826C232.143 242.721 232.497 241.615 232.851 240.509C233.141 239.605 233.141 239.605 233.437 238.682C234.618 234.975 235.755 231.255 236.898 227.536C237.271 226.319 237.271 226.319 237.653 225.078C238.166 223.407 238.679 221.735 239.192 220.064C239.712 218.373 240.232 216.681 240.753 214.99C243.406 206.383 246.02 197.786 248.282 189.068C249.078 186.073 250.007 183.158 251.006 180.225C251.494 178.779 251.494 178.779 251.992 177.304C252.812 175 252.812 175 253.594 173.438Z" fill="#C72C28"/>
<path d="M84.0625 58.5938C86.6818 59.3294 89.2773 60.1293 91.875 60.9375C92.584 61.1278 93.293 61.3182 94.0234 61.5143C99.1362 63.1196 99.1362 63.1196 100.629 65.6728C100.965 66.6177 100.965 66.6177 101.307 67.5817C101.561 68.2812 101.815 68.9806 102.076 69.7013C102.441 70.7773 102.441 70.7773 102.812 71.875C103.04 72.5303 103.268 73.1857 103.502 73.8609C104.976 78.1939 106.344 82.5625 107.721 86.9268C108.224 88.5112 108.733 90.0936 109.249 91.6739C114.604 108.097 114.604 108.097 113.75 117.188C113.671 118.758 113.592 120.329 113.519 121.9C113.408 124.129 113.268 126.355 113.125 128.582C113.017 130.282 112.914 131.982 112.812 133.682C112.476 139.139 112.082 144.572 111.406 150C109.637 147.346 108.873 144.735 108.004 141.708C107.83 141.117 107.656 140.525 107.477 139.915C107.105 138.647 106.735 137.378 106.366 136.109C105.402 132.793 104.426 129.481 103.45 126.169C103.259 125.518 103.067 124.866 102.87 124.195C101.423 119.297 99.9023 114.427 98.3203 109.57C96.1792 102.967 94.2712 96.3129 92.4295 89.6198C90.4 82.263 88.2268 74.9522 86.0067 67.6508C85.7528 66.8071 85.499 65.9633 85.2374 65.094C85.0104 64.3469 84.7834 63.5997 84.5494 62.83C84.0625 60.9375 84.0625 60.9375 84.0625 58.5938Z" fill="#C4912F"/>
<path d="M265.313 279.688C266.63 282.322 265.406 285.139 264.806 287.918C264.509 289.347 264.213 290.777 263.919 292.206C263.762 292.966 263.605 293.727 263.444 294.51C262.637 298.526 261.907 302.557 261.18 306.589C261.031 307.418 260.881 308.248 260.727 309.102C260.422 310.796 260.118 312.491 259.815 314.185C259.353 316.765 258.887 319.343 258.422 321.922C258.12 323.598 257.819 325.274 257.518 326.95C257.374 327.752 257.23 328.553 257.082 329.379C256.34 333.547 255.661 337.712 255.071 341.904C254.011 348.992 250.984 355.346 245.269 359.842C240.315 362.806 235.13 364.276 229.375 364.062C230.197 363.289 230.197 363.289 231.035 362.5C239.337 354.033 241.234 344.286 243.053 332.806C243.306 331.269 243.558 329.732 243.811 328.195C244.158 326.072 244.498 323.948 244.839 321.824C245.354 318.62 245.879 315.418 246.403 312.216C246.81 309.723 247.216 307.229 247.618 304.735C247.906 302.951 248.199 301.167 248.495 299.384C248.768 297.717 249.026 296.047 249.268 294.375C249.387 293.606 249.506 292.837 249.629 292.044C249.727 291.369 249.825 290.694 249.926 289.998C250.584 287.916 251.351 287.268 253.154 286.084C254.332 285.494 255.522 284.926 256.719 284.375C258.285 283.519 259.847 282.656 261.406 281.787C262.707 281.085 264.009 280.385 265.313 279.688Z" fill="#D02E2A"/>
<path d="M60.625 89.8438C63.7942 90.438 66.9005 91.1492 70 92.041C71.4019 92.4111 71.4019 92.4111 72.832 92.7887C76.6443 94.6747 77.5098 98.5243 78.8247 102.323C79.4313 104.068 80.0673 105.801 80.7071 107.533C82.0193 111.102 83.3069 114.678 84.5887 118.257C86.0399 122.309 87.4981 126.359 88.9575 130.408C89.4088 131.66 89.4088 131.66 89.8692 132.937C92.0344 138.933 94.2336 144.915 96.4526 150.891C96.7586 151.716 97.0647 152.54 97.3799 153.389C98.8556 157.362 100.336 161.333 101.82 165.303C102.354 166.739 102.889 168.175 103.423 169.611C103.667 170.26 103.912 170.909 104.163 171.578C105.257 174.526 106.239 177.345 106.719 180.469C103.915 177.789 101.601 175.026 99.3457 171.875C95.2509 166.057 95.2509 166.057 89.1702 162.795C86.1844 161.174 85.6152 158.592 84.566 155.536C84.332 154.893 84.098 154.251 83.8568 153.589C83.0818 151.453 82.3273 149.311 81.5723 147.168C81.0352 145.678 80.4966 144.188 79.9564 142.699C79.1019 140.343 78.2488 137.986 77.4011 135.627C73.995 126.154 70.4293 116.742 66.875 107.324C65.6686 104.125 64.4644 100.924 63.2617 97.7234C62.9938 97.0137 62.7258 96.304 62.4498 95.5729C62.2081 94.9294 61.9665 94.2859 61.7175 93.623C61.5054 93.0598 61.2933 92.4967 61.0748 91.9165C60.625 90.625 60.625 90.625 60.625 89.8438Z" fill="#C3902F"/>
<path d="M109.063 26.5625C109.302 27.2877 109.54 28.0128 109.787 28.76C110.925 32.2115 112.069 35.6615 113.213 39.1113C113.421 39.7392 113.629 40.3672 113.843 41.0141C116.152 47.9835 118.497 54.9353 121.001 61.8378C121.303 62.6731 121.303 62.6731 121.611 63.5254C122.569 66.1697 123.537 68.8097 124.519 71.4449C124.862 72.3844 125.204 73.324 125.557 74.292C125.862 75.1113 126.166 75.9305 126.48 76.7746C127.051 78.9827 127.169 79.966 126.25 82.0312C124.615 83.4769 123.027 84.759 121.27 86.0352C120.808 86.3806 120.347 86.726 119.872 87.0819C117.864 88.5786 115.834 90.0171 113.75 91.4062C113.47 90.5151 113.19 89.624 112.902 88.7058C111.865 85.4062 110.827 82.1071 109.787 78.8082C109.338 77.3791 108.888 75.9499 108.439 74.5205C107.795 72.4684 107.149 70.4169 106.502 68.3655C106.301 67.7242 106.1 67.0829 105.893 66.4221C104.909 63.2248 104.909 63.2248 103.594 60.1562C102.489 59.839 101.382 59.5313 100.273 59.2285C97.3769 58.0274 96.6558 57.2182 95.2289 54.3579C92.1378 45.7789 92.1378 45.7789 92.6563 41.4062C93.9941 39.6002 93.9941 39.6002 95.8484 37.7777C96.5111 37.1206 97.1737 36.4635 97.8565 35.7864C98.5574 35.1112 99.2583 34.4359 99.9805 33.7402C100.675 33.0499 101.37 32.3595 102.086 31.6483C107.27 26.5625 107.27 26.5625 109.063 26.5625Z" fill="#F1CE25"/>
<path d="M137.139 250.684C143.447 252.521 149.785 254.161 156.182 255.664C156.982 255.856 157.782 256.049 158.606 256.247C169.862 258.839 180.953 259.694 192.461 259.668C193.379 259.668 193.379 259.668 194.317 259.669C203.992 259.653 212.982 258.834 222.344 256.25C223.091 256.082 223.838 255.914 224.608 255.74C234.267 253.467 243.737 249.28 252.812 245.312C252.758 247.873 252.758 247.873 252.031 250.781C250.137 252.077 248.763 252.788 246.66 253.564C246.104 253.787 245.548 254.009 244.975 254.238C243.171 254.943 241.356 255.603 239.531 256.25C238.637 256.569 238.637 256.569 237.725 256.895C223.227 261.965 208.628 264.988 193.256 265.031C191.664 265.039 190.072 265.063 188.48 265.088C175.471 265.196 163.065 262.543 150.524 259.296C148.503 258.773 146.48 258.259 144.456 257.747C138.849 256.325 133.246 254.882 127.647 253.428C112.242 249.431 97.9477 246.687 82.0117 246.631C81.4728 246.628 80.934 246.625 80.3787 246.622C74.706 246.606 69.3044 246.745 63.7794 248.104C62.1875 248.437 62.1875 248.437 59.0625 248.437C59.0625 247.148 59.0625 245.859 59.0625 244.531C79.5393 232.438 116.168 244.572 137.139 250.684Z" fill="#FDF2F2"/>
<path d="M270.781 93.75C276.969 93.75 283.156 93.75 289.531 93.75C288.014 98.3015 286.516 102.507 284.493 106.802C284.106 107.636 284.106 107.636 283.712 108.486C283.159 109.678 282.604 110.869 282.048 112.06C280.554 115.261 279.071 118.467 277.59 121.674C277.285 122.333 276.98 122.993 276.666 123.672C272.898 131.843 269.271 140.076 265.658 148.316C262.615 155.236 259.387 162.023 255.938 168.75C254.906 168.492 253.875 168.234 252.812 167.969C253.294 163.515 254.088 159.28 255.176 154.938C255.335 154.292 255.494 153.646 255.658 152.98C256.179 150.865 256.705 148.751 257.231 146.637C257.597 145.161 257.961 143.685 258.326 142.208C259.088 139.126 259.853 136.043 260.619 132.961C261.603 129.006 262.582 125.049 263.559 121.092C264.311 118.049 265.065 115.006 265.819 111.964C266.181 110.504 266.542 109.045 266.903 107.585C267.406 105.552 267.911 103.519 268.418 101.487C268.567 100.881 268.716 100.276 268.87 99.6517C269.911 95.4914 269.911 95.4914 270.781 93.75Z" fill="#F0CC26"/>
<path d="M77.8125 60.9375C79.375 61.7188 79.375 61.7188 80.4298 64.6521C80.8434 65.9947 81.2501 67.3396 81.6516 68.6859C81.8756 69.4198 82.0995 70.1537 82.3302 70.9099C83.0765 73.362 83.8137 75.8166 84.5508 78.2715C85.0719 79.9916 85.5934 81.7116 86.1152 83.4314C90.5474 98.0695 94.9048 112.731 99.221 127.403C101.418 134.868 103.617 142.33 105.944 149.756C106.283 150.848 106.622 151.941 106.962 153.033C107.551 154.92 108.15 156.804 108.762 158.684C110.413 163.99 110.971 168.667 110.625 174.219C109.017 172.61 108.622 171.77 107.877 169.678C107.653 169.058 107.43 168.438 107.2 167.799C106.959 167.118 106.719 166.437 106.472 165.735C106.215 165.019 105.958 164.303 105.694 163.566C105.136 162.01 104.58 160.453 104.026 158.896C102.545 154.732 101.048 150.573 99.5532 146.414C99.0903 145.125 99.0903 145.125 98.6181 143.809C95.2997 134.574 91.9096 125.366 88.5059 116.162C88.225 115.401 87.944 114.64 87.6546 113.855C86.8521 111.681 86.0481 109.507 85.2435 107.333C85.0113 106.704 84.7791 106.075 84.5398 105.426C83.0885 101.516 81.5579 97.6457 79.9622 93.7913C79.375 92.1875 79.375 92.1875 79.375 90.625C78.6106 90.5208 78.6106 90.5208 77.8308 90.4144C74.4214 89.7154 72.2344 89.0976 69.9726 86.3495C66.7625 80.7109 66.7625 80.7109 67.0799 77.825C67.7186 75.5604 68.6066 74.0761 69.9542 72.1527C70.4099 71.4956 70.8656 70.8385 71.3352 70.1614C72.052 69.1486 72.052 69.1486 72.7832 68.1152C73.2641 67.4249 73.745 66.7345 74.2404 66.0233C75.4254 64.3239 76.6162 62.6289 77.8125 60.9375Z" fill="#F0CC25"/>
<path d="M113.75 296.875C115.121 297.189 115.121 297.189 116.519 297.509C126.08 299.714 135.591 302.093 145.061 304.66C177.527 313.323 207.584 314.695 239.505 302.868C241.094 302.344 241.094 302.344 242.656 302.344C242.656 303.891 242.656 305.438 242.656 307.031C228.819 311.819 215.309 316.484 200.521 316.565C199.867 316.569 199.214 316.574 198.541 316.578C197.163 316.586 195.785 316.591 194.407 316.594C192.344 316.601 190.283 316.626 188.221 316.65C179.533 316.705 171.458 315.879 162.969 314.063C162.134 313.895 161.3 313.727 160.44 313.554C158.25 313.109 156.068 312.64 153.887 312.158C153.125 311.991 152.363 311.824 151.578 311.652C144.584 310.098 137.658 308.354 130.797 306.281C124.888 304.509 118.957 303.119 112.92 301.855C111.77 301.614 111.77 301.614 110.598 301.367C108.267 300.89 105.932 300.439 103.594 300C102.812 299.848 102.031 299.697 101.225 299.54C94.0913 298.283 87.1261 298.256 79.9121 298.34C78.7163 298.348 77.5206 298.355 76.3248 298.361C73.4352 298.378 70.5457 298.405 67.6562 298.438C67.6562 297.148 67.6562 295.859 67.6562 294.531C78.8324 288.943 102.266 294.186 113.75 296.875Z" fill="#FDF5F5"/>
<path d="M292.656 99.2188C293.172 99.2188 293.687 99.2188 294.219 99.2188C295.05 101.46 295.861 103.705 296.66 105.957C296.897 106.588 297.133 107.22 297.377 107.87C297.594 108.49 297.81 109.109 298.033 109.747C298.238 110.312 298.443 110.877 298.653 111.458C299.205 115.434 296.912 118.99 295.067 122.388C294.378 123.666 294.378 123.666 293.674 124.969C293.172 125.891 292.67 126.813 292.168 127.734C291.379 129.192 290.592 130.649 289.804 132.107C289.256 133.122 288.707 134.137 288.158 135.152C286.175 138.815 284.213 142.488 282.262 146.167C281.987 146.686 281.711 147.204 281.428 147.739C280.355 149.76 279.282 151.782 278.212 153.805C274.839 160.18 271.341 166.456 267.656 172.656C263.164 171.973 263.164 171.973 261.406 171.094C261.919 167.747 263.096 164.845 264.476 161.78C264.713 161.248 264.949 160.716 265.192 160.167C265.977 158.404 266.767 156.643 267.559 154.883C268.112 153.644 268.665 152.405 269.218 151.166C274.237 139.953 279.403 128.808 284.611 117.683C288.883 108.558 288.883 108.558 292.656 99.2188Z" fill="#C4902F"/>
<path d="M114.531 28.125C128.939 33.6728 128.939 33.6728 131.917 39.8254C133.155 42.9348 134.085 46.1259 134.981 49.3481C135.689 51.7821 136.499 54.1648 137.334 56.5582C139.777 63.5912 139.777 63.5912 140.7 66.3513C141.041 67.3572 141.041 67.3572 141.388 68.3834C141.898 70.4028 141.964 72.1448 141.875 74.2188C141.214 74.0093 140.554 73.7998 139.873 73.584C136.111 73.3788 134.506 75.0363 131.719 77.3438C129.437 71.7883 127.371 66.1803 125.411 60.5042C125.122 59.6729 124.834 58.8417 124.536 57.9853C123.932 56.2432 123.329 54.5007 122.727 52.758C121.803 50.0882 120.877 47.4195 119.95 44.751C119.361 43.0522 118.772 41.3534 118.184 39.6545C117.908 38.8578 117.631 38.0611 117.346 37.2402C117.09 36.4993 116.834 35.7583 116.571 34.9949C116.346 34.3453 116.121 33.6958 115.89 33.0265C115.362 31.4031 114.921 29.7861 114.531 28.125Z" fill="#C3902F"/>
<path d="M173.125 41.4062C178.667 44.9376 183.722 48.8957 188.75 53.125C187.749 59.5861 186.476 65.9378 184.984 72.3022C184.778 73.1907 184.572 74.0791 184.36 74.9945C183.71 77.7965 183.056 80.5975 182.402 83.3984C181.958 85.3128 181.513 87.2273 181.069 89.1418C179.986 93.8036 178.901 98.4646 177.812 103.125C177.555 103.125 177.297 103.125 177.031 103.125C176.239 98.2923 175.952 93.4736 175.688 88.5864C175.639 87.7103 175.59 86.8342 175.54 85.9315C175.384 83.1342 175.231 80.3366 175.078 77.5391C174.976 75.6948 174.873 73.8505 174.77 72.0062C174.202 61.8072 173.655 51.6073 173.125 41.4062Z" fill="#C4912F"/>
<path d="M271.562 243.75C272.448 246.412 272.228 248.261 271.648 250.986C271.481 251.79 271.315 252.594 271.143 253.422C270.959 254.275 270.775 255.127 270.586 256.006C269.026 263.222 269.026 263.222 267.873 270.511C266.82 278.779 266.82 278.779 264.864 281.226C263.223 282.317 261.702 282.939 259.844 283.594C258.279 284.321 256.716 285.053 255.156 285.791C253.856 286.365 252.555 286.936 251.25 287.5C251.639 284.023 252.079 280.555 252.545 277.087C252.734 275.616 252.906 274.143 253.067 272.668C254.679 258.031 254.679 258.031 257.631 253.854C259.597 252.297 261.53 251.159 263.75 250C265.087 248.999 266.406 247.974 267.705 246.924C268.278 246.482 268.851 246.04 269.442 245.584C270.725 244.618 270.725 244.618 271.562 243.75Z" fill="#FDFBFB"/>
<path d="M245 289.062C245.991 291.045 245.642 291.685 245.098 293.799C244.226 297.425 243.791 300.977 243.438 304.688C243.051 303.527 243.051 303.527 242.656 302.344C241.899 302.646 241.142 302.948 240.361 303.259C221.911 310.482 221.911 310.482 212.188 310.156C212.657 305.742 213.809 301.827 215.313 297.656C216.025 297.551 216.737 297.445 217.47 297.336C232.246 295.356 232.246 295.356 245 289.062Z" fill="#C7302C"/>
<path d="M265.313 279.688C267.424 283.91 265.345 290.723 263.954 294.997C261.139 300.363 254.303 302.648 248.906 304.688C247.245 299.704 248.837 293.189 250.469 288.281C252.225 285.988 254.055 285.348 256.719 284.375C258.29 283.529 259.853 282.666 261.406 281.787C262.707 281.085 264.009 280.385 265.313 279.688Z" fill="#D1322E"/>
<path d="M252.031 250.781C252.221 254.007 251.9 256.458 250.469 259.375C246.61 262.189 242.406 263.912 237.969 265.625C237.434 265.837 236.899 266.048 236.348 266.267C228.015 269.531 228.015 269.531 224.688 269.531C224.909 268.277 225.138 267.024 225.371 265.771C225.498 265.074 225.625 264.376 225.756 263.657C226.25 261.719 226.25 261.719 227.812 259.375C229.565 258.572 229.565 258.572 231.731 257.861C232.908 257.466 232.908 257.466 234.108 257.062C234.931 256.794 235.754 256.526 236.602 256.25C240.991 254.8 247.542 250.781 252.031 250.781Z" fill="#C8322E"/>
<path d="M273.906 231.25C275.424 234.286 274.047 237.798 273.326 240.976C271.761 245.396 269.129 247.454 265.312 250C264.53 250.525 263.747 251.049 262.941 251.59C260.888 252.922 258.819 254.212 256.719 255.469C256.809 254.003 256.908 252.539 257.012 251.074C257.066 250.258 257.12 249.443 257.177 248.602C257.671 244.769 258.029 242.274 261.074 239.719C261.876 239.228 262.679 238.738 263.506 238.232C264.343 237.708 265.18 237.183 266.042 236.642C267.228 235.907 267.228 235.907 268.438 235.156C270.283 233.882 272.093 232.569 273.906 231.25Z" fill="#D13531"/>
<path d="M273.906 231.25C274.688 232.812 274.688 232.812 274.395 234.912C271.728 240.348 265.14 244.119 259.844 246.875C259.328 246.875 258.813 246.875 258.281 246.875C258.397 244.342 258.397 244.342 259.062 241.406C260.997 239.642 260.997 239.642 263.457 238.184C264.723 237.407 264.723 237.407 266.014 236.615C267.214 235.893 267.214 235.893 268.438 235.156C269.554 234.389 270.663 233.61 271.758 232.812C272.467 232.297 273.176 231.781 273.906 231.25Z" fill="#FBF3F3"/>
<path d="M262.188 291.406C262.703 291.406 263.219 291.406 263.75 291.406C263.802 293.875 263.802 293.875 262.969 296.875C260.827 298.709 258.409 299.883 255.889 301.123C255.222 301.471 254.554 301.819 253.867 302.177C252.222 303.032 250.569 303.868 248.906 304.688C248.125 302.344 248.125 302.344 248.488 300.452C250.231 297.525 252.591 296.568 255.596 295.117C259.121 293.577 259.121 293.577 262.188 291.406Z" fill="#FAF2F2"/>
<path d="M55.9375 161.719C56.4531 161.977 56.9687 162.234 57.5 162.5C58.0709 164.308 58.5948 166.131 59.0625 167.969C53.8867 170.41 53.8867 170.41 51.25 169.531C52.7969 166.953 54.3438 164.375 55.9375 161.719Z" fill="#F5F0F1"/>
<path d="M278.594 162.5C280.141 163.273 281.688 164.047 283.281 164.844C280.839 166.91 278.525 167.847 275.469 168.75C276.5 166.687 277.531 164.625 278.594 162.5Z" fill="#EEE6E8"/>
</g>
<defs>
<clipPath id="clip0_2045_274">
<rect width="340" height="400" fill="white" transform="matrix(-1 0 0 1 340 0)"/>
</clipPath>
</defs>
</svg>
