<?xml version="1.0" encoding="UTF-8"?>
<svg version="1.1" xmlns="http://www.w3.org/2000/svg" width="512" height="512">
<path d="M0 0 C4.16117895 2.0724938 8.13503467 4.45516726 12.12036133 6.84423828 C14.04745398 7.99104615 15.99223928 9.10264291 17.93945312 10.21484375 C24.10117686 13.8376597 29.17591605 16.84993609 31.49291992 23.99975586 C31.66025635 24.65983643 31.82759277 25.31991699 32 26 C32.61875 27.7634375 32.61875 27.7634375 33.25 29.5625 C33.4975 30.366875 33.745 31.17125 34 32 C34.20109375 31.05253906 34.4021875 30.10507812 34.609375 29.12890625 C36 26 36 26 38.703125 24.71484375 C39.87359375 24.45832031 41.0440625 24.20179687 42.25 23.9375 C42.89171143 23.79030518 43.53342285 23.64311035 44.19458008 23.49145508 C45.63920938 23.16264713 47.08646508 22.84524473 48.53564453 22.53710938 C51.28403327 21.93809459 54.01358523 21.27700992 56.74609375 20.609375 C58.72625709 20.13414229 60.70672516 19.66017749 62.6875 19.1875 C63.64366211 18.95603271 64.59982422 18.72456543 65.58496094 18.48608398 C66.48891602 18.27798096 67.39287109 18.06987793 68.32421875 17.85546875 C69.12947998 17.66621826 69.93474121 17.47696777 70.7644043 17.28198242 C74.93710257 16.75566742 77.41203011 18.05714923 80.6796875 20.546875 C81.70255859 21.3203125 81.70255859 21.3203125 82.74609375 22.109375 C83.44863281 22.65078125 84.15117187 23.1921875 84.875 23.75 C85.56980469 24.2759375 86.26460937 24.801875 86.98046875 25.34375 C91.07753987 28.46091899 95.07065701 31.67422381 99 35 C99.13575439 34.34926514 99.27150879 33.69853027 99.41137695 33.02807617 C100.03349019 30.07863282 100.67277429 27.13317112 101.3125 24.1875 C101.52583984 23.16333984 101.73917969 22.13917969 101.95898438 21.08398438 C102.28286133 19.60961914 102.28286133 19.60961914 102.61328125 18.10546875 C102.90392456 16.74651489 102.90392456 16.74651489 103.20043945 15.36010742 C104.12710051 12.62483034 104.55362831 11.5561859 107 10 C109.73871074 9.64092626 112.24668744 9.46067718 114.9921875 9.42578125 C116.16661911 9.40368843 116.16661911 9.40368843 117.36477661 9.38114929 C119.02059172 9.35720918 120.67654858 9.34178049 122.33251953 9.33422852 C124.86087005 9.31262076 127.38314208 9.23245574 129.91015625 9.15039062 C141.48183313 8.94759652 141.48183313 8.94759652 145.00537109 11.39013672 C146.37393281 13.52861901 147.14428214 15.60964572 148 18 C149.09920029 20.00249169 150.22367632 21.9912272 151.3671875 23.96875 C152.54019973 26.14381976 153.70940092 28.32094862 154.875 30.5 C155.78378906 32.13388672 155.78378906 32.13388672 156.7109375 33.80078125 C160.05315497 40.0826309 161.91779784 44.00767512 160 51 C166.8954306 49.20827394 173.59354047 47.15658063 180.2734375 44.671875 C183.38812794 43.90435816 184.94153315 44.09711546 188 45 C189.95703125 46.51879883 189.95703125 46.51879883 191.8125 48.45703125 C192.49570312 49.15763672 193.17890625 49.85824219 193.8828125 50.58007812 C194.58148438 51.31677734 195.28015625 52.05347656 196 52.8125 C197.39352802 54.25873526 198.78930496 55.70280749 200.1875 57.14453125 C200.84234375 57.82596191 201.4971875 58.50739258 202.171875 59.20947266 C204.08761501 61.17274028 204.08761501 61.17274028 206.9375 63.13671875 C209 65 209 65 209.96484375 67.6640625 C210.01268231 72.20341015 208.87933494 76.06043134 207.5625 80.375 C206.716875 83.22125 205.87125 86.0675 205 89 C214.9 89 224.8 89 235 89 C237.91484975 95.55841195 240.5110364 101.87144507 242.8125 108.625 C243.13669922 109.52734375 243.46089844 110.4296875 243.79492188 111.359375 C244.09591797 112.24367188 244.39691406 113.12796875 244.70703125 114.0390625 C244.9800708 114.82490723 245.25311035 115.61075195 245.53442383 116.42041016 C246.59715587 122.30862556 244.82169693 126.96958345 242.0078125 132.0703125 C241.38986816 133.20476807 240.77192383 134.33922363 240.13525391 135.50805664 C239.46521418 136.71372939 238.79512864 137.91937667 238.125 139.125 C237.44455609 140.36837889 236.7653677 141.61244565 236.08740234 142.85717773 C234.71943395 145.3678846 233.34740917 147.87630321 231.97265625 150.38330078 C229.13095854 155.57851685 226.37163888 160.81654107 223.625 166.0625 C223.16754395 166.92955566 222.71008789 167.79661133 222.23876953 168.68994141 C221.82224121 169.4844873 221.40571289 170.2790332 220.9765625 171.09765625 C220.61643066 171.78351807 220.25629883 172.46937988 219.88525391 173.17602539 C218.87672977 175.15358337 218.87672977 175.15358337 218 178 C218.680625 178.2475 219.36125 178.495 220.0625 178.75 C223.56865083 180.24197908 226.71620368 182.06835511 230 184 C230.1290199 189.03905271 229.68200505 193.75004242 228.76306152 198.68963623 C228.62986527 199.43298572 228.49666902 200.17633521 228.35943651 200.94221044 C227.91405438 203.41926767 227.45996403 205.89464537 227.00585938 208.37011719 C226.68334495 210.15348004 226.36136807 211.93694017 226.03988647 213.7204895 C225.16474442 218.56679832 224.28200239 223.4116952 223.39786339 228.25636959 C222.46573845 233.37108255 221.54046268 238.4870345 220.61437988 243.60284424 C219.05130803 252.23205787 217.48377208 260.86045045 215.91308594 269.48828125 C213.72689786 281.4971215 211.54862302 293.5073863 209.37205029 305.51797247 C207.65588488 314.98623046 205.93748883 324.45408386 204.21875 333.921875 C204.03988691 334.90726729 203.86102383 335.89265959 203.67674065 336.90791225 C203.14807188 339.82004864 202.61920547 342.73214902 202.09020996 345.64422607 C201.83250171 347.06303625 201.83250171 347.06303625 201.56958723 348.51050925 C200.72329965 353.16628209 199.87420821 357.82151646 199.0194931 362.47574997 C198.68476037 364.29905429 198.35005623 366.12236386 198.01538086 367.94567871 C197.85035836 368.84438824 197.68533586 369.74309777 197.51531267 370.66904092 C196.45888364 376.44037362 195.42968681 382.21600309 194.41638327 387.99505782 C193.72099129 391.9487789 193.01349352 395.90028279 192.30417728 399.85152674 C191.97229781 401.71721071 191.64582621 403.58386634 191.32528591 405.45153189 C189.0610967 418.62791152 186.51466588 430.75502963 176 440 C163.82513619 448.53378304 150.68769826 448.29070699 136.38647461 448.19873047 C134.62770242 448.19484557 132.86892821 448.19180189 131.1101532 448.18952942 C126.36227887 448.1805011 121.61455572 448.15832154 116.86674571 448.13258505 C112.89310921 448.11194538 108.91945839 448.09702297 104.94579798 448.08182538 C95.56886241 448.04555161 86.19203201 447.99774581 76.81518555 447.94335938 C67.16023656 447.88762061 57.50538507 447.85419902 47.8503074 447.83125198 C39.53992965 447.81055027 31.22970885 447.774563 22.91944319 447.7267276 C17.96505234 447.69844794 13.0108195 447.67618578 8.0563488 447.66924667 C3.39804892 447.66217385 -1.25976572 447.6359861 -5.91789055 447.59541893 C-7.62136443 447.58375928 -9.32489972 447.57875633 -11.02841187 447.58111382 C-23.67723786 447.59281604 -34.51743435 446.19706905 -44 437 C-50.70560026 428.80426635 -53.26497988 419.88903648 -54.98388672 409.63720703 C-55.25233335 408.09452967 -55.25233335 408.09452967 -55.52620316 406.5206871 C-56.12653746 403.05931304 -56.71557898 399.59611346 -57.3046875 396.1328125 C-57.73743929 393.62310436 -58.17088117 391.11351512 -58.60494995 388.60403442 C-59.55980419 383.07741219 -60.50879112 377.54980602 -61.45446777 372.02160645 C-62.93161757 363.38800432 -64.42157448 354.75663661 -65.91315889 346.12551832 C-68.74891932 329.71427269 -71.57006568 313.30055258 -74.38135147 296.8850975 C-76.07856257 286.97537762 -77.77977992 277.06636353 -79.48618805 267.15822303 C-80.70912756 260.05538227 -81.92763421 252.95178974 -83.14281356 245.84761727 C-83.86079158 241.65085972 -84.58065241 237.45444699 -85.3053627 233.25884628 C-85.97868136 229.36024015 -86.64650224 225.46073217 -87.31009483 221.56045914 C-87.55317361 220.13750073 -87.79822932 218.71487834 -88.0454464 217.29263306 C-88.38312089 215.34818975 -88.71287277 213.4023756 -89.04226685 211.45651245 C-89.32144549 209.82952077 -89.32144549 209.82952077 -89.60626411 208.16966057 C-90.35849247 202.11405669 -90.48959813 197.90762523 -87.19140625 192.6796875 C-86.60939453 191.73222656 -86.02738281 190.78476563 -85.42773438 189.80859375 C-84.81220703 188.84050781 -84.19667969 187.87242187 -83.5625 186.875 C-82.34895905 184.93896101 -81.14167159 182.99898473 -79.94140625 181.0546875 C-79.40201416 180.20374512 -78.86262207 179.35280273 -78.30688477 178.47607422 C-76.36774432 174.80210403 -75.71254422 172.23085206 -76.67025757 168.1300354 C-77.04252472 167.07859344 -77.41479187 166.02715149 -77.79833984 164.94384766 C-78.21562347 163.74555328 -78.6329071 162.54725891 -79.06283569 161.31265259 C-79.52880804 160.01310047 -79.99484354 158.713571 -80.4609375 157.4140625 C-80.93204419 156.07078002 -81.4018838 154.72705254 -81.87051392 153.38290405 C-83.10601441 149.8473922 -84.35492534 146.31678436 -85.60784912 142.78741455 C-87.60881234 137.14717858 -89.59404603 131.50146457 -91.57036209 125.85255051 C-92.26065956 123.88792915 -92.9595082 121.92650685 -93.65927124 119.96524048 C-94.29465317 118.15834244 -94.29465317 118.15834244 -94.94287109 116.31494141 C-95.31672943 115.26190826 -95.69058777 114.20887512 -96.07577515 113.12393188 C-97.07823803 109.73555108 -97.67941966 106.51856474 -98 103 C-96.77172852 100.93945312 -96.77172852 100.93945312 -94.87890625 99.28125 C-93.84540039 98.34732422 -93.84540039 98.34732422 -92.79101562 97.39453125 C-92.05560547 96.76933594 -91.32019531 96.14414063 -90.5625 95.5 C-89.5115918 94.56220703 -89.5115918 94.56220703 -88.43945312 93.60546875 C-87.02376228 92.34736631 -85.59622195 91.10247289 -84.15722656 89.87109375 C-82.69445267 88.60234102 -81.25920528 87.30127677 -79.85058594 85.97265625 C-79.16383789 85.33199219 -78.47708984 84.69132812 -77.76953125 84.03125 C-77.16085205 83.44923828 -76.55217285 82.86722656 -75.92504883 82.26757812 C-72.90521748 80.27912354 -70.3104829 80.76868626 -66.8828125 81.4375 C-65 82 -65 82 -63 83 C-63.515625 81.9275 -64.03125 80.855 -64.5625 79.75 C-65.51627607 77.76614577 -66.05728211 76.51494308 -65.81225586 74.31225586 C-64.61122339 70.89326621 -62.58312933 68.05960989 -60.5625 65.08203125 C-60.12236572 64.42418137 -59.68223145 63.76633148 -59.22875977 63.08854675 C-57.82453832 60.99287196 -56.41225719 58.90276562 -55 56.8125 C-54.04897562 55.39421773 -53.09844896 53.97560158 -52.1484375 52.55664062 C-45.19599584 42.19599584 -45.19599584 42.19599584 -44 41 C-38.12673157 41.41215919 -33.43617912 42.76728358 -28 45 C-28.37253906 44.05898437 -28.74507813 43.11796875 -29.12890625 42.1484375 C-29.60751782 40.89090905 -30.08534079 39.63308026 -30.5625 38.375 C-31.03816406 37.14523438 -31.51382813 35.91546875 -32.00390625 34.6484375 C-33.09304247 30.65920915 -33.13281006 28.93735463 -32 25 C-30.22121599 22.78451402 -28.53698294 20.9274644 -26.50390625 18.98046875 C-25.68079201 18.1644091 -25.68079201 18.1644091 -24.84104919 17.3318634 C-23.09293526 15.6050204 -21.32793354 13.89661296 -19.5625 12.1875 C-18.37846864 11.01998323 -17.19551336 9.85137409 -16.01367188 8.68164062 C-5.59588009 -1.57284289 -5.59588009 -1.57284289 0 0 Z " fill="#671C26" transform="translate(182,25)"/>
<path d="M0 0 C40.59019098 10.83575375 78.90280441 7.89913677 117.14868164 -8.86889648 C119.48563546 -9.87060655 121.84279694 -10.81447555 124.20654297 -11.75097656 C122.87342876 -2.11943457 121.38296562 7.47292415 119.76904297 17.06152344 C119.46256836 18.8994043 119.46256836 18.8994043 119.14990234 20.77441406 C118.06452138 27.25626862 116.94811307 33.73177891 115.79638672 40.20214844 C114.57421338 47.07351727 113.41363436 53.95417959 112.26904297 60.83886719 C111.75534242 63.91354254 111.24121853 66.98814689 110.72705078 70.06274414 C110.37801355 72.15745865 110.03103155 74.25251657 109.68603516 76.34790039 C109.1780175 79.42925233 108.66174762 82.50912991 108.14404297 85.58886719 C107.99394775 86.51199203 107.84385254 87.43511688 107.68920898 88.38621521 C105.88326219 99.02732094 103.92139896 109.1875742 94.87451172 116.00683594 C84.95329457 122.3161814 75.80985075 122.54871853 64.3203125 122.53955078 C62.81813221 122.54554291 61.31595498 122.55235002 59.81378174 122.55990601 C55.75171348 122.57750171 51.68972959 122.5822586 47.6276269 122.58353758 C45.08536951 122.58496317 42.5431333 122.58924044 40.0008812 122.59453201 C31.11938881 122.61300968 22.23795628 122.6212053 13.35644531 122.61962891 C5.09710687 122.61842751 -3.16197026 122.63953519 -11.42124259 122.67111623 C-18.52979404 122.69732199 -25.63826033 122.70799443 -32.74685967 122.70671809 C-36.98483558 122.7062098 -41.22257895 122.71181919 -45.46050644 122.73307419 C-49.44811799 122.75252985 -53.43527685 122.75253152 -57.42290497 122.73804092 C-58.87969504 122.7359609 -60.33651402 122.7406053 -61.79325485 122.75276184 C-73.18402843 122.84160332 -83.15347401 121.18189787 -91.79345703 113.24902344 C-99.10251929 105.30265874 -100.42051411 94.80426788 -102.09814453 84.51855469 C-102.30250626 83.30193649 -102.50686798 82.0853183 -102.71742249 80.83183289 C-103.26248974 77.57871887 -103.80125407 74.32464354 -104.33695602 71.06997681 C-104.89225262 67.70562105 -105.45566897 64.34262593 -106.01831055 60.97949219 C-106.8954099 55.73101262 -107.76792952 50.48179688 -108.63671875 45.23193359 C-109.56795164 39.60480292 -110.50667075 33.97899846 -111.45361328 28.35449219 C-112.58061177 21.65490543 -113.69393065 14.95317497 -114.79345703 8.24902344 C-114.95426758 7.2715918 -115.11507812 6.29416016 -115.28076172 5.28710938 C-115.72664959 2.56673368 -116.16758788 -0.15438035 -116.60595703 -2.87597656 C-116.730271 -3.63587891 -116.85458496 -4.39578125 -116.98266602 -5.17871094 C-117.50015928 -8.43742681 -117.79345703 -11.43796783 -117.79345703 -14.75097656 C-77.99092386 -22.54906051 -38.19680914 -10.26860557 0 0 Z " fill="#E43632" transform="translate(234.79345703125,343.7509765625)"/>
<path d="M0 0 C3.09440295 2.55852693 5.27162492 5.74495941 7.55029297 9.02099609 C8.60259163 10.46804878 9.65726894 11.91337479 10.71435547 13.35693359 C11.46700684 14.39285645 11.46700684 14.39285645 12.23486328 15.44970703 C25.85194141 34.0658259 46.17939838 44.1452645 68.33154297 48.91943359 C93.98483466 52.15663469 118.80574012 46.70929618 139.61279297 31.33349609 C148.34165979 24.31403236 155.69022165 16.48682865 161.67529297 7.02099609 C164.97032482 2.01790131 166.8803521 -0.75569028 172.61279297 -2.66650391 C183.98263784 -4.48896629 194.01310896 0.29355582 204.36279297 4.33349609 C206.13814454 5.00978963 207.91418247 5.68428428 209.69091797 6.35693359 C214.00640421 7.99515054 218.31186665 9.65744663 222.61279297 11.33349609 C219.17103967 33.9539227 215.4518743 56.52739044 211.60757446 79.08251953 C211.11010571 82.00164623 210.61560845 84.92125223 210.12362671 87.84130859 C209.53526752 91.3316152 208.94040156 94.82075263 208.34058952 98.30910873 C208.01065202 100.23654845 207.68684394 102.1650342 207.36317444 104.09353638 C207.16227707 105.25311859 206.9613797 106.41270081 206.75439453 107.60742188 C206.58151917 108.62087677 206.4086438 109.63433167 206.23052979 110.67849731 C205.63921045 113.2199552 205.0020374 115.13128783 203.61279297 117.33349609 C188.92935859 126.2055994 170.4898741 131.85437683 153.61279297 134.33349609 C152.98751709 134.42703369 152.36224121 134.52057129 151.71801758 134.61694336 C145.01829087 135.49912492 138.31766676 135.51961646 131.56811523 135.51879883 C129.57840856 135.52096548 127.5887412 135.53941897 125.59912109 135.55810547 C110.23665915 135.58084222 95.89832231 133.21188832 81.05029297 129.45849609 C79.66051803 129.11524137 78.2705438 128.77279254 76.88037109 128.43115234 C68.93688844 126.4692117 61.02808603 124.39047252 53.12524414 122.27099609 C24.0932209 114.52212772 -7.23793147 107.90884864 -37.38720703 113.33349609 C-37.71720703 113.99349609 -38.04720703 114.65349609 -38.38720703 115.33349609 C-40.31151314 103.98891998 -42.23295375 92.64386249 -44.15085411 81.29820156 C-45.04173765 76.0285633 -45.93356454 70.75908851 -46.82763672 65.48999023 C-47.69229858 60.39399847 -48.55436568 55.29757365 -49.41472244 50.20085335 C-49.74150043 48.26770832 -50.06917392 46.33471442 -50.39780807 44.40188408 C-52.26767705 33.40049655 -54.01529586 22.40924533 -55.38720703 11.33349609 C-49.72204605 9.15429419 -44.04800981 7.00076808 -38.36450195 4.86987305 C-36.43481019 4.14237974 -34.50766506 3.4080921 -32.58325195 2.66674805 C-29.80697681 1.59861839 -27.02227867 0.55574421 -24.23486328 -0.48291016 C-23.3844899 -0.81617813 -22.53411652 -1.14944611 -21.65797424 -1.49281311 C-14.09555661 -4.26254085 -6.97448051 -4.46021342 0 0 Z " fill="#E2332F" transform="translate(154.38720703125,215.66650390625)"/>
<path d="M0 0 C40.71495411 10.86905989 78.90707229 7.79930475 117.27050781 -8.91650391 C119.56543426 -9.9056664 121.87898968 -10.84141165 124.20654297 -11.75097656 C123.69286704 -7.91192487 123.14042565 -4.07959355 122.5703125 -0.24853516 C122.30502832 1.5728455 122.04952391 3.39565842 121.79980469 5.21923828 C121.3527096 8.46179168 120.87523714 11.69887093 120.39404297 14.93652344 C120.25321289 16 120.11238281 17.06347656 119.96728516 18.15917969 C118.8137595 25.65348414 118.8137595 25.65348414 116.17529297 28.24121094 C115.19560547 28.57378906 114.21591797 28.90636719 113.20654297 29.24902344 C112.53083252 29.51142822 111.85512207 29.77383301 111.15893555 30.04418945 C59.13595371 49.80325749 6.70549057 37.79388111 -44.79711914 23.41015625 C-67.33518483 17.11751085 -89.54107105 15.80367242 -112.79345703 18.24902344 C-113.50985877 14.19297017 -114.22180741 10.13616272 -114.9296875 6.07861328 C-115.1709851 4.69916835 -115.41348601 3.31993334 -115.65722656 1.94091797 C-116.0079068 -0.0443616 -116.35386386 -2.03047364 -116.69970703 -4.01660156 C-116.90917969 -5.2105957 -117.11865234 -6.40458984 -117.33447266 -7.63476562 C-117.79345703 -10.75097656 -117.79345703 -10.75097656 -117.79345703 -14.75097656 C-77.99092386 -22.54906051 -38.19680914 -10.26860557 0 0 Z " fill="#FEFDFD" transform="translate(234.79345703125,343.7509765625)"/>
<path d="M0 0 C1.084021 0.00523682 2.16804199 0.01047363 3.28491211 0.01586914 C4.45473633 0.0190918 5.62456055 0.02231445 6.82983398 0.02563477 C8.0615332 0.03401367 9.29323242 0.04239258 10.56225586 0.05102539 C12.41560547 0.05779297 12.41560547 0.05779297 14.30639648 0.06469727 C17.37089703 0.07652931 20.43530307 0.09301366 23.49975586 0.11352539 C21.17205431 11.93203388 18.76033462 23.72439038 16.15231323 35.48425293 C15.39419308 38.90335857 14.64088495 42.32352097 13.88713074 45.74359131 C13.46416937 47.66262263 13.04099684 49.58160741 12.61763 51.50054932 C9.69538095 64.74963759 6.79703819 78.00397193 3.8978157 91.25811386 C3.43657442 93.36664052 2.97523844 95.47514645 2.5138855 97.58364868 C-0.78996731 112.68409853 -4.08896294 127.7855363 -7.34777832 142.89578247 C-7.80587686 145.01919368 -8.26472655 147.14244101 -8.72387695 149.265625 C-8.87278381 149.95424118 -9.02169067 150.64285736 -9.17510986 151.3523407 C-9.47403044 152.73460011 -9.7729804 154.11685318 -10.07196045 155.49909973 C-10.93516346 159.49200627 -11.79521779 163.48557302 -12.65258789 167.47973633 C-13.66788128 172.20805745 -14.68948951 176.93498116 -15.71469116 181.66116333 C-16.10767625 183.47797489 -16.49854921 185.29524484 -16.88711548 187.11300659 C-17.42571611 189.63135872 -17.97190598 192.14795706 -18.51977539 194.66430664 C-18.67571167 195.402164 -18.83164795 196.14002136 -18.99230957 196.90023804 C-20.08037642 201.84753756 -21.46427566 206.46512619 -23.50024414 211.11352539 C-26.61743164 212.95336914 -26.61743164 212.95336914 -30.37524414 214.05102539 C-31.03274658 214.24720459 -31.69024902 214.44338379 -32.36767578 214.64550781 C-38.67145377 216.40996061 -44.97378928 216.92049028 -51.50024414 217.11352539 C-50.27925606 209.27792236 -48.7749755 201.57636517 -46.93774414 193.86352539 C-46.40275651 191.5812387 -45.86898589 189.29866653 -45.33618164 187.01586914 C-44.89870605 185.1419751 -44.89870605 185.1419751 -44.45239258 183.23022461 C-42.61269691 175.30536317 -40.84410561 167.36415191 -39.06274414 159.42602539 C-38.67216365 157.68716448 -38.28153859 155.94831358 -37.89086914 154.20947266 C-37.12146765 150.78463052 -36.3522927 147.35973761 -35.58325195 143.93481445 C-31.6506881 126.42444683 -27.69030404 108.92052397 -23.68774414 91.42602539 C-23.35707731 89.98022896 -23.02642969 88.53442815 -22.69580078 87.08862305 C-22.52886215 86.35862091 -22.36192352 85.62861877 -22.18992615 84.87649536 C-21.48359505 81.78763119 -20.77734555 78.69874837 -20.07110596 75.60986328 C-19.6789135 73.89483371 -19.2866144 72.17982852 -18.89422607 70.46484375 C-17.38518287 63.86918923 -15.8789199 57.27290565 -14.37524414 50.67602539 C-14.16226685 49.74226074 -13.94928955 48.80849609 -13.7298584 47.84643555 C-10.77818169 34.89357793 -7.90214104 21.92854738 -5.21264648 8.91845703 C-4.99688965 7.8858374 -4.78113281 6.85321777 -4.55883789 5.78930664 C-4.37635498 4.90154541 -4.19387207 4.01378418 -4.00585938 3.09912109 C-3.26194356 0.17769796 -3.08369098 0.14001722 0 0 Z " fill="#F2CF25" transform="translate(295.500244140625,41.886474609375)"/>
<path d="M0 0 C8.07446864 2.35217355 16.18783288 4.45078041 24.375 6.375 C25.39907959 6.6210498 26.42315918 6.86709961 27.47827148 7.12060547 C41.88642228 10.43842994 56.08245218 11.53345293 70.8125 11.5 C71.98823074 11.50067978 71.98823074 11.50067978 73.18771362 11.50137329 C85.57289088 11.48041005 97.07922873 10.43199238 109.0625 7.125 C110.01898438 6.90972656 110.97546875 6.69445312 111.9609375 6.47265625 C124.3239774 3.56258686 136.44554967 -1.79655177 148.0625 -6.875 C147.77979594 -4.45697805 147.48670736 -2.0409878 147.1875 0.375 C147.10886719 1.05691406 147.03023437 1.73882812 146.94921875 2.44140625 C146.05285088 9.54339783 146.05285088 9.54339783 144.0625 12.125 C129.37906562 20.99710331 110.93958113 26.64588074 94.0625 29.125 C93.43722412 29.2185376 92.81194824 29.3120752 92.16772461 29.40844727 C85.4679979 30.29062883 78.76737379 30.31112037 72.01782227 30.31030273 C70.02811559 30.31246938 68.03844823 30.33092288 66.04882812 30.34960938 C50.68636618 30.37234612 36.34802934 28.00339223 21.5 24.25 C20.11022506 23.90674527 18.72025083 23.56429644 17.33007812 23.22265625 C9.38659547 21.2607156 1.47779306 19.18197643 -6.42504883 17.0625 C-35.45707207 9.31363163 -66.78822444 2.70035254 -96.9375 8.125 C-97.2675 8.785 -97.5975 9.445 -97.9375 10.125 C-98.27558686 8.06327387 -98.60777361 6.0005797 -98.9375 3.9375 C-99.123125 2.78894531 -99.30875 1.64039063 -99.5 0.45703125 C-99.87239477 -2.37915393 -100.02346021 -5.02219564 -99.9375 -7.875 C-73.72720998 -23.35402984 -26.84203759 -7.82266549 0 0 Z " fill="#E33733" transform="translate(213.9375,320.875)"/>
<path d="M0 0 C47.13713339 13.61001739 94.02019185 16.57942326 140.3125 -1.9375 C139.3225 4.6625 138.3325 11.2625 137.3125 18.0625 C136.9825 17.0725 136.6525 16.0825 136.3125 15.0625 C135.343125 15.44921875 134.37375 15.8359375 133.375 16.234375 C123.83302432 19.97153855 114.34754801 22.94998227 104.3125 25.0625 C103.62978027 25.21348145 102.94706055 25.36446289 102.24365234 25.52001953 C68.34147917 32.80329057 35.14100323 25.80164416 2.3125 17.0625 C1.53165039 16.85592773 0.75080078 16.64935547 -0.05371094 16.43652344 C-3.06350312 15.63960105 -6.0710724 14.83453644 -9.078125 14.02734375 C-10.26921875 13.70894531 -11.4603125 13.39054687 -12.6875 13.0625 C-13.42806641 12.86414551 -14.16863281 12.66579102 -14.93164062 12.46142578 C-20.82789197 10.89486343 -26.74183424 9.42969774 -32.6875 8.0625 C-33.41291992 7.89298828 -34.13833984 7.72347656 -34.88574219 7.54882812 C-46.4297115 4.96922997 -57.9138137 4.80223002 -69.6875 4.8125 C-70.45604309 4.81309418 -71.22458618 4.81368835 -72.01641846 4.81430054 C-80.47856727 4.55908728 -80.47856727 4.55908728 -88.6875 6.0625 C-89.3475 0.7825 -90.0075 -4.4975 -90.6875 -9.9375 C-60.05697436 -16.20970468 -29.44529767 -8.62683055 0 0 Z " fill="#E33733" transform="translate(212.6875,371.9375)"/>
<path d="M0 0 C2.03197086 17.5062105 2.96825046 35.06774442 3.93328857 52.65686035 C4.19030491 57.31763374 4.45456592 61.97800353 4.71807957 66.63841343 C4.92939559 70.38923012 5.1360574 74.14019064 5.33226013 77.89183044 C5.64902792 83.92041726 5.97091445 89.94179074 6.49047852 95.95727539 C7.4688556 107.85290385 5.82511327 117.92953562 2.8125 129.4375 C2.12416866 132.19509914 1.44564744 134.95501508 0.76693726 137.71499634 C0.28558684 139.66827352 -0.19914842 141.62071939 -0.68710327 143.57235718 C-2.66616331 151.5136103 -4.49115039 159.48426157 -6.26953125 167.47265625 C-6.53944382 168.68320175 -6.80935638 169.89374725 -7.08744812 171.14097595 C-8.1585531 175.9522252 -9.22707726 180.76402892 -10.28988647 185.57711792 C-11.03130041 188.92771441 -11.780516 192.27648146 -12.53125 195.625 C-12.75170486 196.6323671 -12.97215973 197.63973419 -13.19929504 198.67762756 C-13.40745346 199.60127609 -13.61561188 200.52492462 -13.83007812 201.4765625 C-14.00865356 202.28174316 -14.187229 203.08692383 -14.37121582 203.91650391 C-15 206 -15 206 -17 209 C-17.14056121 196.82500091 -16.7552052 184.69704381 -16.25921631 172.5333786 C-16.12145478 169.14723427 -15.98814862 165.76093888 -15.85595703 162.37457275 C-15.47979358 152.7566294 -15.09640594 143.13898047 -14.70898438 133.52148438 C-14.20415773 120.94652455 -13.724559 108.37164218 -13.31468201 95.79319 C-13.1364555 90.4532946 -12.91426725 85.12103854 -12.60620117 79.78705978 C-12.4280061 76.55232234 -12.31317352 73.31526546 -12.1875 70.078125 C-12.10290527 69.00721619 -12.01831055 67.93630737 -11.93115234 66.83294678 C-11.85325441 63.83368788 -11.87712099 61.78646337 -13 59 C-15.67764858 56.78271484 -18.30091151 55.24315001 -21.42700195 53.72772217 C-24.70762842 51.52484017 -25.13162936 49.78185299 -26 46 C-26.39477539 43.69262695 -26.39477539 43.69262695 -26.59765625 41.48828125 C-26.6764502 40.65643311 -26.75524414 39.82458496 -26.83642578 38.9675293 C-26.91103027 38.09136963 -26.98563477 37.21520996 -27.0625 36.3125 C-27.14483887 35.40218018 -27.22717773 34.49186035 -27.31201172 33.55395508 C-28.11192966 24.38182663 -28.60057986 15.1971743 -29 6 C-25.03095938 5.14420762 -21.06163574 4.28974204 -17.09204102 3.43652344 C-15.74072482 3.14587586 -14.38948754 2.85486114 -13.03833008 2.56347656 C-11.0999785 2.14552617 -9.16132197 1.72899084 -7.22265625 1.3125 C-6.05484619 1.06113281 -4.88703613 0.80976562 -3.68383789 0.55078125 C-1 0 -1 0 0 0 Z " fill="#F2CF26" transform="translate(253,50)"/>
<path d="M0 0 C-0.5200031 9.82545246 -2.11187011 19.40558071 -3.84643555 29.07348633 C-4.31309761 31.69085179 -4.7613138 34.31096875 -5.20898438 36.93164062 C-9.29549691 60.22811168 -9.29549691 60.22811168 -18.1953125 66.5625 C-28.33780277 73.01399228 -37.27031243 73.28853721 -49.04492188 73.22705078 C-50.5633239 73.22648594 -52.08172647 73.22680465 -53.60012817 73.22793579 C-57.70287778 73.22850745 -61.80550943 73.21678344 -65.90823174 73.20278788 C-70.20301585 73.19024935 -74.49780294 73.18910756 -78.79260254 73.18673706 C-86.91678497 73.18053145 -95.04091331 73.1641331 -103.16507196 73.14403808 C-112.41779451 73.12165044 -121.67051969 73.11067845 -130.9232626 73.10064721 C-149.94887235 73.07976603 -168.97443182 73.04460798 -188 73 C-188 72.67 -188 72.34 -188 72 C-187.43438827 72.00129882 -186.86877653 72.00259764 -186.28602505 72.00393581 C-172.50545537 72.03317327 -158.72538834 72.02327983 -144.94487667 71.97153378 C-138.28051769 71.94768664 -131.61677879 71.93673861 -124.95239258 71.95532227 C-118.52004022 71.97278346 -112.08858639 71.95629244 -105.65634346 71.91632271 C-103.20319735 71.90703314 -100.74997347 71.90994916 -98.29685783 71.92530632 C-94.85827936 71.94474162 -91.42253674 71.92066535 -87.98413086 71.88647461 C-86.97136581 71.9022908 -85.95860077 71.91810699 -84.91514587 71.93440247 C-79.72640094 71.83521955 -76.76363904 71.36879725 -72.98683167 67.65504456 C-71.96074837 66.46224711 -70.96319859 65.24413068 -70 64 C-69.50750731 63.4044226 -69.01501463 62.8088452 -68.50759792 62.19521999 C-57.56344988 48.84725272 -50.3253 33.7361563 -44.41015625 17.6328125 C-43 14 -43 14 -41 11 C-38.71606445 10.18798828 -38.71606445 10.18798828 -35.86328125 9.5703125 C-34.81720703 9.3345752 -33.77113281 9.09883789 -32.69335938 8.85595703 C-31.57767578 8.61474121 -30.46199219 8.37352539 -29.3125 8.125 C-20.51554391 6.13197893 -11.99839219 3.89898294 -3.5 0.8828125 C-1 0 -1 0 0 0 Z " fill="#C52C28" transform="translate(348,393)"/>
<path d="M0 0 C-1.32124792 7.65635814 -2.89693989 15.22172552 -4.66699219 22.78613281 C-4.92764969 23.90790924 -5.18830719 25.02968567 -5.4568634 26.18545532 C-7.84898674 36.44024484 -10.30383802 46.68009611 -12.78228378 56.91432571 C-14.44227789 63.77412603 -16.07983161 70.63778035 -17.66357422 77.515625 C-19.20146312 84.19422623 -20.79988269 90.85593865 -22.43631744 97.51107025 C-23.04795749 100.04034214 -23.63954817 102.57455306 -24.21022797 105.11338043 C-28.93788005 126.0435099 -28.93788005 126.0435099 -34.46960449 130.01721191 C-37.81484219 131.88695106 -41.34424345 132.87781235 -45 134 C-47.52708079 136.07408128 -49.24921935 138.25458982 -51 141 C-51.48082031 141.7321875 -51.96164062 142.464375 -52.45703125 143.21875 C-53.67603789 145.12617637 -54.85416441 147.04802344 -56 149 C-57.1308343 145.60749711 -56.84589491 144.51200366 -55.99609375 141.1171875 C-55.7530249 140.12734863 -55.50995605 139.13750977 -55.25952148 138.11767578 C-54.98825439 137.04759277 -54.7169873 135.97750977 -54.4375 134.875 C-53.87470254 132.59903187 -53.31221115 130.32298803 -52.75 128.046875 C-52.45867187 126.87833984 -52.16734375 125.70980469 -51.8671875 124.50585938 C-50.77758724 120.10083129 -49.72971272 115.68651248 -48.68359375 111.27099609 C-46.5154375 102.12869848 -44.24784231 93.02335052 -41.82177734 83.94628906 C-39.60799368 75.61849856 -37.64443587 67.23434248 -35.67236328 58.84667969 C-34.46325917 53.7275243 -33.23029972 48.61409483 -32 43.5 C-30.50564937 37.28588774 -29.01454967 31.07111194 -27.54296875 24.8515625 C-27.31416016 23.88541016 -27.08535156 22.91925781 -26.84960938 21.92382812 C-26.41874206 20.10249224 -25.9889952 18.28089081 -25.56054688 16.45898438 C-25.2734082 15.2456543 -25.2734082 15.2456543 -24.98046875 14.0078125 C-24.73139771 12.95037842 -24.73139771 12.95037842 -24.47729492 11.87158203 C-24.0579729 10.22732492 -23.53660157 8.6098047 -23 7 C-20.99047852 6.0168457 -20.99047852 6.0168457 -18.37890625 5.17578125 C-17.44369141 4.86962891 -16.50847656 4.56347656 -15.54492188 4.24804688 C-14.06862305 3.78495117 -14.06862305 3.78495117 -12.5625 3.3125 C-11.58216797 2.99216797 -10.60183594 2.67183594 -9.59179688 2.34179688 C-2.33672042 0 -2.33672042 0 0 0 Z " fill="#F2CE25" transform="translate(362,78)"/>
<path d="M0 0 C0.16137613 15.87480637 -0.33901796 31.67418919 -1.05859375 47.53125 C-1.16864104 50.02598593 -1.27833971 52.52073726 -1.38771057 55.01550293 C-1.61606309 60.20252356 -1.84744959 65.38939621 -2.08129883 70.57617188 C-2.37956561 77.19360863 -2.67186269 83.81129201 -2.96211147 90.42908478 C-3.18771246 95.56465412 -3.41558193 100.70012075 -3.64421272 105.83555603 C-3.75273309 108.27536359 -3.86076879 110.71519277 -3.96829033 113.15504456 C-5.04293853 137.45688333 -5.04293853 137.45688333 -6 148 C-8.23310552 146.92424145 -10.46124501 145.83977517 -12.6875 144.75 C-13.31333984 144.44964844 -13.93917969 144.14929688 -14.58398438 143.83984375 C-15.19951172 143.53691406 -15.81503906 143.23398438 -16.44921875 142.921875 C-17.28972778 142.51340332 -17.28972778 142.51340332 -18.1472168 142.09667969 C-18.75863525 141.73477539 -19.37005371 141.37287109 -20 141 C-20.89001709 140.51490967 -21.78003418 140.02981934 -22.69702148 139.5300293 C-26.2938088 135.57863452 -25.58809829 131.75078414 -25.3984375 126.59765625 C-25.37824554 125.54256363 -25.35805359 124.48747101 -25.33724976 123.40040588 C-25.25810362 119.93172447 -25.13502522 116.46693613 -25 113 C-24.95685669 111.83507019 -24.91371338 110.67014038 -24.8692627 109.46990967 C-24.53318881 100.7881002 -24.08852012 92.11329535 -23.625 83.4375 C-23.52151817 81.44292822 -23.41803852 79.44835629 -23.31502724 77.45376015 C-21.27562491 38.01343807 -21.27562491 38.01343807 -20.19946289 24.57910156 C-20.07290958 22.9427378 -19.97722344 21.30345934 -19.92358398 19.66308594 C-19.69530914 15.75836076 -19.11848471 14.13341046 -16.48828125 11.171875 C-15.44027344 10.37265625 -14.39226562 9.5734375 -13.3125 8.75 C-12.27738281 7.94046875 -11.24226562 7.1309375 -10.17578125 6.296875 C-1.46938776 0 -1.46938776 0 0 0 Z " fill="#F2CF25" transform="translate(211,105)"/>
<path d="M0 0 C3.16024858 3.71259291 5.51536783 7.48170646 7.75 11.8125 C8.36359375 12.97394531 8.9771875 14.13539062 9.609375 15.33203125 C12.24542761 22.28499025 10.90283176 28.53966381 9.05078125 35.49023438 C8.73793182 36.71422943 8.73793182 36.71422943 8.41876221 37.96295166 C7.96422043 39.738665 7.50556034 41.51332816 7.04324341 43.28703308 C5.76239232 48.20666201 4.51594127 53.13503908 3.265625 58.0625 C2.99959976 59.10799767 2.73357452 60.15349533 2.45948792 61.23067474 C-0.62881716 73.40567588 -3.53708364 85.62287984 -6.4375 97.84375 C-6.98119088 100.13110596 -7.52489208 102.41845947 -8.06860352 104.70581055 C-9.4375647 110.46866385 -10.80387951 116.23214157 -12.16949463 121.99578857 C-14.38957971 131.36315424 -16.61460087 140.72934909 -18.83914185 150.09565735 C-19.60380253 153.31695121 -20.36732613 156.53851274 -21.13061523 159.76013184 C-22.23033681 164.40014318 -23.33604878 169.03868638 -24.44614601 173.67622566 C-24.94540661 175.77094554 -25.4372075 177.86725229 -25.92692566 179.96421814 C-26.1846022 181.04393387 -26.44227875 182.1236496 -26.70776367 183.23608398 C-26.91390793 184.11328598 -27.12005219 184.99048798 -27.33244324 185.89427185 C-28.30360893 188.95769813 -29.79308523 190.61745958 -32.3125 192.5625 C-33.10140625 193.18253906 -33.8903125 193.80257812 -34.703125 194.44140625 C-37.4085353 196.27722038 -39.97679683 197.75971152 -43 199 C-42.3875205 193.60611974 -41.5299118 188.34292037 -40.36328125 183.0390625 C-40.20344254 182.29985565 -40.04360382 181.5606488 -39.87892151 180.79904175 C-39.36041971 178.40688678 -38.83662651 176.0159283 -38.3125 173.625 C-37.94859891 171.95250258 -37.58483067 170.27997624 -37.22119141 168.60742188 C-34.94898357 158.186137 -32.58308741 147.78941105 -30.1496582 137.40454102 C-28.022428 128.25723475 -26.12468985 119.06809686 -24.24511719 109.8671875 C-22.38761291 100.79890462 -20.41831518 91.76058403 -18.390625 82.72900391 C-16.38431081 73.77686102 -14.44422363 64.81153292 -12.5168457 55.84216309 C-9.33918979 41.05788253 -6.0464001 26.30804189 -2.59863281 11.58398438 C-1.70543086 7.72849926 -0.85093953 3.86501508 0 0 Z " fill="#C4912F" transform="translate(324,49)"/>
<path d="M0 0 C3.38004053 1.65412003 6.51537108 3.53386215 9.6875 5.5625 C10.66074219 6.18253906 11.63398438 6.80257812 12.63671875 7.44140625 C15 9 15 9 16 10 C16.27894424 13.44489499 16.1869482 16.91663785 16.18359375 20.37109375 C16.18258163 21.53934189 16.18156952 22.70759003 16.18052673 23.91123962 C16.05249028 44.1592227 15.04224671 64.39652362 14.20404053 84.62451172 C14.01480669 89.2209601 13.83067242 93.81760644 13.6467371 98.41426945 C13.42399138 103.97547753 13.19849617 109.53657309 12.97265625 115.09765625 C12.93102922 116.12714952 12.8894022 117.1566428 12.84651375 118.21733284 C12.33466962 130.8183475 11.74177342 143.41033565 11 156 C-1.890625 154.06640625 -1.890625 154.06640625 -6 153 C-6.24152848 136.98012863 -5.53207244 121.01290493 -4.78842545 105.01501679 C-4.61714793 101.3103382 -4.45082912 97.60543668 -4.28393555 93.90055847 C-3.96861745 86.91700354 -3.6489799 79.93365362 -3.32770443 72.95037049 C-2.96153344 64.98651188 -2.60030862 57.02243118 -2.23945427 49.05833018 C-1.49838804 32.70530409 -0.75125659 16.35256118 0 0 Z " fill="#C5922F" transform="translate(218,103)"/>
<path d="M0 0 C-0.79191933 5.88926706 -1.82268766 11.72149831 -2.890625 17.56640625 C-3.27188608 19.66803631 -3.65306792 21.76968075 -4.03417969 23.87133789 C-4.23281616 24.96431183 -4.43145264 26.05728577 -4.6361084 27.18338013 C-7.44180168 42.62710652 -10.2333532 58.06873666 -12.75 73.5625 C-14.3352708 83.29877192 -16.10053996 92.97661959 -18.13256836 102.63012695 C-19.30833868 108.2708132 -20.31037306 113.89944932 -21.14453125 119.6015625 C-21.34046875 120.87563965 -21.53640625 122.1497168 -21.73828125 123.46240234 C-22.11235954 125.92985586 -22.4588461 128.40170037 -22.7734375 130.87744141 C-24.038295 139.00415083 -24.038295 139.00415083 -26.73974609 141.80151367 C-28.77949006 143.11243117 -30.75773831 144.08465053 -33 145 C-34.051875 145.52207031 -35.10375 146.04414063 -36.1875 146.58203125 C-38.79166667 147.72135417 -41.39583333 148.86067708 -44 150 C-42.74584718 139.33606052 -41.24083608 128.73454139 -39.50537109 118.13842773 C-39.12817157 115.83189379 -38.75713691 113.52442841 -38.38671875 111.21679688 C-37.09497278 103.23789712 -35.6939445 95.28989829 -34.15234375 87.35546875 C-32.54280563 79.06254039 -31.07570204 70.7487458 -29.66139221 62.42055702 C-29.30881449 60.34504943 -28.95473768 58.26980285 -28.60021973 56.19462585 C-27.14426575 47.66890493 -27.14426575 47.66890493 -25.70629883 39.14013672 C-25.11414006 35.60656673 -24.51187848 32.07484865 -23.90287971 28.54414368 C-23.56608659 26.57505743 -23.24012501 24.60412829 -22.91441345 22.63317871 C-22.70732254 21.44003052 -22.50023163 20.24688232 -22.28686523 19.01757812 C-22.11017807 17.97283325 -21.93349091 16.92808838 -21.75144958 15.85168457 C-20.76311182 12.10103037 -19.39995769 9.02540508 -16.22241211 6.69799805 C-15.25960327 6.23453979 -15.25960327 6.23453979 -14.27734375 5.76171875 C-13.22256836 5.24448242 -13.22256836 5.24448242 -12.14648438 4.71679688 C-11.05303711 4.20729492 -11.05303711 4.20729492 -9.9375 3.6875 C-9.20466797 3.32849609 -8.47183594 2.96949219 -7.71679688 2.59960938 C-2.32446429 0 -2.32446429 0 0 0 Z " fill="#D12E2A" transform="translate(404,218)"/>
<path d="M0 0 C1.64207591 1.40260651 3.2818281 2.80801896 4.91015625 4.2265625 C6.32389208 5.42625608 7.77111737 6.58739028 9.24609375 7.7109375 C9.96925781 8.28070313 10.69242187 8.85046875 11.4375 9.4375 C12.45650391 10.20900391 12.45650391 10.20900391 13.49609375 10.99609375 C15.73201226 13.97538257 15.18559531 16.33549993 15 20 C14.36767578 23.10864258 14.36767578 23.10864258 13.4453125 26.39453125 C13.08229885 27.72113104 12.71952127 29.04779544 12.35693359 30.37451172 C12.15767273 31.09121033 11.95841187 31.80790894 11.75311279 32.54632568 C5.79862532 54.02957954 0.62159862 75.71121084 -4.625 97.375 C-5.04194799 99.09543425 -5.45891977 100.81586273 -5.87591553 102.5362854 C-8.25563901 112.35631088 -10.63034073 122.17754107 -13 132 C-17.16560871 131.22652008 -20.86461872 129.99272596 -24.8125 128.4375 C-25.97394531 127.98246094 -27.13539063 127.52742188 -28.33203125 127.05859375 C-29.65267578 126.53458984 -29.65267578 126.53458984 -31 126 C-30.3836754 118.90250428 -28.98689165 112.2452424 -27.24023438 105.34570312 C-26.95884109 104.21458099 -26.67744781 103.08345886 -26.38752747 101.9180603 C-25.46203055 98.20432378 -24.52809828 94.49276859 -23.59375 90.78125 C-22.94697517 88.19586218 -22.3005951 85.61037849 -21.65466309 83.02478027 C-20.3036149 77.62064094 -18.94795684 72.21767478 -17.58935547 66.81542969 C-16.01759776 60.56542447 -14.45252797 54.3137742 -12.89111662 48.06117678 C-11.3871764 42.039122 -9.87923661 36.01807637 -8.36921692 29.99754333 C-7.72716469 27.43638479 -7.08604137 24.87499321 -6.44584656 22.31336975 C-5.55399118 18.74773522 -4.65755714 15.18328441 -3.75976562 11.61914062 C-3.49376053 10.55218964 -3.22775543 9.48523865 -2.95368958 8.38595581 C-2.7097496 7.42154572 -2.46580963 6.45713562 -2.21447754 5.46350098 C-2.00284218 4.62068825 -1.79120682 3.77787552 -1.57315826 2.90952301 C-1 1 -1 1 0 0 Z " fill="#C4912F" transform="translate(369,80)"/>
<path d="M0 0 C0.23866287 0.64970261 0.47732574 1.29940521 0.72322083 1.96879578 C3.50683545 9.54549463 6.2928131 17.12132295 9.08008194 24.69667816 C9.80871745 26.67721847 10.53711017 28.65784795 11.26547241 30.63848877 C17.97788125 48.91626004 17.97788125 48.91626004 24.84375 67.13671875 C25.10991623 67.83329086 25.37608246 68.52986298 25.65031433 69.24754333 C26.80914827 72.27362386 27.97664988 75.29608793 29.15356445 78.31518555 C29.5424585 79.32234619 29.93135254 80.32950684 30.33203125 81.3671875 C30.65921143 82.20362793 30.9863916 83.04006836 31.32348633 83.90185547 C32 86 32 86 32 89 C28.92335374 90.20536243 25.83781732 91.38608194 22.75 92.5625 C21.87730469 92.90474609 21.00460938 93.24699219 20.10546875 93.59960938 C18.83896484 94.07817383 18.83896484 94.07817383 17.546875 94.56640625 C16.77182617 94.86490479 15.99677734 95.16340332 15.19824219 95.47094727 C12.51487547 96.11675532 11.43977374 96.36057684 9 95 C7.78100779 92.45679282 6.86941652 90.11812544 6.00390625 87.453125 C5.73368652 86.66627823 5.4634668 85.87943146 5.18505859 85.06874084 C4.29544751 82.46745555 3.42886691 79.8591097 2.5625 77.25 C1.95266417 75.44892928 1.34123691 73.64839669 0.72827148 71.84838867 C-0.2209319 69.06011821 -1.16878012 66.27145863 -2.11045837 63.4806366 C-4.28187297 57.05476131 -6.53523226 50.66295526 -8.84375 44.28515625 C-9.45399624 42.59021925 -10.06410634 40.89523322 -10.67407227 39.20019531 C-11.54969993 36.76791298 -12.42849041 34.33706689 -13.318573 31.91003418 C-14.13899204 29.66915456 -14.9440716 27.42329839 -15.74609375 25.17578125 C-15.99117676 24.51917007 -16.23625977 23.8625589 -16.48876953 23.18605042 C-17.81349315 19.42265633 -18.34322806 16.80708244 -17 13 C-14.85546875 10.68359375 -14.85546875 10.68359375 -12.1875 8.4375 C-8.39696968 5.21579855 -8.39696968 5.21579855 -4.86328125 1.72265625 C-3 0 -3 0 0 0 Z " fill="#F2CF26" transform="translate(110,116)"/>
<path d="M0 0 C4.62 1.65 9.24 3.3 14 5 C10.91342223 25.03937234 7.71513612 45.05764335 4.27954102 65.04046631 C3.92694088 67.09433367 3.57651202 69.14857499 3.22827148 71.20318604 C2.73679567 74.09755631 2.23684104 76.99033254 1.734375 79.8828125 C1.58873108 80.747854 1.44308716 81.61289551 1.29302979 82.50415039 C1.15217957 83.30344971 1.01132935 84.10274902 0.86621094 84.92626953 C0.74663025 85.61995636 0.62704956 86.31364319 0.50384521 87.02835083 C-0.26178839 90.02443142 -1.09024901 92.39119771 -3.70483398 94.14086914 C-4.37844971 94.43598389 -5.05206543 94.73109863 -5.74609375 95.03515625 C-6.49648926 95.36837891 -7.24688477 95.70160156 -8.02001953 96.04492188 C-8.81778809 96.38072266 -9.61555664 96.71652344 -10.4375 97.0625 C-11.24558105 97.41248047 -12.05366211 97.76246094 -12.88623047 98.12304688 C-18.79357859 100.62797948 -24.71082813 102.67013106 -31 104 C-30.4158295 99.14709909 -29.41996381 94.74295008 -27.91015625 90.09765625 C-27.45643044 88.68269905 -27.00352288 87.2674793 -26.55126953 85.85205078 C-26.1794455 84.69446259 -26.1794455 84.69446259 -25.80010986 83.51348877 C-24.28959345 78.76830787 -22.83325921 74.00634999 -21.37109375 69.24609375 C-20.89248398 67.68865952 -20.89248398 67.68865952 -20.40420532 66.09976196 C-19.74709198 63.96056912 -19.09030629 61.82127561 -18.43383789 59.68188477 C-17.76895581 57.51682279 -17.10293777 55.35210935 -16.43579102 53.18774414 C-13.04022075 42.17065374 -9.69462109 31.16630076 -6.79858398 20.0065918 C-5.78047457 16.1735079 -4.59075481 12.44161745 -3.3125 8.6875 C-2.68794922 6.83705078 -2.68794922 6.83705078 -2.05078125 4.94921875 C-1 2 -1 2 0 0 Z " fill="#C72C28" transform="translate(363,222)"/>
<path d="M0 0 C3.35270166 0.94160983 6.67495624 1.96544155 10 3 C10.9075 3.24363281 11.815 3.48726563 12.75 3.73828125 C19.29428663 5.79310934 19.29428663 5.79310934 21.20526123 9.061203 C21.6349118 10.27070366 21.6349118 10.27070366 22.07324219 11.50463867 C22.39804565 12.39992279 22.72284912 13.29520691 23.05749512 14.21762085 C23.52403503 15.59489853 23.52403503 15.59489853 24 17 C24.29136841 17.83882721 24.58273682 18.67765442 24.88293457 19.54190063 C26.76917512 25.0881604 28.52007417 30.67996084 30.28320312 36.26635742 C30.92684613 38.2943205 31.57852704 40.31975028 32.23828125 42.3425293 C39.09264101 63.36472779 39.09264101 63.36472779 38 75 C37.89890778 77.01048719 37.79811346 79.02099672 37.7038269 81.03181458 C37.56228656 83.88481477 37.38252718 86.73478986 37.20043945 89.58544922 C37.06179103 91.7611252 36.92986542 93.93713488 36.79882812 96.11328125 C36.3697815 103.09848224 35.8645352 110.05256399 35 117 C32.73527182 113.60290772 31.75782412 110.2605986 30.64453125 106.38671875 C30.42216293 105.629319 30.19979462 104.87191925 29.97068787 104.09156799 C29.49439228 102.46804336 29.02030727 100.84386888 28.54821777 99.21911621 C27.31482914 94.97500691 26.06573354 90.73553386 24.81640625 86.49609375 C24.57107147 85.6625235 24.32573669 84.82895325 24.07296753 83.97012329 C22.22179042 77.70015814 20.27495427 71.46611108 18.25 65.25 C15.50932428 56.7971621 13.06712712 48.28050364 10.7097168 39.71337891 C8.11202838 30.29666686 5.33031075 20.9388027 2.48852539 11.59301758 C2.16360107 10.5130249 1.83867676 9.43303223 1.50390625 8.3203125 C1.21330322 7.36398926 0.9227002 6.40766602 0.62329102 5.42236328 C0 3 0 3 0 0 Z " fill="#C4912F" transform="translate(146,75)"/>
<path d="M0 0 C1.68593046 3.37186091 0.12019649 6.97763568 -0.6484375 10.53515625 C-1.02902608 12.36432948 -1.40750847 14.19394186 -1.78417969 16.02392578 C-1.98458862 16.99694641 -2.18499756 17.96996704 -2.39147949 18.97247314 C-3.42487772 24.11386254 -4.3586178 29.27273312 -5.2890625 34.43359375 C-5.48054871 35.49526764 -5.67203491 36.55694153 -5.86932373 37.65078735 C-6.25938612 39.81937521 -6.64864453 41.98810783 -7.03710938 44.15698242 C-7.62879299 47.45866543 -8.22435807 50.75963236 -8.8203125 54.06054688 C-9.20614199 56.20565495 -9.59156733 58.35083577 -9.9765625 60.49609375 C-10.16088837 61.52216736 -10.34521423 62.54824097 -10.53512573 63.60540771 C-11.4848451 68.94006435 -12.35346723 74.27137539 -13.109375 79.63671875 C-14.46530775 88.71028208 -18.33997209 96.84312228 -25.65625 102.59765625 C-31.99635159 106.39115037 -38.63303193 108.27325549 -46 108 C-44.948125 107.01 -44.948125 107.01 -43.875 106 C-33.24828975 95.16256178 -30.81989443 82.68544794 -28.4921875 67.9921875 C-28.16885256 66.02476512 -27.84551745 64.05734276 -27.52217293 62.08992195 C-27.07796996 59.37244244 -26.64225256 56.65362748 -26.20629883 53.93481445 C-25.54674427 49.83410566 -24.87451576 45.7354591 -24.2042408 41.63649178 C-23.68261766 38.44507012 -23.16336755 35.25330442 -22.64865112 32.0607605 C-22.27971738 29.77701633 -21.90578616 27.49407199 -21.52606201 25.21209717 C-21.17653641 23.07791876 -20.84666306 20.94042497 -20.53692627 18.80010986 C-20.38439392 17.8156488 -20.23186157 16.83118774 -20.07470703 15.81689453 C-19.94919464 14.9525882 -19.82368225 14.08828186 -19.69436646 13.19778442 C-18.85213939 10.53199677 -17.87060474 9.70316716 -15.5625 8.1875 C-14.05451533 7.4321191 -12.53179401 6.70585068 -11 6 C-8.99540826 4.90419164 -6.99547802 3.79981807 -5 2.6875 C-3.33465617 1.78920992 -1.66845395 0.89250018 0 0 Z " fill="#D02E2A" transform="translate(378,358)"/>
<path d="M0 0 C4.05662137 0.76061651 8.03261997 1.6710232 12 2.8125 C13.794375 3.28623047 13.794375 3.28623047 15.625 3.76953125 C20.50471593 6.18367801 21.61256061 11.11108636 23.2956543 15.97384644 C24.07203899 18.20723071 24.886091 20.42471335 25.70507812 22.64282227 C27.38465483 27.21009176 29.03287111 31.78808968 30.67358398 36.3694458 C32.53108486 41.55593456 34.39753932 46.73919065 36.265625 51.921875 C36.84328613 53.52471848 36.84328613 53.52471848 37.43261719 55.15994263 C40.20408103 62.83420809 43.01896564 70.49162882 45.859375 78.140625 C46.25106873 79.19589386 46.64276245 80.25116272 47.04632568 81.33840942 C48.93520567 86.42348019 50.82950557 91.50647175 52.72949219 96.58740234 C53.41350486 98.42542097 54.09742896 100.26347257 54.78125 102.1015625 C55.09398865 102.93278625 55.40672729 103.76401001 55.72894287 104.62042236 C57.12950378 108.39368199 58.385374 112.00191812 59 116 C55.41172905 112.56938594 52.44899551 109.03389034 49.5625 105 C44.32113142 97.55283945 44.32113142 97.55283945 36.5378418 93.37744141 C32.715998 91.30309386 31.98746491 87.99788347 30.64453125 84.0859375 C30.34496017 83.26367676 30.0453891 82.44141602 29.73674011 81.59423828 C28.74476506 78.86037403 27.77899875 76.11796317 26.8125 73.375 C26.12510856 71.4675175 25.43561948 69.56078974 24.74414062 67.65478516 C23.65046693 64.638693 22.55851409 61.62206536 21.47341919 58.60287476 C17.1136305 46.47768664 12.54947023 34.42996223 8 22.375 C6.45575962 18.27960914 4.91439216 14.18315286 3.375 10.0859375 C3.03204391 9.17755127 2.68908783 8.26916504 2.33573914 7.33325195 C2.0264296 6.50962158 1.71712006 5.68599121 1.3984375 4.83740234 C1.12692871 4.11660492 0.85541992 3.3958075 0.57568359 2.65316772 C0 1 0 1 0 0 Z " fill="#C3902F" transform="translate(116,115)"/>
<path d="M0 0 C0.30591064 0.92820557 0.61182129 1.85641113 0.92700195 2.81274414 C2.38449485 7.23076948 3.84820328 11.6467259 5.3125 16.0625 C5.57856049 16.86623047 5.84462097 17.66996094 6.1187439 18.49804688 C9.07518344 27.41892939 12.07660467 36.31718534 15.28125 45.15234375 C15.66787056 46.22162865 15.66787056 46.22162865 16.06230164 47.31251526 C17.28819254 50.6972013 18.526859 54.07641982 19.78442383 57.44946289 C20.22294678 58.65207764 20.66146973 59.85469238 21.11328125 61.09375 C21.50298096 62.14240234 21.89268066 63.19105469 22.29418945 64.27148438 C23.02529772 67.09779569 23.17588083 68.35652458 22 71 C19.90738853 72.85049113 17.87397914 74.49158196 15.625 76.125 C15.03460938 76.56714844 14.44421875 77.00929688 13.8359375 77.46484375 C11.26616749 79.38059572 8.66717951 81.22188032 6 83 C5.64172119 81.85934082 5.28344238 80.71868164 4.91430664 79.54345703 C3.58722304 75.31994179 2.25793759 71.09712229 0.92797852 66.87451172 C0.35217972 65.04527449 -0.22301814 63.21584799 -0.79760742 61.38623047 C-1.62261353 58.75959326 -2.44976354 56.13363964 -3.27734375 53.5078125 C-3.53466782 52.68693146 -3.79199188 51.86605042 -4.05711365 51.02029419 C-5.31698241 46.92776601 -5.31698241 46.92776601 -7 43 C-8.41377981 42.59397646 -9.83106488 42.200123 -11.25 41.8125 C-14.95762007 40.27504989 -15.88059904 39.23934837 -17.70703125 35.578125 C-21.66364708 24.59702353 -21.66364708 24.59702353 -21 19 C-19.28759766 16.68823242 -19.28759766 16.68823242 -16.9140625 14.35546875 C-16.06585938 13.51435547 -15.21765625 12.67324219 -14.34375 11.80664062 C-13.4465625 10.94232422 -12.549375 10.07800781 -11.625 9.1875 C-10.73554688 8.30384766 -9.84609375 7.42019531 -8.9296875 6.50976562 C-2.29425072 0 -2.29425072 0 0 0 Z " fill="#F1CE25" transform="translate(178,34)"/>
<path d="M0 0 C8.07446864 2.35217355 16.18783288 4.45078041 24.375 6.375 C25.39907959 6.6210498 26.42315918 6.86709961 27.47827148 7.12060547 C41.88642228 10.43842994 56.08245218 11.53345293 70.8125 11.5 C71.98823074 11.50067978 71.98823074 11.50067978 73.18771362 11.50137329 C85.57289088 11.48041005 97.07922873 10.43199238 109.0625 7.125 C110.01898438 6.90972656 110.97546875 6.69445312 111.9609375 6.47265625 C124.3239774 3.56258686 136.44554967 -1.79655177 148.0625 -6.875 C147.9921875 -3.59765625 147.9921875 -3.59765625 147.0625 0.125 C144.6377056 1.78355937 142.87883513 2.69324272 140.1875 3.6875 C139.4756958 3.97214111 138.7638916 4.25678223 138.03051758 4.55004883 C135.72146054 5.4515043 133.39863639 6.29640538 131.0625 7.125 C129.9180542 7.53347168 129.9180542 7.53347168 128.75048828 7.95019531 C110.19302197 14.44079571 91.50637254 18.30984276 71.83081055 18.36523438 C69.79236782 18.37480116 67.75499811 18.40583478 65.71679688 18.4375 C49.06564201 18.57625232 33.18543146 15.17993318 17.13342285 11.02420044 C14.54642542 10.35466425 11.95673561 9.6965193 9.36621094 9.04077148 C2.18865681 7.22076212 -4.98198399 5.37450906 -12.14888 3.51301575 C-31.86828681 -1.60355988 -50.16450092 -5.11601033 -70.5625 -5.1875 C-71.25226929 -5.19135712 -71.94203857 -5.19521423 -72.65270996 -5.19918823 C-79.91381293 -5.21922917 -86.82785712 -5.04153434 -93.89990234 -3.30151367 C-95.9375 -2.875 -95.9375 -2.875 -99.9375 -2.875 C-99.9375 -4.525 -99.9375 -6.175 -99.9375 -7.875 C-73.72720998 -23.35402984 -26.84203759 -7.82266549 0 0 Z " fill="#FDF2F2" transform="translate(213.9375,320.875)"/>
<path d="M0 0 C7.92 0 15.84 0 24 0 C22.05803774 5.82588677 20.14108796 11.20902662 17.55078125 16.70703125 C17.05609093 17.77372543 17.05609093 17.77372543 16.55140686 18.86196899 C15.84350791 20.38780503 15.13359183 21.91270662 14.42181396 23.43673706 C12.50885339 27.53363026 10.61139687 31.63767846 8.71484375 35.7421875 C8.32455994 36.58637741 7.93427612 37.43056732 7.53216553 38.30033875 C2.70945099 48.75884794 -1.93344445 59.29735949 -6.55737305 69.8449707 C-10.45319178 78.70167449 -14.58404632 87.38931412 -19 96 C-20.32 95.67 -21.64 95.34 -23 95 C-22.38431949 89.29921911 -21.367501 83.87861113 -19.97460938 78.32080078 C-19.77124466 77.49379166 -19.56787994 76.66678253 -19.35835266 75.81471252 C-18.69130148 73.10711605 -18.01768074 70.40120408 -17.34375 67.6953125 C-16.87641606 65.80589914 -16.4094209 63.91640195 -15.94274902 62.02682495 C-14.96712881 58.08064604 -13.98842613 54.13524923 -13.00732422 50.19042969 C-11.74821872 45.12735293 -10.49531703 40.0627666 -9.24449921 34.9976368 C-8.28217569 31.10251959 -7.31738762 27.20801639 -6.35176086 23.31371689 C-5.88867548 21.44548826 -5.42618003 19.5771133 -4.96427917 17.70859146 C-4.32037604 15.10607016 -3.67335048 12.50434583 -3.02539062 9.90283203 C-2.83419144 9.12777817 -2.64299225 8.3527243 -2.44599915 7.55418396 C-1.11446977 2.22893954 -1.11446977 2.22893954 0 0 Z " fill="#F0CC26" transform="translate(385,120)"/>
<path d="M0 0 C2 1 2 1 3.35009766 4.75463867 C3.87952993 6.4732711 4.40009829 8.19464732 4.9140625 9.91796875 C5.20069763 10.85737305 5.48733276 11.79677734 5.78265381 12.76464844 C6.73786021 15.90330219 7.6815465 19.04529516 8.625 22.1875 C9.29199561 24.38922572 9.95948427 26.59080213 10.62744141 28.79223633 C16.30070019 47.52892658 21.87815959 66.29516178 27.40283203 85.07617188 C30.21469263 94.63153034 33.02962691 104.18245464 36.0078125 113.6875 C36.44235298 115.08565205 36.87676681 116.48384347 37.31103516 117.88208008 C38.06572256 120.29754468 38.83225376 122.70936586 39.61474609 125.1159668 C41.72838106 131.90753453 42.44313315 137.89316421 42 145 C39.94115609 142.94115609 39.43551881 141.86619725 38.48217773 139.18847656 C38.19622742 138.39445938 37.9102771 137.6004422 37.61566162 136.78236389 C37.30807922 135.91059006 37.00049683 135.03881622 36.68359375 134.140625 C36.35498352 133.22433823 36.02637329 132.30805145 35.68780518 131.36399841 C34.97400918 129.3722911 34.26269805 127.37969194 33.55355835 125.38632202 C31.65700046 120.05665777 29.74144504 114.73382087 27.828125 109.41015625 C27.23562202 107.75938835 27.23562202 107.75938835 26.63114929 106.07527161 C22.38363485 94.25456286 18.04429794 82.46828356 13.6875 70.6875 C13.32792206 69.7130896 12.96834412 68.7386792 12.59786987 67.73474121 C11.57070879 64.95148886 10.54159324 62.16896806 9.51171875 59.38671875 C9.21444885 58.58125107 8.91717896 57.77578339 8.61090088 56.94590759 C6.7532931 51.93986475 4.79404768 46.98653847 2.75154114 42.05281067 C2 40 2 40 2 38 C1.02160156 37.86658203 1.02160156 37.86658203 0.0234375 37.73046875 C-4.34067401 36.83576152 -7.13994564 36.04494129 -10.03515625 32.52734375 C-14.14408122 25.31001219 -14.14408122 25.31001219 -13.73779297 21.6159668 C-12.92026474 18.71728546 -11.78361279 16.81738912 -10.05859375 14.35546875 C-9.47529297 13.51435547 -8.89199219 12.67324219 -8.29101562 11.80664062 C-7.37352539 10.51016602 -7.37352539 10.51016602 -6.4375 9.1875 C-5.82197266 8.30384766 -5.20644531 7.42019531 -4.57226562 6.50976562 C-3.05549953 4.33455843 -1.53128083 2.16500186 0 0 Z " fill="#F0CC25" transform="translate(138,78)"/>
<path d="M0 0 C1.75449463 0.4019458 1.75449463 0.4019458 3.54443359 0.81201172 C15.7829093 3.63408627 27.95663821 6.6783843 40.078125 9.96484375 C81.63410733 21.05320711 120.10720821 22.80953172 160.96655273 7.67089844 C163 7 163 7 165 7 C165 8.98 165 10.96 165 13 C147.28806735 19.12787401 129.9951608 25.10003426 111.06640625 25.203125 C110.23020248 25.20882507 109.39399872 25.21452515 108.53245544 25.22039795 C106.76847576 25.2297931 105.00447896 25.23635993 103.24047852 25.24023438 C100.60074372 25.24986054 97.96181575 25.2809034 95.32226562 25.3125 C84.20174703 25.38233579 73.86621102 24.32542376 63 22 C61.93177002 21.78520996 60.86354004 21.57041992 59.76293945 21.34912109 C56.96064002 20.77926489 54.16736586 20.1790355 51.375 19.5625 C50.39990479 19.34859619 49.42480957 19.13469238 48.42016602 18.91430664 C39.46727025 16.92551385 30.60219647 14.69304709 21.8203125 12.0390625 C14.25643207 9.77171225 6.66505316 7.99258912 -1.0625 6.375 C-2.53384399 6.06574585 -2.53384399 6.06574585 -4.03491211 5.75024414 C-7.01861425 5.13902285 -10.0066604 4.56205023 -13 4 C-14.00039307 3.80583496 -15.00078613 3.61166992 -16.03149414 3.41162109 C-25.16317241 1.80178116 -34.07858196 1.76796935 -43.3125 1.875 C-44.84309302 1.88506222 -46.37369254 1.89418227 -47.90429688 1.90234375 C-51.6030027 1.92407212 -55.30145769 1.95841819 -59 2 C-59 0.35 -59 -1.3 -59 -3 C-44.69446732 -10.15276634 -14.69905445 -3.4422288 0 0 Z " fill="#FDF5F5" transform="translate(184,380)"/>
<path d="M0 0 C0.66 0 1.32 0 2 0 C3.06435358 2.8683427 4.10146291 5.74211169 5.125 8.625 C5.42792969 9.43324219 5.73085938 10.24148437 6.04296875 11.07421875 C6.32011719 11.86699219 6.59726562 12.65976563 6.8828125 13.4765625 C7.14465332 14.19924316 7.40649414 14.92192383 7.67626953 15.66650391 C8.38231944 20.7558139 5.44684803 25.30739825 3.0859375 29.65625 C2.20325195 31.29207031 2.20325195 31.29207031 1.30273438 32.9609375 C0.66022368 34.14066173 0.01764372 35.32034823 -0.625 36.5 C-1.63454557 38.36523192 -2.64249631 40.23132046 -3.65045166 42.09741211 C-4.35247054 43.396715 -5.05507559 44.69570133 -5.75823975 45.99438477 C-8.29536902 50.68279335 -10.80680302 55.38432823 -13.3046875 60.09375 C-13.65713531 60.75765747 -14.00958313 61.42156494 -14.37271118 62.10559082 C-15.74619671 64.69312778 -17.11961791 67.28068937 -18.48907471 69.87036133 C-22.80593298 78.03027304 -27.28335093 86.06382005 -32 94 C-37.75 93.125 -37.75 93.125 -40 92 C-39.34331838 87.71588602 -37.83773124 84.00115522 -36.0703125 80.078125 C-35.76799713 79.39706696 -35.46568176 78.71600891 -35.15420532 78.01431274 C-34.14991299 75.75706999 -33.13769881 73.50348241 -32.125 71.25 C-31.41686613 69.66428155 -30.7088608 68.07850569 -30.00097656 66.49267578 C-23.57698674 52.1402426 -16.96428584 37.87476237 -10.29736328 23.63378906 C-4.82949125 11.95460467 -4.82949125 11.95460467 0 0 Z " fill="#C4902F" transform="translate(413,127)"/>
<path d="M0 0 C18.4418654 7.10117806 18.4418654 7.10117806 22.25390625 14.9765625 C23.83882777 18.95649588 25.02840655 23.04120096 26.17578125 27.16552734 C27.08173534 30.28108628 28.1190505 33.33100014 29.1875 36.39453125 C32.31491184 45.39670638 32.31491184 45.39670638 33.49609375 48.9296875 C33.93199829 50.21721924 33.93199829 50.21721924 34.37670898 51.53076172 C35.02917514 54.11558063 35.11429717 56.34533679 35 59 C34.154375 58.731875 33.30875 58.46375 32.4375 58.1875 C27.62211484 57.92484263 25.56747251 60.04652639 22 63 C19.07873648 55.88899513 16.43550044 48.71084518 13.92578125 41.4453125 C13.55647995 40.38134247 13.18717865 39.31737244 12.8066864 38.22116089 C12.03331089 35.99126132 11.26109366 33.76095972 10.48999023 31.53027344 C9.30829607 28.11284233 8.12218538 24.69696701 6.93554688 21.28125 C6.1820305 19.10686132 5.4287663 16.93238523 4.67578125 14.7578125 C4.32163651 13.738013 3.96749176 12.7182135 3.60261536 11.66751099 C3.27524887 10.71907318 2.94788239 9.77063538 2.6105957 8.79345703 C2.32287796 7.96202179 2.03516022 7.13058655 1.73872375 6.2739563 C1.06366139 4.19596393 0.49933934 2.12622282 0 0 Z " fill="#C3902F" transform="translate(185,36)"/>
<path d="M0 0 C7.09385241 4.52010791 13.56396264 9.58651063 20 15 C18.71870104 23.27025491 17.08972883 31.40034543 15.1796875 39.546875 C14.91616486 40.68408997 14.65264221 41.82130493 14.38113403 42.99298096 C13.54922105 46.57946945 12.71220331 50.16474318 11.875 53.75 C11.30564977 56.2004419 10.73663624 58.65096206 10.16796875 61.1015625 C8.78253316 67.06861767 7.39291902 73.03468754 6 79 C5.67 79 5.34 79 5 79 C3.9853565 72.81415839 3.61840009 66.64614519 3.28125 60.390625 C3.21844849 59.26920105 3.15564697 58.1477771 3.09094238 56.99237061 C2.89113143 53.41173108 2.69553116 49.83087551 2.5 46.25 C2.36876042 43.88930784 2.23725248 41.52863059 2.10546875 39.16796875 C1.37907004 26.11327314 0.67778385 13.05730644 0 0 Z " fill="#C4912F" transform="translate(260,53)"/>
<path d="M0 0 C1.13295697 3.40733325 0.85225625 5.77464395 0.109375 9.26171875 C-0.10372314 10.29071289 -0.31682129 11.31970703 -0.53637695 12.37988281 C-0.77187256 13.47139648 -1.00736816 14.56291016 -1.25 15.6875 C-3.24693432 24.92456972 -3.24693432 24.92456972 -4.72265625 34.25390625 C-6.06981969 44.83669757 -6.06981969 44.83669757 -8.57421875 47.96875 C-10.67495258 49.36639847 -12.62087553 50.16189933 -15 51 C-17.0032799 51.93047079 -19.00322563 52.86814924 -21 53.8125 C-22.66416603 54.54735592 -24.32996933 55.27857131 -26 56 C-25.50252072 51.54886957 -24.93901744 47.11038998 -24.34179688 42.671875 C-24.100894 40.78870278 -23.88009498 38.902905 -23.67382812 37.015625 C-21.61142576 18.27922382 -21.61142576 18.27922382 -17.83203125 12.93359375 C-15.31579935 10.9401139 -12.8415266 9.4828958 -10 8 C-8.28912421 6.71811993 -6.60010572 5.40639536 -4.9375 4.0625 C-4.20402344 3.49660156 -3.47054688 2.93070312 -2.71484375 2.34765625 C-1.0717138 1.11139558 -1.0717138 1.11139558 0 0 Z " fill="#FDFBFB" transform="translate(386,312)"/>
<path d="M0 0 C1.26886324 2.53772648 0.82173578 3.35668366 0.125 6.0625 C-0.99010856 10.70376266 -1.54763515 15.25016908 -2 20 C-2.495 18.515 -2.495 18.515 -3 17 C-3.969375 17.38671875 -4.93875 17.7734375 -5.9375 18.171875 C-29.55429033 27.41645875 -29.55429033 27.41645875 -42 27 C-41.39891424 21.34979382 -39.92471317 16.33835539 -38 11 C-37.08863281 10.86464844 -36.17726563 10.72929687 -35.23828125 10.58984375 C-16.32475115 8.05508903 -16.32475115 8.05508903 0 0 Z " fill="#C7302C" transform="translate(352,370)"/>
<path d="M0 0 C2.70250496 5.40500993 0.04098988 14.12605068 -1.73876953 19.59570312 C-5.34198447 26.46454956 -14.09204646 29.38881904 -21 32 C-23.12620276 25.62139171 -21.0881343 17.28189678 -19 11 C-16.75188774 8.06481187 -14.40990572 7.24550128 -11 6 C-8.98826186 4.91736724 -6.98841759 3.81239088 -5 2.6875 C-3.33465617 1.78920992 -1.66845395 0.89250018 0 0 Z " fill="#D1322E" transform="translate(378,358)"/>
<path d="M0 0 C0.24284737 4.12840526 -0.16775544 7.26655545 -2 11 C-6.93943561 14.60217377 -12.32025127 16.80719364 -18 19 C-18.68465332 19.27102539 -19.36930664 19.54205078 -20.07470703 19.82128906 C-30.74114127 24 -30.74114127 24 -35 24 C-34.71682074 22.39431334 -34.42312209 20.79047953 -34.125 19.1875 C-33.96257812 18.29417969 -33.80015625 17.40085937 -33.6328125 16.48046875 C-33 14 -33 14 -31 11 C-28.75683594 9.97265625 -28.75683594 9.97265625 -25.984375 9.0625 C-24.47810547 8.55589844 -24.47810547 8.55589844 -22.94140625 8.0390625 C-21.88824219 7.69617188 -20.83507812 7.35328125 -19.75 7 C-14.13138375 5.14341376 -5.74622676 0 0 0 Z " fill="#C8322E" transform="translate(361,321)"/>
<path d="M0 0 C1.94299923 3.88599846 0.18023705 8.38140957 -0.7421875 12.44921875 C-2.7462753 18.10672126 -6.11460548 20.74065061 -11 24 C-12.00160156 24.67160156 -13.00320313 25.34320313 -14.03515625 26.03515625 C-16.66311573 27.74078673 -19.31155166 29.39195614 -22 31 C-21.88467064 29.12438033 -21.7572641 27.24950159 -21.625 25.375 C-21.55539062 24.33085937 -21.48578125 23.28671875 -21.4140625 22.2109375 C-20.78141773 17.30495639 -20.32335037 14.11048977 -16.42578125 10.83984375 C-15.39839844 10.21207031 -14.37101562 9.58429688 -13.3125 8.9375 C-12.24128906 8.26589844 -11.17007812 7.59429687 -10.06640625 6.90234375 C-8.54853516 5.96068359 -8.54853516 5.96068359 -7 5 C-4.6380081 3.36900726 -2.32150665 1.68836848 0 0 Z " fill="#D13531" transform="translate(389,296)"/>
<path d="M0 0 C1 2 1 2 0.625 4.6875 C-2.788351 11.64548474 -11.22050825 16.47206304 -18 20 C-18.66 20 -19.32 20 -20 20 C-19.8515625 16.7578125 -19.8515625 16.7578125 -19 13 C-16.5234375 10.7421875 -16.5234375 10.7421875 -13.375 8.875 C-11.75464844 7.88113281 -11.75464844 7.88113281 -10.1015625 6.8671875 C-8.56628906 5.94292969 -8.56628906 5.94292969 -7 5 C-5.57120504 4.01740679 -4.15164365 3.02095031 -2.75 2 C-1.8425 1.34 -0.935 0.68 0 0 Z " fill="#FBF3F3" transform="translate(389,296)"/>
<path d="M0 0 C0.66 0 1.32 0 2 0 C2.06640625 3.16015625 2.06640625 3.16015625 1 7 C-1.74209411 9.34723256 -4.83628459 10.85007483 -8.0625 12.4375 C-8.91650391 12.88287109 -9.77050781 13.32824219 -10.65039062 13.78710938 C-12.7563488 14.88126642 -14.87151889 15.95052513 -17 17 C-18 14 -18 14 -17.53515625 11.578125 C-15.30418067 7.83144845 -12.28387584 6.6071174 -8.4375 4.75 C-3.92533017 2.77909878 -3.92533017 2.77909878 0 0 Z " fill="#FAF2F2" transform="translate(374,373)"/>
<path d="M0 0 C0.66 0.33 1.32 0.66 2 1 C2.73075648 3.3140622 3.40138258 5.64828869 4 8 C-2.625 11.125 -2.625 11.125 -6 10 C-4.02 6.7 -2.04 3.4 0 0 Z " fill="#F5F0F1" transform="translate(110,207)"/>
<path d="M0 0 C1.98 0.99 3.96 1.98 6 3 C2.8745041 5.64465038 -0.08788267 6.84414715 -4 8 C-2.68 5.36 -1.36 2.72 0 0 Z " fill="#EEE6E8" transform="translate(395,208)"/>
</svg>
