<?xml version="1.0" encoding="UTF-8"?>
<svg version="1.1" xmlns="http://www.w3.org/2000/svg" width="512" height="512">
<path d="M0 0 C0.64453125 0.56203125 1.2890625 1.1240625 1.953125 1.703125 C4.47174522 3.87137878 4.47174522 3.87137878 7.625 4.265625 C9.07676799 3.87266524 10.52055614 3.44953718 11.95703125 3.00390625 C20.72290372 0.84672853 30.77513051 1.08343117 38.59375 5.79296875 C46.63177355 11.64286367 51.13095854 18.46023994 53.37109375 28.24609375 C54.5049011 36.74403599 52.52542252 44.68352996 48.703125 52.328125 C49.29480469 52.59753906 49.88648438 52.86695313 50.49609375 53.14453125 C57.96376822 57.14931951 62.7573092 65.09612827 66.703125 72.328125 C66.703125 72.988125 66.703125 73.648125 66.703125 74.328125 C67.981875 74.555 69.260625 74.781875 70.578125 75.015625 C81.92867203 77.5677134 90.82266772 83.91641602 97.5390625 93.30859375 C99.27736041 96.32436564 99.703125 98.87376558 99.703125 102.328125 C98.765625 104.765625 98.765625 104.765625 97.703125 106.328125 C97.043125 106.328125 96.383125 106.328125 95.703125 106.328125 C95.94095703 107.08609375 95.94095703 107.08609375 96.18359375 107.859375 C97.14409821 112.42357665 96.99613949 117.14546032 97.12890625 121.796875 C97.78349873 125.82239611 98.73906609 126.70696702 101.703125 129.328125 C102.76444205 136.28564791 100.66055203 140.66640458 96.703125 146.328125 C91.16709196 153.74223576 84.91892518 158.22022491 76.703125 162.328125 C76.74953125 163.11574219 76.7959375 163.90335938 76.84375 164.71484375 C77.19739979 175.38748925 75.57883386 185.78557763 68.703125 194.328125 C67.6203125 195.813125 67.6203125 195.813125 66.515625 197.328125 C62.15158725 202.46228705 56.03278844 206.14973433 49.703125 208.328125 C48.713125 208.328125 47.723125 208.328125 46.703125 208.328125 C47.033125 208.988125 47.363125 209.648125 47.703125 210.328125 C48.26290583 216.31347385 48.20306543 221.24756631 44.703125 226.328125 C40.25810091 231.52031838 34.89962236 235.6720636 29.59375 239.94140625 C26.71074928 242.32182982 23.95233667 244.79492282 21.203125 247.328125 C16.75585388 251.42163591 12.15595037 255.25254999 7.453125 259.046875 C3.66407093 262.19006758 0.07043148 265.52971095 -3.55078125 268.86328125 C-6.21562666 271.25519797 -8.94519325 273.52067384 -11.734375 275.765625 C-15.72911486 278.98755601 -19.54241849 282.33467995 -23.296875 285.828125 C-27.90691836 290.11767613 -32.67470456 294.13223172 -37.58203125 298.08203125 C-40.40360995 300.4164309 -43.10278212 302.84803098 -45.796875 305.328125 C-50.24414612 309.42163591 -54.84404963 313.25254999 -59.546875 317.046875 C-62.37787078 319.39531468 -65.09071098 321.83722402 -67.796875 324.328125 C-72.24414612 328.42163591 -76.84404963 332.25254999 -81.546875 336.046875 C-85.33592907 339.19006758 -88.92956852 342.52971095 -92.55078125 345.86328125 C-95.21562666 348.25519797 -97.94519325 350.52067384 -100.734375 352.765625 C-104.72911486 355.98755601 -108.54241849 359.33467995 -112.296875 362.828125 C-116.90691836 367.11767613 -121.67470456 371.13223172 -126.58203125 375.08203125 C-129.40360995 377.4164309 -132.10278212 379.84803098 -134.796875 382.328125 C-139.24414612 386.42163591 -143.84404963 390.25254999 -148.546875 394.046875 C-152.33592907 397.19006758 -155.92956852 400.52971095 -159.55078125 403.86328125 C-162.21562666 406.25519797 -164.94519325 408.52067384 -167.734375 410.765625 C-171.72911486 413.98755601 -175.54241849 417.33467995 -179.296875 420.828125 C-183.90691836 425.11767613 -188.67470456 429.13223172 -193.58203125 433.08203125 C-196.40360995 435.4164309 -199.10278212 437.84803098 -201.796875 440.328125 C-206.24414612 444.42163591 -210.84404963 448.25254999 -215.546875 452.046875 C-218.37787078 454.39531468 -221.09071098 456.83722402 -223.796875 459.328125 C-228.24414612 463.42163591 -232.84404963 467.25254999 -237.546875 471.046875 C-240.37787078 473.39531468 -243.09071098 475.83722402 -245.796875 478.328125 C-250.3489394 482.51550327 -255.03610356 486.47670687 -259.859375 490.34765625 C-261.83858851 491.95576723 -263.72373484 493.61435308 -265.609375 495.328125 C-268.73522013 497.65433533 -270.43486635 498.0596683 -274.296875 498.328125 C-277.19921875 497.39453125 -277.19921875 497.39453125 -280.234375 495.890625 C-281.93787109 495.04951172 -281.93787109 495.04951172 -283.67578125 494.19140625 C-284.88322684 493.57111839 -286.09025235 492.95001218 -287.296875 492.328125 C-288.19768799 491.87638916 -288.19768799 491.87638916 -289.11669922 491.41552734 C-303.96403207 483.96614611 -317.31978587 474.64967079 -330.296875 464.328125 C-331.18503906 463.63460938 -332.07320313 462.94109375 -332.98828125 462.2265625 C-350.8488025 448.01267525 -366.66698792 431.61015756 -380.296875 413.328125 C-380.7815625 412.67859863 -381.26625 412.02907227 -381.765625 411.35986328 C-389.31047119 401.1600761 -395.91969736 390.58204475 -402.07910156 379.49511719 C-403.20279307 377.49554104 -404.36184292 375.52306633 -405.5390625 373.5546875 C-411.60583951 363.10228856 -411.60583951 363.10228856 -411.10546875 357.49609375 C-409.63460592 353.55247603 -406.780284 350.87863769 -403.859375 347.92578125 C-401.33176086 345.36348947 -399.10079305 342.70440516 -396.859375 339.890625 C-396.116875 338.98828125 -395.374375 338.0859375 -394.609375 337.15625 C-392.99982572 335.18781473 -391.41837298 333.19620893 -389.859375 331.1875 C-383.53057136 323.47427057 -383.53057136 323.47427057 -379.7578125 323.02734375 C-378.0957487 323.22545352 -376.43425976 323.42845691 -374.7734375 323.63671875 C-370.9900821 323.16529118 -369.59124945 321.19137806 -367.109375 318.390625 C-364.1575179 314.50356805 -364.1575179 314.50356805 -363.171875 309.875 C-363.46355132 308.38536734 -363.77480746 306.89943547 -364.10546875 305.41796875 C-364.35239281 302.72196117 -363.77341247 301.86171898 -362.171875 299.703125 C-360.90381961 298.22421513 -359.60720001 296.76971692 -358.296875 295.328125 C-357.34721174 294.2278845 -356.40087461 293.12476841 -355.45703125 292.01953125 C-352.67065427 288.7663086 -349.85621803 285.53864371 -347.03466797 282.31591797 C-344.27797137 279.16264124 -341.53797233 275.99495927 -338.796875 272.828125 C-337.7136285 271.57804975 -336.630295 270.32804989 -335.546875 269.078125 C-335.010625 268.459375 -334.474375 267.840625 -333.921875 267.203125 C-329.046875 261.578125 -329.046875 261.578125 -327.42163086 259.70288086 C-326.33906175 258.45373763 -325.25654216 257.20455148 -324.17407227 255.95532227 C-321.45445223 252.81685865 -318.73395696 249.67916181 -316.01171875 246.54296875 C-314.91920402 245.28391214 -313.82675587 244.02479775 -312.734375 242.765625 C-312.19844727 242.14792236 -311.66251953 241.53021973 -311.11035156 240.89379883 C-306.89755342 236.03302492 -302.71809294 231.14432043 -298.54150391 226.25244141 C-295.61424577 222.83422217 -292.63877819 219.46929332 -289.609375 216.140625 C-286.57974632 212.80585386 -283.69079408 209.39524861 -280.859375 205.890625 C-276.99862363 201.116722 -272.92250425 196.59424072 -268.765625 192.078125 C-266.35309396 189.39074866 -264.0643129 186.63847056 -261.796875 183.828125 C-257.95968469 179.07217081 -253.90302399 174.57307699 -249.765625 170.078125 C-247.35309396 167.39074866 -245.0643129 164.63847056 -242.796875 161.828125 C-238.95852086 157.07072832 -234.90065141 152.57028582 -230.76171875 148.07421875 C-228.36980203 145.40937334 -226.10432616 142.67980675 -223.859375 139.890625 C-220.20181236 135.35576339 -216.35070473 131.07276317 -212.38525391 126.81103516 C-208.58288693 122.70033224 -205.05416908 118.40536916 -201.54296875 114.04296875 C-199.2085691 111.22139005 -196.77696902 108.52221788 -194.296875 105.828125 C-191.00355801 102.25020037 -187.85036179 98.61272834 -184.796875 94.828125 C-180.95852086 90.07072832 -176.90065141 85.57028582 -172.76171875 81.07421875 C-170.36980203 78.40937334 -168.10432616 75.67980675 -165.859375 72.890625 C-162.20565277 68.36052495 -158.36392855 64.07611427 -154.39404297 59.82641602 C-151.25817256 56.44657114 -148.34715965 52.94629989 -145.484375 49.328125 C-140.97315213 43.79669625 -137.63896221 40.4190146 -130.359375 39.640625 C-128.67297241 39.51998815 -126.98537526 39.41457621 -125.296875 39.328125 C-119.29279615 39.00647792 -115.79909339 36.9823722 -110.859375 33.8046875 C-108.36942111 32.36992748 -106.18130515 31.58152205 -103.421875 30.828125 C-98.90925962 29.47118471 -97.66800074 27.43807629 -95.296875 23.328125 C-89.79214459 16.38204456 -82.03837672 11.95676981 -73.296875 10.328125 C-65.29233562 9.77091476 -58.73714617 10.30157401 -51.296875 13.328125 C-51.11125 12.6475 -50.925625 11.966875 -50.734375 11.265625 C-46.95700233 3.54664606 -40.09066686 -0.61173586 -32.296875 -3.671875 C-21.65708204 -7.05406084 -9.35661686 -6.81059867 0 0 Z " fill="#020201" transform="translate(410.296875,9.671875)"/>
<path d="M0 0 C16.11625284 7.15115115 27.13661458 34.64264745 33.1875 50.125 C38.98184412 65.43772204 42.99164965 81.4389402 43.2109375 97.859375 C43.23896713 99.31902238 43.26763122 100.77865769 43.296875 102.23828125 C43.33829513 104.5050471 43.37524859 106.7715771 43.40136719 109.03857422 C43.42895806 111.25012545 43.47476939 113.46070059 43.5234375 115.671875 C43.54325684 116.9825293 43.56307617 118.29318359 43.58349609 119.64355469 C44.01691949 123.13634772 44.439284 124.6206588 47 127 C51.60228101 127.63037741 51.60228101 127.63037741 55.68676758 125.79174805 C57.42727 123.41704136 57.42707995 121.82303362 57.51171875 118.89453125 C57.54716797 117.91162109 57.58261719 116.92871094 57.61914062 115.91601562 C57.65297852 114.37977539 57.65297852 114.37977539 57.6875 112.8125 C57.72166016 111.77673828 57.75582031 110.74097656 57.79101562 109.67382812 C57.87352642 107.1159934 57.94266572 104.55850277 58 102 C96.68307147 109.81021845 128.85362191 129.19249272 158 155 C158.97066406 155.75990234 158.97066406 155.75990234 159.9609375 156.53515625 C161 158 161 158 161.10546875 160.30859375 C159.46167782 164.31061477 156.61831674 166.37017166 153.3125 169.0625 C152.64130127 169.62614258 151.97010254 170.18978516 151.27856445 170.77050781 C149.88131207 171.94359068 148.48012758 173.1120048 147.07519531 174.27587891 C143.91676883 176.89997394 140.80264413 179.57481379 137.6875 182.25 C137.10677734 182.74612793 136.52605469 183.24225586 135.92773438 183.75341797 C132.50755984 186.68041034 129.14213059 189.65722106 125.8125 192.6875 C121.49046734 196.6166206 117.00516535 200.30781956 112.4453125 203.95703125 C110.16064697 205.86578536 108.06749022 207.86038803 106 210 C105.4534375 209.72414063 104.906875 209.44828125 104.34375 209.1640625 C103.5703125 208.77992188 102.796875 208.39578125 102 208 C101.1440625 207.57460938 100.288125 207.14921875 99.40625 206.7109375 C91.41677266 203.03835518 84.18336553 201.25146536 75.52734375 203.69921875 C73.21506254 204.63920271 71.14464016 205.72524193 69 207 C68.30003906 207.38929688 67.60007812 207.77859375 66.87890625 208.1796875 C60.53606963 212.2323884 57.22517715 217.89405108 55 225 C53.74818854 234.27303415 54.88997549 241.65151272 59 250 C55.7 252.97 52.4 255.94 49 259 C45.73054006 257.36527003 44.22388302 256.47154305 41.79199219 254.01904297 C40.89151154 253.11833572 40.89151154 253.11833572 39.97283936 252.19943237 C39.33727112 251.55354156 38.70170288 250.90765076 38.046875 250.2421875 C37.38665344 249.57913605 36.72643188 248.91608459 36.04620361 248.23294067 C33.94272176 246.11828168 31.84630858 243.99676788 29.75 241.875 C28.32337739 240.43834443 26.89629928 239.00214102 25.46875 237.56640625 C21.97386339 234.04949196 18.48529938 230.52641453 15 227 C17.41138078 223.36091504 19.86738913 219.77995216 22.44946289 216.25952148 C34.53097025 199.69896978 53.71936697 172.36404918 52 151 C51.67 150.01 51.34 149.02 51 148 C49.56589632 147.75045995 48.12739928 147.52607358 46.6875 147.3125 C45.88699219 147.18488281 45.08648437 147.05726563 44.26171875 146.92578125 C41.97140837 146.77717599 41.97140837 146.77717599 40.46875 148.20703125 C38.72969673 150.32997128 38.0678361 152.14811074 37.23828125 154.76171875 C36.92818115 155.70813232 36.61808105 156.6545459 36.29858398 157.62963867 C35.97317627 158.63873291 35.64776855 159.64782715 35.3125 160.6875 C31.97975051 170.6299832 28.06784042 179.83248023 23 189 C22.13761719 190.59521484 22.13761719 190.59521484 21.2578125 192.22265625 C10.64236111 211.17881944 10.64236111 211.17881944 3 215 C-30.33 181.67 -63.66 148.34 -98 114 C-96.06722921 110.13445843 -93.86599733 107.50965382 -90.9375 104.4375 C-87.2907372 100.54216218 -83.78494697 96.59789838 -80.4375 92.4375 C-76.62277387 87.69799178 -72.58430568 83.22101003 -68.46484375 78.74609375 C-66.07292703 76.08124834 -63.80745116 73.35168175 -61.5625 70.5625 C-57.90493736 66.02763839 -54.05382973 61.74463817 -50.08837891 57.48291016 C-46.28601193 53.37220724 -42.75729408 49.07724416 -39.24609375 44.71484375 C-36.9116941 41.89326505 -34.48009402 39.19409288 -32 36.5 C-27.88942217 32.03363799 -24.03565407 27.41616695 -20.22265625 22.6953125 C-17.30148546 19.1529437 -14.23552721 15.75742218 -11.14453125 12.36328125 C-8.52442465 9.47591423 -5.96383247 6.53983509 -3.41015625 3.59375 C-2.31584855 2.3569701 -1.16771869 1.16771869 0 0 Z " fill="#FDE8BA" transform="translate(281,65)"/>
<path d="M0 0 C4.07622784 1.62116831 6.80698035 4.53363161 9.83392334 7.59341431 C10.41312192 8.17090404 10.9923205 8.74839377 11.58907056 9.34338319 C13.52998625 11.28100283 15.46366405 13.22568763 17.39746094 15.17041016 C18.78676628 16.56027958 20.17651205 17.94970887 21.56666565 19.33872986 C25.34146133 23.11295094 29.1100521 26.89331357 32.87757778 30.67478991 C36.81514363 34.62484507 40.75836127 38.56924983 44.70098877 42.51425171 C52.16701335 49.98649635 59.62792438 57.46382533 67.08702207 64.94298398 C75.5787795 73.45708405 84.0762061 81.96551634 92.57411909 90.47347188 C110.05573842 107.97600511 127.53020861 125.48566152 145 143 C143.63310388 145.85435713 142.47789514 147.72898688 140.05078125 149.77734375 C139.16132813 150.53724609 139.16132813 150.53724609 138.25390625 151.3125 C137.61324219 151.84875 136.97257813 152.385 136.3125 152.9375 C134.94386276 154.10269117 133.57537734 155.26806068 132.20703125 156.43359375 C131.15636475 157.32280518 131.15636475 157.32280518 130.08447266 158.22998047 C126.86773052 160.96146097 123.68474238 163.73135462 120.5 166.5 C119.25147408 167.5822297 118.00277555 168.66426031 116.75390625 169.74609375 C114.23998138 171.92474132 111.72705786 174.10453627 109.21484375 176.28515625 C107.95578714 177.37767098 106.69667275 178.47011913 105.4375 179.5625 C104.81979736 180.09842773 104.20209473 180.63435547 103.56567383 181.18652344 C98.70489992 185.39932158 93.81619543 189.57878206 88.92431641 193.75537109 C85.50609717 196.68262923 82.14116832 199.65809681 78.8125 202.6875 C75.47772886 205.71712868 72.06712361 208.60608092 68.5625 211.4375 C64.71175926 214.54959372 61.01521413 217.76909827 57.375 221.125 C52.77552848 225.36048457 48.01099193 229.26340848 43 233 C36.18247509 227.40938422 30.03887223 221.17259176 23.82250977 214.93603516 C22.60003288 213.71327585 21.37733506 212.49073739 20.1544342 211.2684021 C16.85105881 207.96531251 13.5507663 204.65915834 10.25103498 201.35242891 C6.7961838 197.89130809 3.33848285 194.43303659 -0.11891174 190.97445679 C-6.65847511 184.43179074 -13.1954861 177.88658071 -19.73157507 171.34044397 C-27.17580505 163.88501981 -34.62288945 156.43244968 -42.07021034 148.98011327 C-57.38330967 133.65657361 -72.69283598 118.32946848 -88 103 C-87.04785033 101.71955128 -86.09418839 100.440227 -85.13989258 99.16137695 C-84.60898514 98.44883255 -84.0780777 97.73628815 -83.53108215 97.00215149 C-81.70175296 94.60999104 -79.73784447 92.39229603 -77.6875 90.1875 C-74.52623398 86.73019569 -71.50293164 83.20946645 -68.5625 79.5625 C-64.70058325 74.78715598 -60.62325776 70.26332315 -56.46484375 65.74609375 C-54.07292703 63.08124834 -51.80745116 60.35168175 -49.5625 57.5625 C-45.90493736 53.02763839 -42.05382973 48.74463817 -38.08837891 44.48291016 C-34.28601193 40.37220724 -30.75729408 36.07724416 -27.24609375 31.71484375 C-24.9116941 28.89326505 -22.48009402 26.19409288 -20 23.5 C-15.83785755 18.97593212 -11.9129148 14.30870624 -8.05078125 9.52734375 C-5.42873496 6.29598385 -2.72523793 3.1445053 0 0 Z " fill="#EAF2FE" transform="translate(172,190)"/>
<path d="M0 0 C38.68307147 7.81021845 70.85362191 27.19249272 100 53 C100.64710938 53.50660156 101.29421875 54.01320312 101.9609375 54.53515625 C103 56 103 56 103.10546875 58.30859375 C101.46167782 62.31061477 98.61831674 64.37017166 95.3125 67.0625 C94.64130127 67.62614258 93.97010254 68.18978516 93.27856445 68.77050781 C91.88131207 69.94359068 90.48012758 71.1120048 89.07519531 72.27587891 C85.91676883 74.89997394 82.80264413 77.57481379 79.6875 80.25 C79.10677734 80.74612793 78.52605469 81.24225586 77.92773438 81.75341797 C74.50755984 84.68041034 71.14213059 87.65722106 67.8125 90.6875 C63.49046734 94.6166206 59.00516535 98.30781956 54.4453125 101.95703125 C52.16064697 103.86578536 50.06749022 105.86038803 48 108 C47.4534375 107.72414063 46.906875 107.44828125 46.34375 107.1640625 C45.5703125 106.77992188 44.796875 106.39578125 44 106 C43.1440625 105.57460938 42.288125 105.14921875 41.40625 104.7109375 C33.41677266 101.03835518 26.18336553 99.25146536 17.52734375 101.69921875 C15.21506254 102.63920271 13.14464016 103.72524193 11 105 C10.30003906 105.38929688 9.60007812 105.77859375 8.87890625 106.1796875 C2.53606963 110.2323884 -0.77482285 115.89405108 -3 123 C-4.25181146 132.27303415 -3.11002451 139.65151272 1 148 C-2.3 150.97 -5.6 153.94 -9 157 C-12.26945994 155.36527003 -13.77611698 154.47154305 -16.20800781 152.01904297 C-16.80832825 151.41857147 -17.40864868 150.81809998 -18.02716064 150.19943237 C-18.66272888 149.55354156 -19.29829712 148.90765076 -19.953125 148.2421875 C-20.94345734 147.24761032 -20.94345734 147.24761032 -21.95379639 146.23294067 C-24.05727824 144.11828168 -26.15369142 141.99676788 -28.25 139.875 C-29.67662261 138.43834443 -31.10370072 137.00214102 -32.53125 135.56640625 C-36.02613661 132.04949196 -39.51470062 128.52641453 -43 125 C-40.58861922 121.36091504 -38.13261087 117.77995216 -35.55053711 114.25952148 C-23.46902975 97.69896978 -4.28063303 70.36404918 -6 49 C-6.33 48.01 -6.66 47.02 -7 46 C-8.32 45.34 -9.64 44.68 -11 44 C-10.34 38.06 -9.68 32.12 -9 26 C-6.69 25.34 -4.38 24.68 -2 24 C-0.76939579 21.53879159 -0.7942277 19.74223134 -0.68359375 16.9921875 C-0.62075195 15.51298828 -0.62075195 15.51298828 -0.55664062 14.00390625 C-0.51732422 12.97136719 -0.47800781 11.93882812 -0.4375 10.875 C-0.37272461 9.31458984 -0.37272461 9.31458984 -0.30664062 7.72265625 C-0.2003712 5.14857472 -0.09833417 2.57439492 0 0 Z " fill="#FDD995" transform="translate(339,167)"/>
<path d="M0 0 C3.05141393 1.36445801 5.15797902 2.90704737 7.51812744 5.26416016 C8.19675842 5.93715149 8.8753894 6.61014282 9.57458496 7.30352783 C10.30826294 8.04125427 11.04194092 8.77898071 11.79785156 9.5390625 C12.57872131 10.31642761 13.35959106 11.09379272 14.16412354 11.89471436 C16.74468005 14.46646546 19.31784922 17.04546675 21.890625 19.625 C23.67823493 21.41126322 25.46614171 23.19722942 27.2543335 24.98291016 C30.99996874 28.72559598 34.74205426 32.47178222 38.48144531 36.22070312 C42.80847416 40.5586317 47.14268249 44.88928679 51.48065972 49.21626472 C55.65204637 53.37749645 59.81781312 57.54431875 63.98119354 61.71356201 C65.75482922 63.48853589 67.52996285 65.26201419 69.30658722 67.03399658 C71.78249268 69.50485026 74.25194188 71.98197678 76.71972656 74.4609375 C77.46150146 75.19866394 78.20327637 75.93639038 78.9675293 76.69647217 C79.63488098 77.3694635 80.30223267 78.04245483 80.98980713 78.73583984 C81.86693548 79.61409927 81.86693548 79.61409927 82.7617836 80.51010132 C84 82 84 82 84 84 C50.98151298 97.87331387 16.95931654 100.58641605 -17 88 C-30.71994852 82.35733637 -44.31324546 74.32167908 -55 64 C-51.01673837 58.40190257 -46.6911165 53.35529202 -41.9597168 48.38964844 C-36.21858323 42.40848894 -36.21858323 42.40848894 -33.625 34.8125 C-33.81710373 31.79782134 -33.81710373 31.79782134 -36 29 C-26.80055838 16.32712435 -26.80055838 16.32712435 -22.44140625 15.53515625 C-20.125 16 -20.125 16 -18.0703125 16.8125 C-17.38710938 16.874375 -16.70390625 16.93625 -16 17 C-13.45258392 14.92430802 -13.45258392 14.92430802 -11 12 C-10.03713232 10.96040586 -9.07224037 9.92268341 -8.10546875 8.88671875 C-7.13163691 7.82138593 -6.15898858 6.7549701 -5.1875 5.6875 C-4.43436523 4.86282227 -4.43436523 4.86282227 -3.66601562 4.02148438 C-2.44296032 2.68194761 -1.22132992 1.34111008 0 0 Z " fill="#FDE8BA" transform="translate(73,305)"/>
<path d="M0 0 C7.69389935 4.94871606 12.15323064 10.84615144 15.875 19.125 C17.90227062 23.13759771 18.91609052 24.91895849 23.01953125 26.85546875 C25.45915388 27.49200501 27.91499094 28.06941671 30.3828125 28.5859375 C37.69113524 30.16290737 41.54233518 33.95166688 46.25 39.5625 C49.11338845 42.91888925 50.84432596 44.91739508 55.3125 45.4375 C57.0140625 45.375625 57.0140625 45.375625 58.75 45.3125 C59.9562252 48.93117559 59.85816918 52.23756251 59.8125 56 C59.80798828 56.70189453 59.80347656 57.40378906 59.79882812 58.12695312 C59.78706927 59.85550538 59.76913454 61.58401365 59.75 63.3125 C58.65945313 63.54453125 57.56890625 63.7765625 56.4453125 64.015625 C52.28113204 65.47704985 51.56088342 66.23710163 49.625 70.0625 C49.13128906 70.9596875 48.63757813 71.856875 48.12890625 72.78125 C47.67386719 73.6165625 47.21882813 74.451875 46.75 75.3125 C41.92346644 82.48334986 34.36264837 86.59030949 26.0625 88.6875 C24.4228125 88.996875 24.4228125 88.996875 22.75 89.3125 C22.72287934 90.74989513 22.70354933 92.18743863 22.6875 93.625 C22.67589844 94.42550781 22.66429687 95.22601563 22.65234375 96.05078125 C22.65342145 98.48111334 22.65342145 98.48111334 23.75 101.3125 C24.45358371 108.99425003 24.20514468 115.81073423 19.75 122.3125 C14.29342472 128.3845675 8.16448978 132.20258063 -0.0625 133.0625 C-5.97238944 132.90981289 -8.89405064 129.67088767 -12.91015625 125.6484375 C-15.80173948 122.76168163 -18.87049817 120.58999036 -22.25 118.3125 C-20.53330428 114.11383457 -17.58429081 111.04675639 -14.625 107.6875 C-11.06869819 103.59830801 -7.54733328 99.50392613 -4.1875 95.25 C-1.1203402 91.36663135 2.04211529 87.57932191 5.25 83.8125 C9.21150771 79.15601476 13.11748019 74.46729239 16.88671875 69.65234375 C18.16266679 68.0500526 19.48055016 66.48052261 20.83203125 64.94140625 C21.48558594 64.17699219 22.13914062 63.41257812 22.8125 62.625 C23.40160156 61.96113281 23.99070312 61.29726562 24.59765625 60.61328125 C26.3695624 57.07547542 25.85682207 55.07167479 24.75 51.3125 C22.35335079 49.16312118 19.59712459 47.92402667 16.6953125 46.5703125 C15.85372589 46.15226349 15.01213928 45.73421448 14.14505005 45.30349731 C8.44833734 42.50487 2.66757191 39.88265799 -3.10723877 37.24993896 C-7.17512094 35.3908304 -11.22935497 33.50297304 -15.28173828 31.61035156 C-17.3665399 30.65137573 -19.46135568 29.71391344 -21.56494141 28.796875 C-38.74453502 21.26841176 -38.74453502 21.26841176 -41.26208496 16.32531738 C-42.46557447 11.56942847 -41.846919 7.15031278 -41.25 2.3125 C-41.63038584 -1.02046054 -41.63038584 -1.02046054 -42.25 -3.6875 C-28.72691393 -10.59290565 -12.68255641 -6.90901025 0 0 Z " fill="#9ED64B" transform="translate(447.25,71.6875)"/>
<path d="M0 0 C1.69586182 1.33509827 1.69586182 1.33509827 3.39160156 3.05102539 C4.35214447 4.01190819 4.35214447 4.01190819 5.33209229 4.99220276 C6.01140808 5.68700241 6.69072388 6.38180206 7.390625 7.09765625 C8.09523865 7.80651474 8.79985229 8.51537323 9.52581787 9.24571228 C11.77434785 11.5110328 14.01222238 13.78656208 16.25 16.0625 C17.77274708 17.60029335 19.29617654 19.13741131 20.8203125 20.67382812 C24.5548281 24.44141802 28.2806485 28.21744265 32 32 C24.30761963 39.72283572 16.2313354 46.87585439 7.75 53.71875 C3.96094593 56.86194258 0.36730648 60.20158595 -3.25390625 63.53515625 C-6.78219666 66.70208548 -10.4632837 69.65364781 -14.15625 72.625 C-17.88158413 75.73626806 -21.42845194 79.02239671 -24.94116211 82.37084961 C-27.47323772 84.75074994 -29.77334734 86.66509642 -33 88 C-53.1413506 69.64899167 -67.90711031 41.06492795 -75 15 C-73.3603125 14.96132813 -73.3603125 14.96132813 -71.6875 14.921875 C-48.68187167 14.16647385 -26.80723499 10.3641536 -6.19921875 -0.21484375 C-3.55005283 -1.16063833 -2.61878057 -0.93383963 0 0 Z " fill="#FCD995" transform="translate(171,401)"/>
<path d="M0 0 C5.90020506 2.65395324 9.80567849 7.10089038 12.9609375 12.66015625 C13.8423857 16.10581739 14.03989475 19.49536182 14.20703125 23.04296875 C14.49989869 25.36962849 14.49989869 25.36962849 15.8203125 27.125 C18.38249542 28.8385967 20.40104397 28.71972456 23.4609375 28.78515625 C28.64858305 29.1042997 31.67442797 29.77104767 35.6484375 33.34765625 C40.0781747 38.37600658 40.94860338 41.22930916 40.86328125 47.80859375 C40.45108724 52.6799775 38.65335375 55.44078061 35.0859375 58.66015625 C30.92309228 61.54212602 27.63666684 61.94561434 22.6484375 61.34765625 C19.55941777 60.43668528 16.54535584 59.37387253 13.5078125 58.3046875 C9.86893702 57.08675787 6.45750935 56.50531651 2.6484375 56.34765625 C1.49859375 56.28449219 0.34875 56.22132812 -0.8359375 56.15625 C-10.90563474 55.78107499 -19.72543749 57.48029986 -29.3515625 60.34765625 C-29.95742188 59.21070313 -30.56328125 58.07375 -31.1875 56.90234375 C-35.73893892 48.47728133 -40.40511368 40.39372047 -46.21435547 32.76513672 C-48.28117904 30.02250796 -49.87641719 27.79871169 -50.3515625 24.34765625 C-45.56079602 20.93884164 -42.0404826 19.16055647 -36.2265625 18.16015625 C-32.61118641 17.3744024 -30.87491378 16.965081 -28.4609375 14.1171875 C-27.47851117 12.36691742 -26.53976013 10.59134324 -25.6484375 8.79296875 C-20.58711585 -0.75036665 -9.77828761 -2.71258145 0 0 Z " fill="#D78853" transform="translate(351.3515625,36.65234375)"/>
<path d="M0 0 C3.30324397 1.41567599 5.23557427 3.08994484 7.5625 5.8125 C8.14128906 6.47894531 8.72007812 7.14539063 9.31640625 7.83203125 C11.09397482 10.12101166 12.55805151 12.48864291 14 15 C13.31035156 15.73863281 12.62070312 16.47726563 11.91015625 17.23828125 C6.47151857 23.0975978 1.26106306 29.05443681 -3.75390625 35.28515625 C-6.88167179 39.06567286 -10.21273883 42.64480875 -13.53515625 46.25390625 C-15.92707297 48.91875166 -18.19254884 51.64831825 -20.4375 54.4375 C-24.09506264 58.97236161 -27.94617027 63.25536183 -31.91162109 67.51708984 C-35.71398807 71.62779276 -39.24270592 75.92275584 -42.75390625 80.28515625 C-45.0883059 83.10673495 -47.51990598 85.80590712 -50 88.5 C-54.09228075 92.94593464 -57.92243114 97.5440372 -61.71484375 102.24609375 C-64.08366025 105.10082133 -66.54926417 107.8343921 -69.0625 110.5625 C-73.05234896 114.8946917 -76.78230009 119.36257695 -80.40625 124.00390625 C-82 126 -82 126 -84 128 C-88.62 123.38 -93.24 118.76 -98 114 C-96.06722921 110.13445843 -93.86599733 107.50965382 -90.9375 104.4375 C-87.2907372 100.54216218 -83.78494697 96.59789838 -80.4375 92.4375 C-76.62277387 87.69799178 -72.58430568 83.22101003 -68.46484375 78.74609375 C-66.07292703 76.08124834 -63.80745116 73.35168175 -61.5625 70.5625 C-57.90493736 66.02763839 -54.05382973 61.74463817 -50.08837891 57.48291016 C-46.28601193 53.37220724 -42.75729408 49.07724416 -39.24609375 44.71484375 C-36.9116941 41.89326505 -34.48009402 39.19409288 -32 36.5 C-27.88942217 32.03363799 -24.03565407 27.41616695 -20.22265625 22.6953125 C-17.30148546 19.1529437 -14.23552721 15.75742218 -11.14453125 12.36328125 C-8.52442465 9.47591423 -5.96383247 6.53983509 -3.41015625 3.59375 C-2.31584855 2.3569701 -1.16771869 1.16771869 0 0 Z " fill="#FDD996" transform="translate(281,65)"/>
<path d="M0 0 C4.32504836 1.65863505 7.09418825 4.871041 10.25 8.125 C10.80429688 8.68832031 11.35859375 9.25164062 11.9296875 9.83203125 C13.29104485 11.21686028 14.64614859 12.60783204 16 14 C15.04882866 15.1725131 14.08882991 16.33787015 13.125 17.5 C12.59132813 18.1496875 12.05765625 18.799375 11.5078125 19.46875 C11.01023437 19.9740625 10.51265625 20.479375 10 21 C9.34 21 8.68 21 8 21 C7.64615234 21.83337891 7.64615234 21.83337891 7.28515625 22.68359375 C5.6872248 25.56375591 3.694995 27.66369076 1.4375 30.0625 C-1.9953483 33.75363459 -5.27938092 37.50410259 -8.4375 41.4375 C-12.09506264 45.97236161 -15.94617027 50.25536183 -19.91162109 54.51708984 C-23.71398807 58.62779276 -27.24270592 62.92275584 -30.75390625 67.28515625 C-33.0883059 70.10673495 -35.51990598 72.80590712 -38 75.5 C-41.29331699 79.07792463 -44.44651321 82.71539666 -47.5 86.5 C-51.32856909 91.24526873 -55.37163695 95.73720823 -59.5078125 100.21484375 C-62.8403779 103.9391684 -65.92504132 107.84087416 -68.9921875 111.78515625 C-71 114 -71 114 -75 116 C-79.29 111.71 -83.58 107.42 -88 103 C-84.07200293 97.56123483 -79.8770736 92.58211728 -75.3515625 87.6328125 C-73.00298292 85.00333968 -70.77521304 82.30688967 -68.5625 79.5625 C-64.70058325 74.78715598 -60.62325776 70.26332315 -56.46484375 65.74609375 C-54.07292703 63.08124834 -51.80745116 60.35168175 -49.5625 57.5625 C-45.90493736 53.02763839 -42.05382973 48.74463817 -38.08837891 44.48291016 C-34.28601193 40.37220724 -30.75729408 36.07724416 -27.24609375 31.71484375 C-24.9116941 28.89326505 -22.48009402 26.19409288 -20 23.5 C-15.83785755 18.97593212 -11.9129148 14.30870624 -8.05078125 9.52734375 C-5.42873496 6.29598385 -2.72523793 3.1445053 0 0 Z " fill="#D9E7F9" transform="translate(172,190)"/>
<path d="M0 0 C4.07376031 1.61010527 6.76507069 4.53822271 9.75 7.625 C10.25660156 8.140625 10.76320313 8.65625 11.28515625 9.1875 C12.52803902 10.45383339 13.76465276 11.7263144 15 13 C10.7897786 18.97303768 6.04796665 24.34164416 1.07421875 29.6796875 C-1.01640168 31.81389508 -1.01640168 31.81389508 -2 34 C-1.34 33.67 -0.68 33.34 0 33 C7.06552707 32.43019943 7.06552707 32.43019943 10.5625 34.5625 C12 37 12 37 11.9375 40.5625 C11 44 11 44 9.9375 45.9375 C6.74344089 47.6890808 3.542457 47.65820182 0 47 C-3.25242082 44.27216318 -3.5348357 41.0934458 -4 37 C-12.07976951 44.99257775 -19.59634624 53.39079442 -26.71875 62.2421875 C-30.64073834 66.98349533 -34.81872281 71.48701397 -39 76 C-44.70985379 72.34880098 -49.94464135 68.51755454 -55 64 C-51.01673837 58.40190257 -46.6911165 53.35529202 -41.9597168 48.38964844 C-36.21858323 42.40848894 -36.21858323 42.40848894 -33.625 34.8125 C-33.81710373 31.79782134 -33.81710373 31.79782134 -36 29 C-26.80055838 16.32712435 -26.80055838 16.32712435 -22.44140625 15.53515625 C-20.125 16 -20.125 16 -18.0703125 16.8125 C-17.38710938 16.874375 -16.70390625 16.93625 -16 17 C-13.45258392 14.92430802 -13.45258392 14.92430802 -11 12 C-10.03713232 10.96040586 -9.07224037 9.92268341 -8.10546875 8.88671875 C-7.13163691 7.82138593 -6.15898858 6.7549701 -5.1875 5.6875 C-4.43436523 4.86282227 -4.43436523 4.86282227 -3.66601562 4.02148438 C-2.44296032 2.68194761 -1.22132992 1.34111008 0 0 Z " fill="#FDD996" transform="translate(73,305)"/>
<path d="M0 0 C4.19634887 2.35990989 6.89785938 5.92928716 9.7578125 9.734375 C11.73004425 11.82242162 11.73004425 11.82242162 14.75390625 12.015625 C18.17347768 11.50902183 19.83594769 10.56062703 22.625 8.5625 C27.46952757 5.48822837 31.13949351 4.31880242 36.8125 5.5625 C42.23442964 8.06492907 45.61455806 12.06764514 47.8125 17.5625 C48.78289437 23.57711416 48.21798338 27.46333207 44.8125 32.5625 C44.11769531 32.3459375 43.42289062 32.129375 42.70703125 31.90625 C27.15611976 27.64896625 10.89917499 27.64021549 -3.72265625 34.8046875 C-6.80912524 35.75361774 -7.80443838 35.28059981 -10.625 33.8125 C-13.26146639 32.47304301 -15.44594492 31.49876947 -18.33984375 30.78515625 C-21.1875 29.5625 -21.1875 29.5625 -22.5078125 26.91796875 C-22.77335937 25.87253906 -23.03890625 24.82710937 -23.3125 23.75 C-24.39340984 19.90727391 -24.99080409 17.80060557 -27.5625 14.6875 C-29.1875 12.5625 -29.1875 12.5625 -28.875 9.625 C-23.17555889 -0.71843016 -10.91182333 -4.72270614 0 0 Z " fill="#93C240" transform="translate(400.1875,21.4375)"/>
<path d="M0 0 C2.38958178 0.89803346 4.63044882 1.93894402 6.91041565 3.08911133 C7.86142654 3.56630615 8.81243744 4.04350098 9.79226685 4.53515625 C11.3220945 5.31016479 11.3220945 5.31016479 12.88282776 6.10083008 C13.9354631 6.62974854 14.98809845 7.15866699 16.07263184 7.70361328 C19.43706279 9.39473935 22.7987741 11.09118336 26.16017151 12.78833008 C29.52547939 14.48478512 32.89135901 16.18007958 36.25842285 17.87304688 C38.35406244 18.92700237 40.44862913 19.98309435 42.54202271 21.04150391 C43.48988144 21.51869873 44.43774017 21.99589355 45.4143219 22.48754883 C46.66530418 23.11922974 46.66530418 23.11922974 47.94155884 23.76367188 C50.19624716 24.88873705 50.19624716 24.88873705 53.09767151 25.78833008 C51.55323075 29.27342938 49.47291797 31.93155345 47.03517151 34.85083008 C45.82280823 36.31069336 45.82280823 36.31069336 44.58595276 37.80004883 C43.76481995 38.78618164 42.94368713 39.77231445 42.09767151 40.78833008 C40.637893 42.57881947 39.17953559 44.37046851 37.72267151 46.16333008 C33.93582483 50.79463037 30.08198105 55.3648683 26.20826721 59.92333984 C21.76898508 65.15577162 17.42195437 70.46038651 13.09767151 75.78833008 C11.7721303 73.13724765 12.37200919 72.03269908 13.03517151 69.16333008 C16.33155953 51.77204153 13.17763513 36.05131654 4.09767151 20.78833008 C1.13019921 16.46842571 -2.0807649 12.50370543 -5.83982849 8.85083008 C-6.52045349 8.17020508 -7.20107849 7.48958008 -7.90232849 6.78833008 C-7.90232849 6.12833008 -7.90232849 5.46833008 -7.90232849 4.78833008 C-2.69571698 -0.29994935 -2.69571698 -0.29994935 0 0 Z " fill="#F8CF56" transform="translate(400.90232849121094,103.211669921875)"/>
<path d="M0 0 C5.66305574 3.25882081 10.63651486 7.98591622 12.6875 14.3125 C13.64600582 21.12034901 13.85793188 27.40030742 10.125 33.375 C6.33129895 38.19111693 1.86722938 42.1664411 -4.3125 43.3125 C-11.26155102 44.0074051 -16.87792079 44.04737593 -22.6328125 39.796875 C-28.37624098 34.72128704 -32.3018968 28.83844906 -32.8125 21 C-32.58072642 14.83692993 -29.91204616 9.30483473 -25.890625 4.67578125 C-18.61510478 -1.83698282 -8.97957259 -4.16787709 0 0 Z " fill="#040303" transform="translate(276.3125,131.6875)"/>
<path d="M0 0 C11.75152849 8.18566858 20.54458771 20.25866661 23.53125 34.4453125 C23.99244215 38.05502796 24.06984364 41.54872629 24.0625 45.1875 C24.06636719 47.10755859 24.06636719 47.10755859 24.0703125 49.06640625 C23.95828522 52.06807844 23.64105355 54.71586189 22.9375 57.625 C18.38434052 57.00688466 14.65290233 55.15734107 10.625 53.0625 C9.97982422 52.73314453 9.33464844 52.40378906 8.66992188 52.06445312 C7.08964772 51.25675745 5.51317895 50.44162387 3.9375 49.625 C3.92332031 48.53703125 3.90914063 47.4490625 3.89453125 46.328125 C3.56894771 34.13822157 1.72974781 23.54908268 -7.04296875 14.375 C-15.97403049 6.63589815 -24.91272696 4.2831036 -36.5 4.5 C-37.42232422 4.50902344 -38.34464844 4.51804687 -39.29492188 4.52734375 C-41.55105809 4.5507234 -43.80663684 4.58349084 -46.0625 4.625 C-47.37876692 1.00526598 -48.0625 -1.47067131 -48.0625 -5.375 C-31.98858659 -11.86638811 -14.51892031 -8.78672363 0 0 Z " fill="#E44240" transform="translate(377.0625,115.375)"/>
<path d="M0 0 C3.03906697 1.18287038 6.03138649 2.4474705 9.01171875 3.76953125 C21.60524396 9.3033166 34.3296223 13.96124665 48 16 C48.20568604 16.61294922 48.41137207 17.22589844 48.62329102 17.85742188 C54.40053845 34.98895459 60.3205283 51.15111239 69.80029297 66.59521484 C73 71.81631227 73 71.81631227 73 74 C50.17054667 63.40249395 26.80396634 38.03322959 12.22998047 17.70947266 C10.81319287 15.7403685 9.36300683 13.79810439 7.91015625 11.85546875 C0 1.22973861 0 1.22973861 0 0 Z " fill="#F2C783" transform="translate(32,398)"/>
<path d="M0 0 C0.79408753 3.7703276 1.58481268 7.54135323 2.375 11.3125 C2.59671875 12.36501953 2.8184375 13.41753906 3.046875 14.50195312 C4.12482525 19.65392125 5.17973734 24.80972364 6.1640625 29.98046875 C6.32600098 30.82891357 6.48793945 31.6773584 6.65478516 32.55151367 C7.00946944 35.06716336 7.06062838 37.46295725 7 40 C7.66 39.67 8.32 39.34 9 39 C16.28809789 38.42157953 16.28809789 38.42157953 19 40.625 C20.3181446 43.75559341 20.55014903 45.6303372 20 49 C17.8125 51.875 17.8125 51.875 15 54 C12.32421875 54.1328125 12.32421875 54.1328125 10 54 C10.34224609 55.35544922 10.34224609 55.35544922 10.69140625 56.73828125 C11.12259766 58.50751953 11.12259766 58.50751953 11.5625 60.3125 C11.85253906 61.48425781 12.14257812 62.65601563 12.44140625 63.86328125 C13 67 13 67 12 70 C-5.61901169 50.16427968 -18.96415119 26.63083269 -26 1 C-22.9792807 0.83100871 -19.95845177 0.66473871 -16.9375 0.5 C-16.08994141 0.45230469 -15.24238281 0.40460938 -14.36914062 0.35546875 C-9.57055312 0.09608564 -4.80550212 -0.05216285 0 0 Z " fill="#F3C884" transform="translate(122,415)"/>
<path d="M0 0 C3.74311001 1.76391455 6.43944191 3.56101553 8.54296875 7.2421875 C7.18171875 8.263125 7.18171875 8.263125 5.79296875 9.3046875 C3.10781696 11.47749998 2.44732255 12.46026084 0.98046875 15.8046875 C-0.44508728 18.57825885 -1.27443141 19.17073539 -4.2421875 20.33203125 C-6.51306486 20.95087853 -8.78663768 21.55990076 -11.0625 22.16015625 C-20.07748606 25.03374789 -27.39384654 31.70082948 -31.9296875 39.90625 C-33.15608356 42.33171297 -34.33208367 44.76829835 -35.45703125 47.2421875 C-38.3421298 44.63571218 -40.28353578 41.6167429 -42.39453125 38.3671875 C-44.40681989 35.27314831 -46.33365903 32.38241158 -48.7734375 29.609375 C-50.45703125 27.2421875 -50.45703125 27.2421875 -50.48828125 25.09375 C-49.06843198 22.54447518 -47.57727471 21.87069903 -44.95703125 20.6171875 C-44.0546875 20.18535156 -43.15234375 19.75351562 -42.22265625 19.30859375 C-39.62635788 18.3074787 -37.4512139 17.88604289 -34.70703125 17.5546875 C-31.63739367 17.00441855 -30.72036431 16.5806713 -28.7734375 14.078125 C-27.76990172 12.3108594 -26.79829997 10.52508008 -25.859375 8.72265625 C-20.54320402 -0.68059882 -9.92104181 -3.05990797 0 0 Z " fill="#C07641" transform="translate(351.45703125,36.7578125)"/>
<path d="M0 0 C7.39474783 5.13308582 12.52544865 10.79716696 16.9375 18.625 C13.59211223 17.34240434 10.4671591 15.88088724 7.3125 14.1875 C1.12627396 11.06668746 -5.38213006 8.625 -12.375 8.625 C-15.89175035 8.625 -17.98756884 7.26060168 -21.0625 5.625 C-24.40130912 4.79500775 -27.49231826 4.50519238 -30.92578125 4.52734375 C-31.81201172 4.53056641 -32.69824219 4.53378906 -33.61132812 4.53710938 C-34.9793457 4.54967773 -34.9793457 4.54967773 -36.375 4.5625 C-37.30634766 4.56701172 -38.23769531 4.57152344 -39.19726562 4.57617188 C-41.48574373 4.58790766 -43.77408808 4.60432637 -46.0625 4.625 C-47.37876692 1.00526598 -48.0625 -1.47067131 -48.0625 -5.375 C-31.98858659 -11.86638811 -14.51892031 -8.78672363 0 0 Z " fill="#CA3434" transform="translate(377.0625,115.375)"/>
<path d="M0 0 C7.13114332 2.49929594 11.26485178 6.35584518 14.80078125 13.0078125 C16.30748476 16.96290922 16.07083013 20.27863413 15.73828125 24.46875 C6.40494792 22.13541667 -2.92838542 19.80208333 -12.26171875 17.46875 C-14.55784631 5.94710991 -14.55784631 5.94710991 -14.26171875 0.46875 C-10.05400079 -1.63510898 -4.48567979 -1.05363118 0 0 Z " fill="#F99197" transform="translate(350.26171875,134.53125)"/>
<path d="M0 0 C0.7528125 -0.00515625 1.505625 -0.0103125 2.28125 -0.015625 C4.7296721 0.27749596 6.37304054 1.03183231 8.5 2.25 C7.23968523 6.03094432 5.61710652 6.99143725 2.5 9.4375 C-2.07220248 13.07380184 -6.44057413 16.84405882 -10.72265625 20.81640625 C-12.5 22.25 -12.5 22.25 -14.5 22.25 C-16.39887921 18.45224159 -16.24393814 14.36565778 -15.5 10.25 C-11.87619491 4.21696185 -7.2486878 -0.04964855 0 0 Z " fill="#EEC381" transform="translate(365.5,281.75)"/>
<path d="M0 0 C2.9375 2.0625 2.9375 2.0625 5 5 C5.06641554 8.85210127 4.87229157 10.99848005 2.3125 13.9375 C-0.73602877 15.33817538 -2.67926952 15.4842732 -6 15 C-8.375 13.4375 -8.375 13.4375 -10 11 C-10.56783945 7.02512383 -10.62340519 4.93510779 -8.375 1.5625 C-5.24316508 -0.49791771 -3.68455227 -0.6767545 0 0 Z " fill="#090805" transform="translate(403,215)"/>
<path d="M0 0 C2.4375 1.625 2.4375 1.625 4 4 C4.5625 6.9375 4.5625 6.9375 4 10 C1.9375 12.9375 1.9375 12.9375 -1 15 C-4.85210127 15.06641554 -6.99848005 14.87229157 -9.9375 12.3125 C-11.33817538 9.26397123 -11.4842732 7.32073048 -11 4 C-8.05899778 -0.47032338 -5.13105401 -0.73300772 0 0 Z " fill="#0A0907" transform="translate(242,195)"/>
<path d="M0 0 C4.93731454 1.46290801 4.93731454 1.46290801 6.375 4 C6.87073337 7.89504791 6.95516848 10.09493717 4.8125 13.4375 C1.40780512 15.61999672 -0.65930012 15.63734462 -4.625 15 C-7.28606976 12.61186047 -8.40349624 10.98446115 -9.1875 7.5 C-8.02254303 2.32241345 -5.23369904 0 0 0 Z " fill="#F4D190" transform="translate(267.625,145)"/>
<path d="M0 0 C3.72206393 1.34627844 5.01947413 2.61005343 6.9375 6.0625 C6.873818 9.24659977 6.44790601 11.21182332 4.8125 13.9375 C1.76917192 15.76349685 -0.60499555 15.48710581 -4.0625 15.0625 C-6.5 13.5 -6.5 13.5 -8.0625 11.0625 C-8.625 7.5625 -8.625 7.5625 -8.0625 4.0625 C-5.43176963 0.9675231 -4.07891993 0.08324326 0 0 Z " fill="#090806" transform="translate(294.0625,206.9375)"/>
<path d="M0 0 C1.9453125 0.37890625 1.9453125 0.37890625 4.5078125 1.94140625 C5.9453125 4.37890625 5.9453125 4.37890625 5.8828125 7.94140625 C4.9453125 11.37890625 4.9453125 11.37890625 3.8828125 13.31640625 C0.68803197 15.06838267 -2.51158376 15.03585674 -6.0546875 14.37890625 C-8.75884551 12.18177786 -8.99961495 10.81948664 -9.4296875 7.37890625 C-8.65682348 1.1959941 -6.31216672 -0.36102799 0 0 Z " fill="#070605" transform="translate(79.0546875,337.62109375)"/>
<path d="M0 0 C2.375 1.5625 2.375 1.5625 4 4 C4.56783945 7.97487617 4.62340519 10.06489221 2.375 13.4375 C-0.71685231 15.47161336 -2.36367425 15.60605429 -6 15 C-8.375 13.4375 -8.375 13.4375 -10 11 C-10.56783945 7.02512383 -10.62340519 4.93510779 -8.375 1.5625 C-5.28314769 -0.47161336 -3.63632575 -0.60605429 0 0 Z " fill="#070604" transform="translate(365,226)"/>
<path d="M0 0 C2.6923481 2.18753283 2.93936827 3.58423955 3.4375 7 C3 10 3 10 1.4375 12.375 C-1.95870843 14.63913895 -4.00099302 14.64269755 -8 14 C-10.69500656 11.58140437 -11.80636871 9.99236035 -12.5 6.4375 C-11.06550643 -0.55565616 -6.06105588 -0.76965789 0 0 Z " fill="#060503" transform="translate(139,454)"/>
<path d="M0 0 C3.4375 0.9375 3.4375 0.9375 5.375 2.0625 C7.1087306 5.12202459 6.85895216 7.50567525 6.4375 10.9375 C4.8125 13.375 4.8125 13.375 2.4375 14.9375 C-1.19882575 15.54355429 -2.84564769 15.40911336 -5.9375 13.375 C-8.18590519 10.00239221 -8.13033945 7.91237617 -7.5625 3.9375 C-5.29401339 0.30792142 -4.30870043 -0.07559124 0 0 Z " fill="#060503" transform="translate(163.5625,423.0625)"/>
<path d="M0 0 C0.66 0.66 1.32 1.32 2 2 C-1.3 5.3 -4.6 8.6 -8 12 C-8 8.03869629 -6.65122875 7.17085599 -4 4.3125 C-3.2575 3.50425781 -2.515 2.69601562 -1.75 1.86328125 C-1.1725 1.24839844 -0.595 0.63351562 0 0 Z " fill="#FEE0A2" transform="translate(48,321)"/>
</svg>
