<?xml version="1.0" encoding="UTF-8"?>
<svg version="1.1" xmlns="http://www.w3.org/2000/svg" width="512" height="512">
<path d="M0 0 C0.90242432 0.47493896 1.80484863 0.94987793 2.73461914 1.43920898 C25.7175847 13.72019826 47.52572181 29.00538746 66.62890625 46.75 C68.67254149 48.63946051 70.75054318 50.45341918 72.875 52.25 C81.94096409 60.15940077 90.42495564 68.80567576 97.87109375 78.25390625 C99.829347 80.70783145 101.86471609 83.06957853 103.93847656 85.42578125 C145.12495966 132.61313786 178.62579538 207.56021107 176.37890625 270.98046875 C175.13917416 282.81149228 169.56858277 291.57574455 160.56640625 299.20703125 C151.23096822 305.89184569 141.36550168 307.96109356 130.0625 307 C124.06412462 305.70565266 119.28987758 304.10709003 114.7109375 299.99609375 C108.72432782 295.36595807 101.20995998 295.37050844 93.9375 294.6875 C92.50235938 294.53285402 91.06745849 294.37596618 89.6328125 294.21679688 C76.47461321 292.78983779 63.28790905 291.92290912 50.0625 291.4375 C49.02222656 291.39431641 47.98195313 291.35113281 46.91015625 291.30664062 C29.36275805 290.64939563 11.8523304 290.94032448 -5.68188477 291.79956055 C-8.53052691 291.93899421 -11.37945183 292.07066371 -14.22851562 292.20117188 C-22.95471157 292.60872891 -31.65788407 293.09421675 -40.36450195 293.81030273 C-43.49818732 294.04133732 -46.60853541 294.10034897 -49.75 294.0625 C-50.74644531 294.05347656 -51.74289062 294.04445313 -52.76953125 294.03515625 C-53.48496094 294.02355469 -54.20039063 294.01195312 -54.9375 294 C-53.40821935 302.26767351 -50.58131908 309.40724623 -46.80664062 316.85913086 C-42.07384475 326.34380647 -40.24808356 336.30139343 -42.5546875 346.8125 C-45.09358663 354.18204793 -49.76971489 358.60352356 -56.4375 362.4375 C-63.02610967 363.91993718 -68.04490015 363.33543388 -73.9375 360 C-77.96182346 356.10046176 -80.13121882 352.65698897 -80.5 347.0625 C-80.5 339.92624027 -77.882503 334.27011339 -74.87133789 327.93969727 C-71.61434207 320.96376713 -69.64610117 314.22769993 -72.25 306.6875 C-72.51425781 305.88699219 -72.77851563 305.08648437 -73.05078125 304.26171875 C-73.89868115 302.09901373 -74.85979842 300.05657463 -75.9375 298 C-86.0131863 298.46160332 -95.91766694 299.56544672 -105.90258789 300.98364258 C-110.97222609 301.68738469 -115.81896607 302.16350872 -120.9375 302 C-121.09605469 302.64324219 -121.25460938 303.28648437 -121.41796875 303.94921875 C-128.5067105 331.40340642 -128.5067105 331.40340642 -140.9375 339 C-146.10765547 340.72338516 -151.25420494 341.0844627 -156.3828125 339.01171875 C-162.67134055 335.2279434 -165.5951688 330.35830334 -168.9375 324 C-170.16220982 321.71905635 -171.38882295 319.43913378 -172.6171875 317.16015625 C-173.24093262 316.00265869 -173.86467773 314.84516113 -174.50732422 313.65258789 C-174.97928223 312.77723389 -175.45124023 311.90187988 -175.9375 311 C-185.80482278 312.39633219 -195.6717019 313.79575513 -205.53803825 315.19904137 C-210.12020007 315.85066369 -214.70250366 316.50125139 -219.28515625 317.14941406 C-223.71403158 317.77586661 -228.14250158 318.40511596 -232.57071304 319.03624344 C-234.25370492 319.27562132 -235.93683648 319.51401937 -237.62011337 319.75138474 C-252.70230196 320.48146422 -252.70230196 320.48146422 -264.9375 326.5390625 C-265.4325 328.06660156 -265.4325 328.06660156 -265.9375 329.625 C-266.30230469 330.71167969 -266.66710937 331.79835938 -267.04296875 332.91796875 C-267.33816406 333.93503906 -267.63335937 334.95210938 -267.9375 336 C-268.18113281 336.69738281 -268.42476563 337.39476562 -268.67578125 338.11328125 C-273.58276775 353.70214313 -267.03137925 369.7703234 -261.40014648 384.21533203 C-256.81697951 396.11803746 -254.05068545 409.9640684 -259.03515625 422.20703125 C-261.53915416 427.18250762 -264.58837651 429.9865748 -269.6015625 432.26953125 C-276.54756664 434.44160947 -283.50685012 433.60841389 -289.93359375 430.3203125 C-295.41908034 426.70609326 -298.77493179 421.79274679 -300.51953125 415.48046875 C-302.40624875 404.28359388 -297.78085153 394.18579648 -293.67773438 384.0078125 C-291.34482564 377.68002837 -290.78483561 371.17319537 -293.3125 364.8125 C-296.018808 359.29394312 -299.7886371 354.4344756 -303.40234375 349.48828125 C-314.96018084 333.65521276 -320.1298804 318.52706301 -317.66943359 298.85693359 C-314.83918876 282.19171541 -305.85869713 266.61305862 -295.24609375 253.6875 C-288.97738739 246.24817144 -288.97738739 246.24817144 -287.04296875 236.91796875 C-286.76748353 231.90821908 -282.64168044 228.5780907 -279.1875 225.375 C-276.55013714 223.12276037 -274.19773827 221.56483849 -271 220.25 C-265.65927764 217.78186035 -262.72205386 213.19689595 -259.21630859 208.62988281 C-256.90021886 205.67795172 -254.44759408 202.84301953 -252 200 C-251.49218994 199.40832031 -250.98437988 198.81664062 -250.46118164 198.20703125 C-246.4411297 193.54164338 -242.32285528 188.97622731 -238.16015625 184.4375 C-236.26328236 182.35727275 -234.40357057 180.25443102 -232.5625 178.125 C-228.11876575 173.01522596 -223.49817373 168.06555764 -218.88476562 163.109375 C-217.36870286 161.46710039 -215.86456008 159.81381889 -214.36523438 158.15625 C-209.06051254 152.31219699 -203.64070251 146.66024077 -197.9296875 141.2109375 C-196.74725258 140.07306551 -195.5649612 138.93504434 -194.3828125 137.796875 C-192.58746103 136.06962647 -190.78656896 134.35080958 -188.96484375 132.65136719 C-179.52260207 124.17229886 -179.52260207 124.17229886 -176.17260742 112.31445312 C-175.74399882 108.09512857 -173.10841436 105.59128485 -169.9375 103 C-165.21135764 99.74317319 -160.14739975 97.6789364 -154.8125 95.625 C-150.02921642 93.68746741 -146.98674765 91.63668894 -143.56640625 87.8125 C-141.86161469 85.91556166 -140.05911135 84.28610557 -138.125 82.625 C-135.08166912 80.00305339 -132.09397726 77.33090333 -129.125 74.625 C-124.80489209 70.72636603 -120.35678619 67.02496142 -115.83203125 63.3671875 C-113.32377168 61.3158983 -110.85611567 59.22532672 -108.3996582 57.11254883 C-102.87802279 52.37231698 -97.22492464 47.84949024 -91.4375 43.4375 C-90.72255371 42.88755371 -90.00760742 42.33760742 -89.27099609 41.77099609 C-85.9053755 39.19566457 -82.52479812 36.69357407 -79 34.33984375 C-72.7372124 30.36459097 -72.7372124 30.36459097 -69.09375 24.21875 C-68.90141921 21.38724259 -68.90141921 21.38724259 -69 18.59765625 C-68.85058236 12.38748557 -64.23278304 8.05204887 -60 3.9375 C-40.66472041 -12.42808723 -21.28526332 -11.21678299 0 0 Z " fill="#EDB036" transform="translate(326.9375,44)"/>
<path d="M0 0 C13.24465684 4.90316789 25.60007152 14.61094905 32.54296875 26.94140625 C35.85334907 34.16651681 36.04348967 41.28227842 36.16796875 49.12890625 C36.21923595 51.41414179 36.27381293 53.69930598 36.33203125 55.984375 C36.34959473 56.9849292 36.3671582 57.9854834 36.38525391 59.01635742 C36.54897426 62.05278705 36.98941728 64.95350533 37.54296875 67.94140625 C36.78113281 68.22113281 36.01929688 68.50085938 35.234375 68.7890625 C26.00199097 72.37367103 17.37578619 76.76340223 12.3515625 85.69921875 C10.3775376 91.17308491 10.85776887 96.71450665 12.54296875 102.19140625 C20.09312493 112.572871 31.18748642 116.91639846 43.54296875 118.94140625 C62.6033415 120.49821374 80.7934749 116.37356986 95.54296875 103.94140625 C97.02796875 102.95140625 97.02796875 102.95140625 98.54296875 101.94140625 C99.35939129 103.20972318 100.1709598 104.48116556 100.98046875 105.75390625 C101.43292969 106.46160156 101.88539063 107.16929687 102.3515625 107.8984375 C104.20430183 111.07542986 104.66706296 113.62528127 104.65649414 117.22924805 C104.65641861 118.08991379 104.65634308 118.95057953 104.65626526 119.83732605 C104.65110397 120.7624147 104.64594269 121.68750336 104.640625 122.640625 C104.63850258 124.06590263 104.63850258 124.06590263 104.63633728 125.51997375 C104.6307375 128.55631654 104.61818507 131.59258573 104.60546875 134.62890625 C104.60045372 136.68684789 104.59589082 138.74479069 104.59179688 140.80273438 C104.58076815 145.84898671 104.56350368 150.895184 104.54296875 155.94140625 C103.75067871 156.05460205 102.95838867 156.16779785 102.14208984 156.28442383 C92.08196788 157.82145085 81.98454146 160.50037649 75.5234375 169.0078125 C73.29332782 173.40583758 73.54296875 178.12580138 73.54296875 182.94140625 C69.27884794 182.39119711 65.98385061 181.40948286 62.16796875 179.44140625 C61.13285156 178.90902344 60.09773438 178.37664062 59.03125 177.828125 C55.80598984 176.08366738 52.62386252 174.28161189 49.44604492 172.453125 C38.57326197 166.2161625 30.23696902 163.51037999 17.54296875 162.94140625 C17.19685547 162.07128906 17.19685547 162.07128906 16.84375 161.18359375 C12.65190925 151.14305821 7.19960981 145.94508951 -2.45703125 140.94140625 C-14.58052632 136.02996901 -26.61138195 133.55195174 -39.70703125 133.62890625 C-41.20919189 133.63627808 -41.20919189 133.63627808 -42.74169922 133.64379883 C-61.66057505 133.94049987 -82.55839541 139.6227432 -96.6640625 152.9140625 C-102.78659426 159.83692521 -105.42257909 166.58481291 -104.9921875 175.84375 C-104.01814244 181.48183566 -101.4778794 185.9205581 -97.45703125 189.94140625 C-97.45703125 190.93140625 -97.45703125 191.92140625 -97.45703125 192.94140625 C-98.09769531 193.20953125 -98.73835938 193.47765625 -99.3984375 193.75390625 C-108.8644723 198.04254199 -113.17666312 203.67912344 -118.39453125 212.50390625 C-122.22051366 218.88301038 -126.13607405 223.96649023 -133.00390625 227.10546875 C-136.94903938 228.06051229 -140.51070689 228.10697358 -144.55395508 228.11547852 C-155.49181098 228.16398146 -162.77984028 228.87010288 -171.45703125 235.94140625 C-172.37871094 236.658125 -173.30039063 237.37484375 -174.25 238.11328125 C-175.95570021 239.46208892 -177.64253822 240.83544467 -179.30078125 242.2421875 C-184.11261839 246.03412438 -184.11261839 246.03412438 -187.26953125 245.81640625 C-189.45703125 244.94140625 -189.45703125 244.94140625 -192.39453125 242.94140625 C-196.82522365 240.23483111 -201.39694392 240.50185268 -206.46875 240.5078125 C-209.45703125 239.94140625 -209.45703125 239.94140625 -211.7734375 237.60546875 C-215.4330069 231.8146884 -216.85628754 224.68234894 -215.45703125 217.94140625 C-213.47097474 214.59334091 -211.12909254 211.76343017 -208.45703125 208.94140625 C-205.45703125 209.94140625 -205.45703125 209.94140625 -203.39453125 212.25390625 C-194.6573693 220.24747995 -182.65341261 220.49755704 -171.42382812 220.08203125 C-166.86957133 219.75640415 -162.7294186 218.47389302 -158.45703125 216.94140625 C-157.60625 216.67457031 -156.75546875 216.40773438 -155.87890625 216.1328125 C-148.32261156 213.52519547 -141.0156714 208.83597749 -137.39453125 201.44140625 C-136.12484527 196.70124527 -135.37874516 192.78089296 -137.16015625 188.08984375 C-140.71538913 182.06717312 -147.1399354 179.36417918 -153.45703125 176.94140625 C-159.16039134 175.53017952 -164.99493871 175.82994999 -170.83203125 175.87890625 C-172.36537109 175.88567383 -172.36537109 175.88567383 -173.9296875 175.89257812 C-176.43886319 175.90430325 -178.94791615 175.92071449 -181.45703125 175.94140625 C-178.19022284 171.4929132 -174.90783478 167.17569781 -171.14453125 163.12890625 C-167.91028331 159.59569422 -164.83366185 155.98676884 -161.83203125 152.25390625 C-158.76806672 148.46650565 -155.60603408 144.97159153 -152.109375 141.5859375 C-150.44857524 139.93299022 -148.92080734 138.21888987 -147.39453125 136.44140625 C-142.22666531 130.45634992 -136.76898964 124.73671011 -131.35839844 118.97216797 C-129.49220848 116.97897741 -127.63375699 114.97885797 -125.77734375 112.9765625 C-116.88770274 103.40834987 -107.75167834 94.11620568 -98.45703125 84.94140625 C-97.93028809 85.34697754 -97.40354492 85.75254883 -96.86083984 86.17041016 C-96.15781738 86.70585449 -95.45479492 87.24129883 -94.73046875 87.79296875 C-94.03872559 88.32229004 -93.34698242 88.85161133 -92.63427734 89.39697266 C-82.73336048 96.42020657 -71.26807904 95.94628235 -59.6484375 94.62109375 C-57.50643877 94.201094 -55.52268024 93.64340415 -53.45703125 92.94140625 C-52.65265625 92.69648438 -51.84828125 92.4515625 -51.01953125 92.19921875 C-43.84901937 89.72888996 -36.66556772 85.45694897 -33.23046875 78.43359375 C-31.63071738 73.27883934 -31.71134613 69.4327765 -34.08203125 64.69140625 C-40.69114814 57.03874459 -49.35967964 55.07938893 -59.08203125 54.25390625 C-60.87303268 54.13886712 -62.66456287 54.03072168 -64.45703125 53.94140625 C-56.95716738 44.56657642 -47.75174396 36.88069676 -38.4296875 29.3828125 C-34.91436286 26.49571933 -31.50135589 23.5033672 -28.08203125 20.50390625 C-22.30761372 15.45248732 -16.38554484 10.68263851 -10.26171875 6.0625 C-7.42870541 3.98897691 -7.42870541 3.98897691 -4.90234375 1.6015625 C-2.45703125 -0.05859375 -2.45703125 -0.05859375 0 0 Z " fill="#FDCA5D" transform="translate(249.45703125,84.05859375)"/>
<path d="M0 0 C1.00063477 0.50031738 2.00126953 1.00063477 3.03222656 1.51611328 C44.64424944 22.58827133 83.14352435 53.26843924 111.875 90.125 C112.31634277 90.68848145 112.75768555 91.25196289 113.21240234 91.83251953 C147.15951944 135.39236159 183.53455624 200.94454088 180.875 258.125 C180.16537109 257.52751953 180.16537109 257.52751953 179.44140625 256.91796875 C172.3968345 251.27407208 165.60301875 248.45204352 156.48046875 248.77734375 C147.00888537 250.04116822 138.06286361 254.71672251 131.5 261.625 C127.63922951 267.56464691 125.80567996 272.0362492 126.875 279.125 C128.72559482 284.9590786 131.76666981 288.68670083 136.875 292.125 C141.9842171 294.7538088 147.14476437 296.14469377 152.875 295.125 C157.16836679 293.55256405 160.86685433 291.627152 163.875 288.125 C164.80367074 285.33898777 165.03842217 283.51433911 165.0625 280.625 C165.07667969 279.8515625 165.09085938 279.078125 165.10546875 278.28125 C165.01161528 275.82819944 165.01161528 275.82819944 162.875 273.125 C160.81574861 272.40117533 160.81574861 272.40117533 158.875 272.125 C159.37 272.785 159.865 273.445 160.375 274.125 C162.2807352 277.9364704 162.64654332 280.93662198 161.875 285.125 C159.69721495 288.70278973 157.70537737 290.54288761 153.875 292.125 C147.1373535 293.11043809 141.41298468 292.14926887 135.875 288.125 C131.85869864 284.29852383 129.76683498 280.56875514 129.4375 275 C129.55155086 269.14538931 131.89045433 265.30763016 135.875 261.125 C145.32763092 253.77295373 153.92285593 250.96928472 165.875 252.125 C172.1509166 253.82366787 176.24992848 257.86056493 179.875 263.125 C181.96919823 266.8672099 182.59674197 269.88571557 181.875 274.125 C178.84820197 284.23309759 173.69361647 292.52606228 164.5 298 C155.84955669 302.28812713 146.92549976 304.85231812 137.33984375 302.50390625 C129.56338038 299.799572 122.85641493 294.69906244 118.4375 287.6875 C115.31115224 280.5594271 114.55403802 273.13280787 113.9375 265.4375 C108.75543679 208.15057789 89.12262406 155.10211565 52.875 110.125 C51.73998047 108.68253906 51.73998047 108.68253906 50.58203125 107.2109375 C36.7639905 90.20749785 20.80621226 74.71020242 2.875 62.125 C1.73757731 61.30436021 0.60082686 60.48278765 -0.53515625 59.66015625 C-13.58606302 50.38338777 -26.94205194 42.98300827 -41.55761719 36.46166992 C-47.42103156 33.76674394 -51.68156646 31.68976788 -55.125 26.125 C-56.3251625 22.22279568 -55.88526566 18.66839646 -54.0859375 15.015625 C-41.82509069 -2.65643354 -19.00076428 -9.83956502 0 0 Z " fill="#FD755A" transform="translate(317.125,43.875)"/>
<path d="M0 0 C0.90242432 0.47493896 1.80484863 0.94987793 2.73461914 1.43920898 C25.7175847 13.72019826 47.52572181 29.00538746 66.62890625 46.75 C68.67254149 48.63946051 70.75054318 50.45341918 72.875 52.25 C81.94096409 60.15940077 90.42495564 68.80567576 97.87109375 78.25390625 C99.829347 80.70783145 101.86471609 83.06957853 103.93847656 85.42578125 C145.12495966 132.61313786 178.62579538 207.56021107 176.37890625 270.98046875 C175.13917416 282.81149228 169.56858277 291.57574455 160.56640625 299.20703125 C151.23096822 305.89184569 141.36550168 307.96109356 130.0625 307 C124.06412462 305.70565266 119.28987758 304.10709003 114.7109375 299.99609375 C108.72432782 295.36595807 101.20995998 295.37050844 93.9375 294.6875 C92.50235938 294.53285402 91.06745849 294.37596618 89.6328125 294.21679688 C76.47461321 292.78983779 63.28790905 291.92290912 50.0625 291.4375 C49.02222656 291.39431641 47.98195313 291.35113281 46.91015625 291.30664062 C29.36275805 290.64939563 11.8523304 290.94032448 -5.68188477 291.79956055 C-8.53052691 291.93899421 -11.37945183 292.07066371 -14.22851562 292.20117188 C-22.95471157 292.60872891 -31.65788407 293.09421675 -40.36450195 293.81030273 C-43.49818732 294.04133732 -46.60853541 294.10034897 -49.75 294.0625 C-50.74644531 294.05347656 -51.74289062 294.04445313 -52.76953125 294.03515625 C-53.48496094 294.02355469 -54.20039063 294.01195312 -54.9375 294 C-53.40821935 302.26767351 -50.58131908 309.40724623 -46.80664062 316.85913086 C-42.07384475 326.34380647 -40.24808356 336.30139343 -42.5546875 346.8125 C-45.09358663 354.18204793 -49.76971489 358.60352356 -56.4375 362.4375 C-63.02610967 363.91993718 -68.04490015 363.33543388 -73.9375 360 C-77.96182346 356.10046176 -80.13121882 352.65698897 -80.5 347.0625 C-80.5 339.92624027 -77.882503 334.27011339 -74.87133789 327.93969727 C-71.61434207 320.96376713 -69.64610117 314.22769993 -72.25 306.6875 C-72.51425781 305.88699219 -72.77851563 305.08648437 -73.05078125 304.26171875 C-73.89868115 302.09901373 -74.85979842 300.05657463 -75.9375 298 C-86.0131863 298.46160332 -95.91766694 299.56544672 -105.90258789 300.98364258 C-110.97222609 301.68738469 -115.81896607 302.16350872 -120.9375 302 C-121.09605469 302.64324219 -121.25460938 303.28648437 -121.41796875 303.94921875 C-128.5067105 331.40340642 -128.5067105 331.40340642 -140.9375 339 C-146.10765547 340.72338516 -151.25420494 341.0844627 -156.3828125 339.01171875 C-162.67134055 335.2279434 -165.5951688 330.35830334 -168.9375 324 C-170.16220982 321.71905635 -171.38882295 319.43913378 -172.6171875 317.16015625 C-173.24093262 316.00265869 -173.86467773 314.84516113 -174.50732422 313.65258789 C-174.97928223 312.77723389 -175.45124023 311.90187988 -175.9375 311 C-185.80482278 312.39633219 -195.6717019 313.79575513 -205.53803825 315.19904137 C-210.12020007 315.85066369 -214.70250366 316.50125139 -219.28515625 317.14941406 C-223.71403158 317.77586661 -228.14250158 318.40511596 -232.57071304 319.03624344 C-234.25370492 319.27562132 -235.93683648 319.51401937 -237.62011337 319.75138474 C-252.70230196 320.48146422 -252.70230196 320.48146422 -264.9375 326.5390625 C-265.4325 328.06660156 -265.4325 328.06660156 -265.9375 329.625 C-266.30230469 330.71167969 -266.66710937 331.79835938 -267.04296875 332.91796875 C-267.33816406 333.93503906 -267.63335937 334.95210938 -267.9375 336 C-268.18113281 336.69738281 -268.42476563 337.39476562 -268.67578125 338.11328125 C-273.58276775 353.70214313 -267.03137925 369.7703234 -261.40014648 384.21533203 C-256.81697951 396.11803746 -254.05068545 409.9640684 -259.03515625 422.20703125 C-261.53915416 427.18250762 -264.58837651 429.9865748 -269.6015625 432.26953125 C-276.54756664 434.44160947 -283.50685012 433.60841389 -289.93359375 430.3203125 C-295.41908034 426.70609326 -298.77493179 421.79274679 -300.51953125 415.48046875 C-302.40624875 404.28359388 -297.78085153 394.18579648 -293.67773438 384.0078125 C-291.34482564 377.68002837 -290.78483561 371.17319537 -293.3125 364.8125 C-296.018808 359.29394312 -299.7886371 354.4344756 -303.40234375 349.48828125 C-314.96018084 333.65521276 -320.1298804 318.52706301 -317.66943359 298.85693359 C-314.83918876 282.19171541 -305.85869713 266.61305862 -295.24609375 253.6875 C-288.97738739 246.24817144 -288.97738739 246.24817144 -287.04296875 236.91796875 C-286.76748353 231.90821908 -282.64168044 228.5780907 -279.1875 225.375 C-276.55013714 223.12276037 -274.19773827 221.56483849 -271 220.25 C-265.65927764 217.78186035 -262.72205386 213.19689595 -259.21630859 208.62988281 C-256.90021886 205.67795172 -254.44759408 202.84301953 -252 200 C-251.49218994 199.40832031 -250.98437988 198.81664062 -250.46118164 198.20703125 C-246.4411297 193.54164338 -242.32285528 188.97622731 -238.16015625 184.4375 C-236.26328236 182.35727275 -234.40357057 180.25443102 -232.5625 178.125 C-228.11876575 173.01522596 -223.49817373 168.06555764 -218.88476562 163.109375 C-217.36870286 161.46710039 -215.86456008 159.81381889 -214.36523438 158.15625 C-209.06051254 152.31219699 -203.64070251 146.66024077 -197.9296875 141.2109375 C-196.74725258 140.07306551 -195.5649612 138.93504434 -194.3828125 137.796875 C-192.58746103 136.06962647 -190.78656896 134.35080958 -188.96484375 132.65136719 C-179.52260207 124.17229886 -179.52260207 124.17229886 -176.17260742 112.31445312 C-175.74399882 108.09512857 -173.10841436 105.59128485 -169.9375 103 C-165.21135764 99.74317319 -160.14739975 97.6789364 -154.8125 95.625 C-150.02921642 93.68746741 -146.98674765 91.63668894 -143.56640625 87.8125 C-141.86161469 85.91556166 -140.05911135 84.28610557 -138.125 82.625 C-135.08166912 80.00305339 -132.09397726 77.33090333 -129.125 74.625 C-124.80489209 70.72636603 -120.35678619 67.02496142 -115.83203125 63.3671875 C-113.32377168 61.3158983 -110.85611567 59.22532672 -108.3996582 57.11254883 C-102.87802279 52.37231698 -97.22492464 47.84949024 -91.4375 43.4375 C-90.72255371 42.88755371 -90.00760742 42.33760742 -89.27099609 41.77099609 C-85.9053755 39.19566457 -82.52479812 36.69357407 -79 34.33984375 C-72.7372124 30.36459097 -72.7372124 30.36459097 -69.09375 24.21875 C-68.90141921 21.38724259 -68.90141921 21.38724259 -69 18.59765625 C-68.85058236 12.38748557 -64.23278304 8.05204887 -60 3.9375 C-40.66472041 -12.42808723 -21.28526332 -11.21678299 0 0 Z M-62.9375 14 C-64.94305847 17.0083377 -65.27413294 17.87708649 -65.375 21.3125 C-65.41496094 22.05113281 -65.45492187 22.78976563 -65.49609375 23.55078125 C-64.64237671 27.29400211 -62.81466169 29.58848371 -59.9375 32 C-56.20859197 34.15919607 -52.31089625 35.8790965 -48.375 37.625 C-30.00727364 46.12911896 -13.66998167 56.28911942 2.0625 69 C2.89958496 69.6612085 3.73666992 70.32241699 4.59912109 71.00366211 C11.67175495 76.65937511 18.18953008 82.76738568 24.5625 89.1875 C25.06551636 89.69200684 25.56853271 90.19651367 26.08679199 90.71630859 C33.71546313 98.38556744 40.73622279 106.2176387 47.0625 115 C47.94857574 116.16133889 48.83801558 117.32011727 49.73046875 118.4765625 C60.48986429 132.55415182 69.54075556 147.88818375 77.07958984 163.91455078 C77.75937015 165.3568467 78.44777504 166.79509766 79.14306641 168.22998047 C94.18100277 199.31620435 102.71916009 233.7830217 104.5625 268.25 C105.21805196 279.3943834 107.52943261 288.04855144 115.94921875 295.71875 C122.45930975 300.93705477 128.87499835 303.65442314 137.2890625 303.34375 C148.97071116 301.89588369 157.96078465 297.31694428 165.375 288.1875 C169.67720639 282.0038273 173.33726091 274.64856549 172.0625 267 C169.23177226 260.73626203 165.00639527 255.9016405 158.76171875 252.890625 C151.12866885 250.37204993 142.62657663 251.33579355 135.4140625 254.671875 C128.6235144 258.50706828 122.98779774 262.62316223 120.0625 270 C119.21414484 275.63268368 119.70009977 280.27162468 123.0625 285 C128.99981431 290.26936645 133.58727834 292.35881581 141.55078125 292.2890625 C145.2043246 291.8685925 147.33108304 290.38998984 150.0625 288 C152.52622552 284.30441172 152.63833561 281.28955801 152.0625 277 C150.7115712 274.0745356 150.7115712 274.0745356 149.0625 272 C150.9375 272.3125 150.9375 272.3125 153.0625 273 C155.7645964 277.05314459 155.59077017 280.2455685 155.0625 285 C153.22116581 289.60333548 150.28216689 291.53852765 146.0625 294 C139.35171923 296.23692692 133.73472845 295.08491296 127.3984375 292.3359375 C122.85896147 289.73978231 120.26390056 286.07514643 117.6875 281.625 C116.27301431 275.6841601 116.29853199 270.82597214 119.125 265.3125 C124.47856516 256.73784829 132.53692523 252.26916186 142.109375 249.3828125 C150.31596151 247.77432154 157.6202962 249.35460127 165.0625 253 C167.31588072 254.53264623 169.10044646 256.09097494 171.0625 258 C172.25393415 221.46268592 154.72047507 180.04028003 139.0625 148 C138.64887207 147.15211914 138.23524414 146.30423828 137.80908203 145.43066406 C125.14164783 119.7690259 108.27393665 96.15927075 89.0625 75 C88.50062988 74.37641602 87.93875977 73.75283203 87.35986328 73.11035156 C75.84900022 60.37534312 63.61360607 48.56374404 50.0625 38 C49.49901855 37.55865723 48.93553711 37.11731445 48.35498047 36.66259766 C31.93648671 23.86731412 14.50738097 12.6438741 -3.9375 3 C-4.68193359 2.60345215 -5.42636719 2.2069043 -6.19335938 1.79833984 C-26.52873595 -8.9361729 -48.52971098 -5.84306272 -62.9375 14 Z M-67.9375 31 C-77.38111535 38.19816887 -86.69796385 45.54183175 -95.9375 53 C-96.89527344 53.77214844 -97.85304687 54.54429688 -98.83984375 55.33984375 C-108.96926348 63.56534905 -118.88625931 72.05220996 -128.54296875 80.828125 C-130.26548514 82.39047265 -131.99856854 83.94119887 -133.73828125 85.484375 C-134.64964844 86.29390625 -135.56101563 87.1034375 -136.5 87.9375 C-137.32628906 88.66839844 -138.15257812 89.39929688 -139.00390625 90.15234375 C-141.00760189 91.85878582 -141.00760189 91.85878582 -141.9375 94 C-140.82632813 94.08636719 -139.71515625 94.17273438 -138.5703125 94.26171875 C-128.61951594 95.15351959 -119.61727957 96.0919385 -112.375 103.6875 C-109.79831099 107.83260841 -109.46633182 111.17052612 -109.9375 116 C-112.18831768 122.89312914 -117.59694698 127.27655819 -123.8828125 130.51953125 C-135.32112354 135.49333317 -149.32280855 137.23481231 -161.56640625 134.05859375 C-167.25814504 131.78617238 -171.30486232 128.91829993 -175.9375 125 C-179.37303609 128.41057132 -182.80508565 131.8246019 -186.23413086 135.24169922 C-187.39792274 136.40050319 -188.56261549 137.55840322 -189.72827148 138.71533203 C-195.52703133 144.47180148 -201.28050229 150.20183661 -206.58374023 156.42578125 C-208.27176779 158.3887031 -210.07563572 160.20233794 -211.9375 162 C-215.06504053 165.08583999 -217.97132257 168.281243 -220.83203125 171.61328125 C-223.04350198 174.1201618 -225.31743869 176.55761926 -227.60546875 178.99438477 C-232.88067599 184.61287279 -237.92682936 190.31229761 -242.7421875 196.3359375 C-245.89874754 200.16649612 -249.2780153 203.77790759 -252.67578125 207.39453125 C-255.06536962 210.14730404 -256.97982461 212.93133263 -258.9375 216 C-258.31294922 215.98952637 -257.68839844 215.97905273 -257.04492188 215.96826172 C-254.17582329 215.92631894 -251.30678952 215.90055347 -248.4375 215.875 C-247.45523438 215.85824219 -246.47296875 215.84148437 -245.4609375 215.82421875 C-235.34635027 215.75678817 -224.93935514 217.49494271 -217.19140625 224.6015625 C-214.35077531 228.12619806 -213.17705665 231.30840621 -213.52734375 235.9609375 C-215.05820427 243.57150122 -219.58103784 248.76235856 -225.9375 253 C-239.73719042 260.09698364 -255.00524654 262.62590661 -270.0625 258.25 C-275.9468078 256.1864819 -280.3976293 254.30980605 -283.9375 249 C-288.38455193 250.53776562 -290.56631947 254.07520318 -293.1875 257.75 C-293.66985107 258.4210376 -294.15220215 259.0920752 -294.64916992 259.78344727 C-307.27649473 277.62590539 -316.67227964 296.85654249 -313.4765625 319.2265625 C-310.7901554 331.20477768 -304.7999557 340.57472549 -297.27734375 350.015625 C-290.4021065 358.7847089 -286.60145622 366.39437452 -287.578125 377.82861328 C-288.55749932 383.74611004 -291.05954034 389.32015497 -293.30859375 394.84765625 C-296.17226856 401.93115316 -297.38517469 409.82848742 -295.2890625 417.31640625 C-293.04677216 422.36635072 -289.76854797 425.38831977 -284.9375 428 C-280.86702653 429.35682449 -277.19358283 429.52472254 -272.9375 429 C-267.64729522 426.30499002 -264.03247792 422.79871614 -261.85546875 417.234375 C-258.81088714 406.5070832 -261.51143755 396.46876946 -265.11962891 386.31738281 C-266.37079583 382.77228537 -267.55527648 379.20538635 -268.74389648 375.63891602 C-269.36162509 373.78860708 -269.98463555 371.94005111 -270.61352539 370.09350586 C-271.04459595 368.81938843 -271.04459595 368.81938843 -271.484375 367.51953125 C-271.74057617 366.76776611 -271.99677734 366.01600098 -272.26074219 365.24145508 C-276.69323038 350.56083673 -274.00069019 336.22469475 -267.328125 322.75 C-259.78573362 309.18753476 -251.04027266 299.14902834 -236.17260742 293.91455078 C-230.06603927 292.18825055 -223.79128431 291.57649387 -217.5 290.875 C-214.83336073 290.56913295 -212.16871543 290.25164647 -209.50390625 289.9296875 C-207.75509155 289.73221924 -207.75509155 289.73221924 -205.97094727 289.53076172 C-203.21330647 289.04825781 -201.325765 288.41513229 -198.9375 287 C-204.46012242 283.97818773 -209.56411882 282.17072128 -215.71484375 280.80859375 C-216.44832031 280.54175781 -217.18179688 280.27492188 -217.9375 280 C-218.2675 279.01 -218.5975 278.02 -218.9375 277 C-199.60215238 280.51551775 -184.14364078 290.59497239 -172.93359375 306.69921875 C-169.89104702 311.73043594 -167.23094814 316.96867363 -164.70068359 322.27539062 C-161.70933667 328.31534705 -158.07166924 332.93291538 -151.9375 336 C-146.62664466 336.35258791 -142.74784121 335.33323601 -138.625 331.9375 C-132.54375976 326.51920419 -130.35694865 318.6140538 -128.0625 311.0625 C-124.72276966 300.67269846 -120.70787551 292.6242752 -110.9375 287 C-103.35949029 283.19658828 -94.14234335 282.28388476 -86.05859375 284.94921875 C-76.98649821 289.23514168 -71.79428875 295.87830981 -67.625 304.8125 C-65.17668064 316.16379884 -68.4678512 325.08572391 -73.5625 335.23828125 C-75.98416057 340.10224154 -76.90772694 345.60047615 -75.9375 351 C-74.19228335 354.02156912 -72.10421284 356.41664358 -68.9375 358 C-63.70909666 358.52113171 -59.29713246 358.64273534 -54.5 356.375 C-49.10706706 351.37667191 -45.91800059 345.84701211 -45.5625 338.5 C-45.83626892 327.59755542 -50.76061723 317.74102311 -55.44921875 308.1171875 C-58.47339743 301.78308097 -58.75932158 295.937141 -57.9375 289 C-55.21332628 281.9608183 -49.62267727 277.25539067 -42.9375 274 C-31.74428198 270.96264436 -20.41538108 272.90049193 -9.58544922 276.22119141 C-2.54144976 278.34422712 3.90252069 279.1231479 10.9609375 276.234375 C13.53103338 274.72480195 15.4232263 272.88738085 17.5625 270.8125 C24.85343473 263.86279466 36.28520145 257.16403416 46.51171875 256.68359375 C47.35927734 256.64169922 48.20683594 256.59980469 49.08007812 256.55664062 C49.96115234 256.51732422 50.84222656 256.47800781 51.75 256.4375 C53.08901367 256.37272461 53.08901367 256.37272461 54.45507812 256.30664062 C56.65740108 256.20064647 58.85983473 256.09857949 61.0625 256 C60.7325 256.99 60.4025 257.98 60.0625 259 C58.93972656 259.03738281 57.81695312 259.07476562 56.66015625 259.11328125 C48.63613952 259.44369774 41.56523713 259.86249174 34.0625 263 C34.0625 263.33 34.0625 263.66 34.0625 264 C35.41106079 264.07516846 35.41106079 264.07516846 36.78686523 264.15185547 C41.02475579 264.38985735 45.26244329 264.63113339 49.5 264.875 C50.26737488 264.91913025 51.03474976 264.9632605 51.82537842 265.00872803 C62.96158144 265.65373579 74.08046734 266.4098479 85.19311523 267.39013672 C90.50910196 267.84846709 95.72639306 268.08788882 101.0625 268 C101.32834206 260.22603432 100.54603638 252.80429625 99.375 245.125 C99.10381348 243.34162231 99.10381348 243.34162231 98.82714844 241.5222168 C92.08033046 198.82589299 74.65942899 157.79913073 49.0625 123 C48.6387207 122.42072754 48.21494141 121.84145508 47.77832031 121.24462891 C42.67641885 114.31725847 37.23082901 107.79985884 31.37109375 101.4921875 C29.34309379 99.30290836 27.38038817 97.07700005 25.4375 94.8125 C19.49412874 87.99223789 12.99969865 81.7977554 6.0625 76 C5.55895996 75.57734863 5.05541992 75.15469727 4.53662109 74.71923828 C-15.77111145 57.77351781 -38.03994108 44.89519658 -62.02490234 33.89453125 C-64.01408881 32.96417904 -65.97746428 31.99010428 -67.9375 31 Z " fill="#0A0602" transform="translate(326.9375,44)"/>
<path d="M0 0 C0.66 0.33 1.32 0.66 2 1 C1.319375 1.556875 0.63875 2.11375 -0.0625 2.6875 C-2.21096903 4.81284322 -2.21096903 4.81284322 -2.25 7.4375 C0.72184813 13.52978866 8.40419142 15.66321836 14.3125 18.1875 C38.72526023 28.62544428 61.19182394 42.91773075 80.73828125 60.921875 C82.79026416 62.80728935 84.88151954 64.62770033 87 66.4375 C94.57118146 73.04507655 101.58021413 80.27319186 108 88 C108.62962646 88.75095947 108.62962646 88.75095947 109.27197266 89.51708984 C140.33192419 126.73501438 161.56302523 171.46678627 170.10546875 219.16015625 C170.40211542 220.77371961 170.70028029 222.38700463 171 224 C171.14904785 224.82999512 171.2980957 225.65999023 171.45166016 226.51513672 C171.6863501 227.71227295 171.6863501 227.71227295 171.92578125 228.93359375 C172.06024658 229.64443115 172.19471191 230.35526855 172.33325195 231.08764648 C173.14191758 233.4070452 174.05966366 234.50666445 176 236 C180.71885324 235.83817376 183.6255838 234.22364904 187.4375 231.5625 C195.46283192 226.29857261 202.48921927 225.16005333 212 226 C216.62803149 227.13221485 219.88695386 229.38886648 223 233 C223.66 232.67 224.32 232.34 225 232 C227.29612756 245.6332574 227.29612756 245.6332574 227 252 C226.29037109 251.40251953 226.29037109 251.40251953 225.56640625 250.79296875 C218.5218345 245.14907208 211.72801875 242.32704352 202.60546875 242.65234375 C193.13388537 243.91616822 184.18786361 248.59172251 177.625 255.5 C173.76422951 261.43964691 171.93067996 265.9112492 173 273 C174.85059482 278.8340786 177.89166981 282.56170083 183 286 C188.1092171 288.6288088 193.26976437 290.01969377 199 289 C203.29336679 287.42756405 206.99185433 285.502152 210 282 C210.92867074 279.21398777 211.16342217 277.38933911 211.1875 274.5 C211.20167969 273.7265625 211.21585938 272.953125 211.23046875 272.15625 C211.13661528 269.70319944 211.13661528 269.70319944 209 267 C206.94074861 266.27617533 206.94074861 266.27617533 205 266 C205.495 266.66 205.99 267.32 206.5 268 C208.4057352 271.8114704 208.77154332 274.81162198 208 279 C205.82221495 282.57778973 203.83037737 284.41788761 200 286 C193.2623535 286.98543809 187.53798468 286.02426887 182 282 C177.98369864 278.17352383 175.89183498 274.44375514 175.5625 268.875 C175.67655086 263.02038931 178.01545433 259.18263016 182 255 C191.45263092 247.64795373 200.04785593 244.84428472 212 246 C218.2759166 247.69866787 222.37492848 251.73556493 226 257 C228.09419823 260.7422099 228.72174197 263.76071557 228 268 C224.97320197 278.10809759 219.81861647 286.40106228 210.625 291.875 C201.97455669 296.16312713 193.05049976 298.72731812 183.46484375 296.37890625 C175.68838038 293.674572 168.98141493 288.57406244 164.5625 281.5625 C161.43615224 274.4344271 160.67903802 267.00780787 160.0625 259.3125 C154.88043679 202.02557789 135.24762406 148.97711565 99 104 C97.86498047 102.55753906 97.86498047 102.55753906 96.70703125 101.0859375 C82.8889905 84.08249785 66.93121226 68.58520242 49 56 C47.86257731 55.17936021 46.72582686 54.35778765 45.58984375 53.53515625 C32.53893698 44.25838777 19.18294806 36.85800827 4.56738281 30.33666992 C-1.29603156 27.64174394 -5.55656646 25.56476788 -9 20 C-9.96742979 16.85450201 -9.77552546 14.18827133 -9 11 C-6.64100296 6.75380532 -3.45151487 3.37896051 0 0 Z " fill="#EC5440" transform="translate(271,50)"/>
<path d="M0 0 C6.04384055 5.27079118 10.61691392 10.91617132 11.62890625 19.12109375 C12.08647328 27.63774458 8.38716195 34.59078527 3.1953125 41.15234375 C-4.9753193 49.72624708 -16.11469313 54.4814356 -27.25 57.8125 C-27.95455322 58.02342285 -28.65910645 58.2343457 -29.38500977 58.45166016 C-50.1221729 64.35304964 -76.22317138 63.08599842 -95.1953125 52.6484375 C-102.64779963 47.92431854 -110.13335416 41.84883008 -112.625 33.0625 C-113.83915147 24.92240622 -112.88091842 18.55198776 -108.5 11.5546875 C-97.70558517 -2.79288888 -79.41504545 -9.38439017 -62.3125 -12.55078125 C-41.22005378 -14.76280686 -17.45719448 -13.34505534 0 0 Z " fill="#EC5440" transform="translate(256.625,229.9375)"/>
<path d="M0 0 C4.71035563 3.55034268 8.52682576 8.11661641 9.5 14.05859375 C9.75966974 21.5565575 8.16376041 26.03575337 3.09375 31.578125 C-8.72944197 43.14479801 -25.44541373 46.51280064 -41.46875 47.015625 C-54.02390825 46.71101673 -66.80773816 43.44219058 -76.03515625 34.51953125 C-81.03932967 29.00988577 -82.40308253 24.9505309 -82.3046875 17.4921875 C-81.37524808 10.6945227 -76.85338779 6.11495912 -71.78125 1.828125 C-51.80589328 -12.69022027 -20.59533075 -13.23985548 0 0 Z " fill="#110905" transform="translate(341.90625,157.421875)"/>
<path d="M0 0 C3.42848195 3.25705785 4.79560903 6.09920986 5.15625 10.88671875 C4.75128114 16.36392265 1.78164741 20.56553159 -2.125 24.25 C-6.30271738 27.54914162 -10.97696083 29.35555265 -16 31 C-17.07894531 31.35835938 -18.15789062 31.71671875 -19.26953125 32.0859375 C-31.39608551 35.05726074 -44.07960526 33.56581224 -55.14453125 27.90234375 C-59.782651 25.02182728 -62.53211601 21.26544194 -64 16 C-64.61406806 10.75750854 -63.41362722 6.96376664 -60.1875 2.8125 C-45.11328646 -12.60011425 -16.37955936 -13.60336286 0 0 Z " fill="#120A05" transform="translate(386,248)"/>
<path d="M0 0 C3.82653904 3.2119136 3.82653904 3.2119136 4.49609375 6.25390625 C4.46708984 7.39666016 4.46708984 7.39666016 4.4375 8.5625 C4.43621094 9.32691406 4.43492187 10.09132812 4.43359375 10.87890625 C3.87759248 13.59880436 3.22730645 14.34703043 1 16 C-3.23368917 17.92804493 -7.61537643 19.44998779 -12 21 C-12.71414062 21.25265625 -13.42828125 21.5053125 -14.1640625 21.765625 C-18.15544884 23.04141059 -21.83308492 23.17007817 -26 23 C-25.67 22.01 -25.34 21.02 -25 20 C-24.154375 19.5875 -23.30875 19.175 -22.4375 18.75 C-21.633125 18.1725 -20.82875 17.595 -20 17 C-19.25 13.5 -19.25 13.5 -20 10 C-21.81270161 7.63560659 -23.31392845 7.13404595 -26.19921875 6.5703125 C-30.73008892 5.82295755 -30.73008892 5.82295755 -35 7 C-35 7.66 -35 8.32 -35 9 C-33.14375 8.938125 -33.14375 8.938125 -31.25 8.875 C-28.01759932 8.88644213 -25.61718552 8.90625158 -23 11 C-22.25 13.125 -22.25 13.125 -22 15 C-27.75 18 -27.75 18 -30 18 C-29.2236068 21.0745356 -29.2236068 21.0745356 -27 23 C-33.70278214 26.35139107 -45.765013 24.01543677 -53 23 C-52.01 22.34 -51.02 21.68 -50 21 C-49.505 19.515 -49.505 19.515 -49 18 C-50.0209375 18.2475 -50.0209375 18.2475 -51.0625 18.5 C-55.28717616 19.21909381 -59.22239502 19.51456986 -63.375 18.3125 C-65 17 -65 17 -65.875 14.625 C-66.01261321 11.73512258 -65.52194825 10.41721193 -64 8 C-65.99863756 8.57944932 -65.99863756 8.57944932 -68 10 C-69.29231642 13.04199472 -69.29231642 13.04199472 -70 16 C-76.19910513 12.37125553 -82.02542781 7.63840283 -83.9375 0.5 C-83.958125 -0.325 -83.97875 -1.15 -84 -2 C-59.67295039 -15.35085369 -23.36605953 -16.49120808 0 0 Z " fill="#FB7459" transform="translate(253,232)"/>
<path d="M0 0 C1.34636748 0.03428085 2.69280949 0.06574232 4.03930664 0.09448242 C6.73361514 0.15891694 9.42573291 0.24523613 12.11865234 0.35302734 C15.38800193 0.48094548 18.65486085 0.57179478 21.92578125 0.64453125 C35.02856718 1.00901507 47.9153722 2.59142639 60.875 4.5 C61.68891255 7.08289592 62.50117929 9.66628997 63.3125 12.25 C63.54259766 12.97960937 63.77269531 13.70921875 64.00976562 14.4609375 C64.23212891 15.16992188 64.45449219 15.87890625 64.68359375 16.609375 C64.88782959 17.25874023 65.09206543 17.90810547 65.30249023 18.57714844 C65.88669727 20.53928688 66.39310648 22.51049584 66.875 24.5 C65.84842285 24.38406494 64.8218457 24.26812988 63.76416016 24.14868164 C59.86188506 23.70936123 55.95888579 23.27676892 52.05566406 22.84594727 C50.38391821 22.66053487 48.71235909 22.47342901 47.04101562 22.28442383 C27.39228328 20.065064 7.95907825 19.29716101 -11.8125 19.3125 C-12.8941745 19.31210724 -13.975849 19.31171448 -15.09030151 19.31130981 C-35.09388039 19.31993766 -54.99718328 20.08525266 -74.95587158 21.36346436 C-78.87479206 21.61014055 -82.79485057 21.8375242 -86.71484375 22.06640625 C-87.45859756 22.10998764 -88.20235138 22.15356903 -88.96864319 22.19847107 C-90.6874182 22.29916171 -92.40620741 22.39960987 -94.125 22.5 C-92.93413113 17.08383677 -90.05779082 13.8511838 -85.5625 10.6875 C-76.29283656 5.8928465 -63.89321321 7.40340697 -54.23510742 10.30200195 C-52.79574227 10.76442975 -51.35709018 11.22908343 -49.91918945 11.69604492 C-41.44137312 14.44226657 -36.13771623 14.70740092 -28 10.9375 C-25.12913903 9.47025942 -22.69145994 8.10365429 -20.47412109 5.74072266 C-14.30618897 -0.73273154 -8.59477667 -0.3700115 0 0 Z " fill="#EBAF36" transform="translate(367.125,311.5)"/>
<path d="M0 0 C1.6484375 1.578125 1.6484375 1.578125 2.1484375 5.390625 C1.84808718 10.52473828 -0.28499124 13.45173194 -3.8359375 17.10546875 C-15.33702685 27.10530971 -31.51700855 27.77285661 -45.96435547 26.82177734 C-54.13205747 25.9881338 -61.53617288 22.40808954 -67.3515625 16.578125 C-69.93116652 12.43718171 -70.16090828 8.32863284 -69.3515625 3.578125 C-54.50577521 -14.85112819 -17.78103815 -10.75132539 0 0 Z " fill="#F97358" transform="translate(340.3515625,160.421875)"/>
<path d="M0 0 C0.33 0 0.66 0 1 0 C1.08636719 0.71285156 1.17273438 1.42570313 1.26171875 2.16015625 C2.41939384 10.05146442 3.98207351 14.94767197 10.421875 19.83984375 C27.12301378 30.99752545 46.28238761 33.69096922 66.01220703 30.51513672 C79.64484127 27.6009899 94.25077474 22.49408024 103 11 C104.18944448 8.97006479 105.22495099 6.94807468 106.17578125 4.796875 C107 3 107 3 109 0 C111.80870942 4.83910177 111.71023714 9.54745025 111 15 C107.29189238 25.47871484 98.60452044 32.15072464 89 37 C76.19433576 42.74383669 63.65226375 45.55259862 49.625 45.375 C48.44252686 45.36339844 47.26005371 45.35179687 46.04174805 45.33984375 C29.77843963 45.03591933 13.04263403 41.96028816 0.6875 30.4375 C-4.40699092 24.4894818 -5.59794816 18.64301703 -5.43359375 10.95703125 C-4.78934415 6.56336507 -2.95137804 3.29006077 0 0 Z " fill="#EA533F" transform="translate(153,242)"/>
<path d="M0 0 C6.04384055 5.27079118 10.61691392 10.91617132 11.62890625 19.12109375 C12.08647328 27.63774458 8.38716195 34.59078527 3.1953125 41.15234375 C-4.9753193 49.72624708 -16.11469313 54.4814356 -27.25 57.8125 C-27.95455322 58.02342285 -28.65910645 58.2343457 -29.38500977 58.45166016 C-50.1221729 64.35304964 -76.22317138 63.08599842 -95.1953125 52.6484375 C-102.64779963 47.92431854 -110.13335416 41.84883008 -112.625 33.0625 C-113.83915147 24.92240622 -112.88091842 18.55198776 -108.5 11.5546875 C-97.70558517 -2.79288888 -79.41504545 -9.38439017 -62.3125 -12.55078125 C-41.22005378 -14.76280686 -17.45719448 -13.34505534 0 0 Z M-98.625 7.0625 C-100.12089379 11.55018137 -100.58684164 15.69834719 -98.7890625 20.1171875 C-92.70894491 30.60437018 -83.32392996 35.67650778 -71.890625 38.8125 C-52.7982047 42.69570413 -29.69345241 40.96209879 -12.98828125 30.39453125 C-7.05538423 25.95221332 -0.74073289 20.49305832 0.81640625 12.9140625 C0.99508305 9.62871493 1.08398568 7.10954508 -0.8046875 4.3203125 C-5.60307256 -0.11073208 -11.58166646 -2.65598898 -17.625 -4.9375 C-18.6459375 -5.33324219 -19.666875 -5.72898438 -20.71875 -6.13671875 C-43.43602769 -13.56151708 -80.97172247 -11.61026772 -98.625 7.0625 Z M-103.625 12.0625 C-108.31381405 17.28937468 -109.37821126 22.267346 -109.03125 29.171875 C-107.96514208 36.75764289 -104.10123465 41.35293077 -98.29296875 46.17578125 C-81.14877362 58.29971426 -58.01318183 59.44701184 -37.77294922 56.67138672 C-21.77174528 53.69296251 -6.16621396 46.90848599 4.09765625 33.875 C7.65489948 28.32609691 8.60278028 22.55950397 7.375 16.0625 C5.94518383 13.77700386 5.94518383 13.77700386 4.375 12.0625 C4.16746094 12.619375 3.95992188 13.17625 3.74609375 13.75 C-0.53234247 24.34763282 -7.4547065 30.92092129 -17.625 36.0625 C-22.51255769 38.07479406 -27.54253022 39.62039646 -32.625 41.0625 C-33.84703125 41.42988281 -35.0690625 41.79726563 -36.328125 42.17578125 C-53.75809419 46.41595847 -74.07078504 43.57610886 -89.38671875 34.5 C-95.16577165 30.78849657 -99.61839632 27.18559419 -101.31640625 20.23046875 C-101.81529498 17.51274622 -102.25474021 14.80047369 -102.625 12.0625 C-102.955 12.0625 -103.285 12.0625 -103.625 12.0625 Z " fill="#110905" transform="translate(256.625,229.9375)"/>
<path d="M0 0 C1.75 2.25 1.75 2.25 1.875 5.625 C0.22882839 10.92933076 -1.9293506 13.87056637 -6.62890625 16.6640625 C-18.07089463 22.49589562 -29.84007263 25.52549192 -42.5625 22 C-47.35453334 20.37726057 -51.5499017 18.56831586 -54.625 14.375 C-55.54491347 11.24729421 -55.90157632 9.50788159 -55.25 6.25 C-42.09089375 -7.50876173 -16.11687732 -8.67831855 0 0 Z " fill="#F97258" transform="translate(104.25,267.75)"/>
<path d="M0 0 C1.68133927 1.31528192 3.16482502 2.71125489 4.66503906 4.22900391 C5.18453125 4.71175781 5.70402344 5.19451172 6.23925781 5.69189453 C9.21870687 8.55971049 11.0867877 11.07657322 12.29003906 15.04150391 C11.27425781 15.16267578 10.25847656 15.28384766 9.21191406 15.40869141 C7.82127218 15.57782353 6.43064815 15.74710244 5.04003906 15.91650391 C4.04617187 16.03445313 4.04617187 16.03445313 3.03222656 16.15478516 C-2.11473634 16.78601646 -7.21551436 17.61279803 -12.32763672 18.47949219 C-18.1728532 19.45074153 -24.0317616 20.33273047 -29.89038086 21.21875 C-32.00952889 21.53954626 -34.12830633 21.86271329 -36.24707031 22.18603516 C-43.11812498 23.23057171 -49.99331158 24.24639794 -56.87792969 25.19775391 C-58.63592896 25.44235352 -58.63592896 25.44235352 -60.42944336 25.69189453 C-63.55329279 26.02480756 -66.57147113 26.10582821 -69.70996094 26.04150391 C-65.40490892 16.56616883 -56.32876391 8.71847153 -46.70996094 5.04150391 C-42.47145328 4.07375936 -38.20558042 3.48498783 -33.89746094 2.91650391 C-31.66158234 2.60283282 -29.42590247 2.28774168 -27.19042969 1.97119141 C-26.10294434 1.82133789 -25.01545898 1.67148437 -23.89501953 1.51708984 C-20.87102663 1.06555388 -17.88556549 0.51320703 -14.88574219 -0.07568359 C-3.72078892 -2.08563925 -3.72078892 -2.08563925 0 0 Z " fill="#EAAE36" transform="translate(136.7099609375,335.95849609375)"/>
<path d="M0 0 C2.5 2.25 2.5 2.25 3.1875 5.125 C2.2768912 9.26413092 0.7433869 11.63783126 -2.5 14.25 C-13.31118887 20.73671332 -22.96387512 22.20010631 -35.5 21.25 C-40.25400507 20.04512819 -43.47916263 18.19614196 -47.0625 14.875 C-48.91048844 11.50041242 -49.42505802 10.02732023 -48.5 6.25 C-37.45161109 -6.3991498 -14.21628597 -7.10814298 0 0 Z " fill="#F77258" transform="translate(207.5,145.75)"/>
<path d="M0 0 C1.33663454 2.0049518 2.64919943 4.02615394 3.9375 6.0625 C5.84756862 9.15997749 5.84756862 9.15997749 9 11 C9.8971875 9.7625 9.8971875 9.7625 10.8125 8.5 C11.8953125 7.2625 11.8953125 7.2625 13 6 C13.99 6 14.98 6 16 6 C15.814375 6.969375 15.62875 7.93875 15.4375 8.9375 C15.293125 9.948125 15.14875 10.95875 15 12 C16.73956658 13.73956658 19.1936622 13.37190386 21.5625 13.5625 C22.57441406 13.64628906 23.58632813 13.73007813 24.62890625 13.81640625 C25.41136719 13.87699219 26.19382812 13.93757812 27 14 C27 15.32 27 16.64 27 18 C33.435 17.505 33.435 17.505 40 17 C40.33 15.68 40.66 14.36 41 13 C41.99 12.67 42.98 12.34 44 12 C44 11.34 44 10.68 44 10 C39.545 9.01 39.545 9.01 35 8 C35.66 6.68 36.32 5.36 37 4 C39.96844435 3.64661377 42.15598218 3.4582318 44.734375 5.11328125 C46.20348819 6.35503168 47.60704814 7.67337918 49 9 C48.64950425 12.24208567 48.43778819 13.61527704 45.9375 15.8125 C45.298125 16.204375 44.65875 16.59625 44 17 C50.19240462 16.31195504 56.01955594 14.71951285 62 13 C59.29072714 19.11559165 54.66079735 21.79824837 48.6875 24.49609375 C36.16095816 29.28084639 20.48492677 30.61394665 7.625 26.375 C1.7204327 23.69369891 -4.5601661 20.28726427 -7 14 C-7.51354942 10.92951506 -7.56915903 8.06556942 -7 5 C-4.74967395 2.63123574 -2.88305222 1.44152611 0 0 Z " fill="#EA5340" transform="translate(278,159)"/>
<path d="M0 0 C0.2475 0.515625 0.495 1.03125 0.75 1.5625 C1.1625 2.366875 1.575 3.17125 2 4 C2.515625 5.11375 3.03125 6.2275 3.5625 7.375 C7.71083916 14.47124318 15.8424362 17.98036498 23.421875 20.3125 C38.46873839 23.20360039 54.4769729 21.23409245 68 14 C73.16266307 10.24947712 76.78294119 6.49859311 80 1 C80.33 1 80.66 1 81 1 C81.63725203 7.69114628 80.94276386 11.51932473 76.875 16.93359375 C67.48710789 27.27983318 52.45911151 30.56878181 38.9921875 31.23828125 C25.86218238 31.58896233 13.3302241 29.85122725 3 21 C-0.8883938 16.72276682 -2.14944395 14.29374058 -2.1875 8.5625 C-2.20167969 7.59441406 -2.21585937 6.62632812 -2.23046875 5.62890625 C-2 3 -2 3 0 0 Z " fill="#E7523E" transform="translate(266,169)"/>
<path d="M0 0 C0.5775 0.763125 1.155 1.52625 1.75 2.3125 C3.71703093 4.66200917 5.48476744 6.29323505 8 8 C8.66 6.68 9.32 5.36 10 4 C11.32 4 12.64 4 14 4 C13.67 5.65 13.34 7.3 13 9 C16.3 9 19.6 9 23 9 C23 9.99 23 10.98 23 12 C26.3 12.33 29.6 12.66 33 13 C32.505 11.02 32.505 11.02 32 9 C33.32 8.34 34.64 7.68 36 7 C35.505 6.01 35.505 6.01 35 5 C33.02 5 31.04 5 29 5 C29 3.68 29 2.36 29 1 C36.37042925 0.63751987 36.37042925 0.63751987 39.0625 2.1875 C40.39826326 4.76997563 39.83707827 6.27949563 39 9 C38.67 9.66 38.34 10.32 38 11 C38.69867188 10.69964844 39.39734375 10.39929688 40.1171875 10.08984375 C41.02726562 9.70957031 41.93734375 9.32929688 42.875 8.9375 C43.77992187 8.55464844 44.68484375 8.17179687 45.6171875 7.77734375 C48 7 48 7 50 8 C45.77007467 14.72942667 38.17129951 17.30340297 31 20 C20.24794495 22.15041101 9.06759119 21.92351833 -0.5 16.0625 C-4.02654244 13.15310248 -4.78515489 11.47322358 -5.4375 7 C-5 4 -5 4 -2.5 1.625 C-1.2625 0.820625 -1.2625 0.820625 0 0 Z " fill="#E6523F" transform="translate(54,270)"/>
<path d="M0 0 C10.33689196 -0.3385445 18.01507491 1.75156565 26.765625 7.1953125 C26.703125 10.5078125 26.703125 10.5078125 25.765625 14.1953125 C21.80627296 16.51115992 19.36050749 17.1953125 14.765625 17.1953125 C15.095625 15.2153125 15.425625 13.2353125 15.765625 11.1953125 C13.40593756 9.09781255 12.21945506 8.22625546 9.015625 8.0078125 C8.273125 8.0696875 7.530625 8.1315625 6.765625 8.1953125 C6.435625 9.1853125 6.105625 10.1753125 5.765625 11.1953125 C7.745625 11.1953125 9.725625 11.1953125 11.765625 11.1953125 C12.095625 11.8553125 12.425625 12.5153125 12.765625 13.1953125 C11.445625 13.5253125 10.125625 13.8553125 8.765625 14.1953125 C8.765625 15.5153125 8.765625 16.8353125 8.765625 18.1953125 C5.795625 18.1953125 2.825625 18.1953125 -0.234375 18.1953125 C-0.234375 16.8753125 -0.234375 15.5553125 -0.234375 14.1953125 C-2.874375 14.1953125 -5.514375 14.1953125 -8.234375 14.1953125 C-8.234375 12.52864583 -8.234375 10.86197917 -8.234375 9.1953125 C-10.70237547 10.34704605 -12.28221065 11.24314815 -14.234375 13.1953125 C-18.23828125 8.80078125 -18.23828125 8.80078125 -19.234375 7.1953125 C-18.234375 4.1953125 -18.234375 4.1953125 -15.171875 2.5703125 C-10.16685037 0.64297438 -5.29669787 0.31984891 0 0 Z " fill="#F87258" transform="translate(356.234375,242.8046875)"/>
<path d="M0 0 C0.61875 0.78375 1.2375 1.5675 1.875 2.375 C3.89858661 4.96837647 3.89858661 4.96837647 6 7 C7.32 5.68 8.64 4.36 10 3 C10.99 3.33 11.98 3.66 13 4 C12.67 5.32 12.34 6.64 12 8 C14.64 8.33 17.28 8.66 20 9 C20 10.32 20 11.64 20 13 C22.97 13 25.94 13 29 13 C29 11.68 29 10.36 29 9 C29.99 8.34 30.98 7.68 32 7 C30.02 6.67 28.04 6.34 26 6 C26.33 4.68 26.66 3.36 27 2 C33.39559286 2.60335782 33.39559286 2.60335782 36 4.3125 C37 6 37 6 36.75 8.0625 C36 10 36 10 35 12 C38.3 11.34 41.6 10.68 45 10 C40.01853582 16.18388657 32.632718 18.45863559 25 20 C15.61207342 20.71579499 6.64402855 20.1082148 -1.0625 14.25 C-3.53352841 11.89049069 -4.08025216 10.76726875 -5.25 7.375 C-5 4 -5 4 -2.5625 1.5625 C-1.716875 1.046875 -0.87125 0.53125 0 0 Z " fill="#E6523F" transform="translate(336,248)"/>
<path d="M0 0 C1.68732277 1.98260426 3.35366057 3.9832342 5 6 C5.66 6.33 6.32 6.66 7 7 C7.33 5.68 7.66 4.36 8 3 C9.32 3 10.64 3 12 3 C12 4.32 12 5.64 12 7 C14.31 7 16.62 7 19 7 C19.33 8.32 19.66 9.64 20 11 C22.64 11 25.28 11 28 11 C28.33 9.35 28.66 7.7 29 6 C29.99 6 30.98 6 32 6 C31.505 5.01 31.505 5.01 31 4 C29.02 4 27.04 4 25 4 C25.33 2.68 25.66 1.36 26 0 C32.39075249 -0.36174071 32.39075249 -0.36174071 35 1.1875 C36 3 36 3 35.6875 5.6875 C35.460625 6.450625 35.23375 7.21375 35 8 C38.11227195 8 40.94152152 7.54372951 44 7 C38.51760746 13.39612463 31.35156899 16.99241021 23 18 C14.43215296 18.57496003 6.32105564 19.03938135 -1 14 C-3.98403334 11.23431057 -4.87441795 9.89701467 -5.4375 5.875 C-5 3 -5 3 -3.625 1.125 C-2 0 -2 0 0 0 Z " fill="#E8533F" transform="translate(164,149)"/>
<path d="M0 0 C0.33 0 0.66 0 1 0 C1.41981564 6.08732676 1.16672773 9.20826311 -3 14 C-11.98918407 22.28496228 -24.19339811 26.40567116 -36.3125 26.3125 C-37.05798096 26.30831055 -37.80346191 26.30412109 -38.5715332 26.29980469 C-48.43609195 26.09846531 -56.09153032 23.65012917 -63.375 16.75 C-65.63186577 12.9306887 -65.29745594 10.38747508 -65 6 C-64.34 5.67 -63.68 5.34 -63 5 C-62.484375 6.0725 -61.96875 7.145 -61.4375 8.25 C-58.43150732 13.48931823 -54.36878515 15.19687456 -48.80859375 17.08203125 C-35.57714071 20.2711507 -21.21317804 18.39023259 -9.4375 11.5625 C-5.03442951 8.5406032 -2.16686299 4.87544173 0 0 Z " fill="#E2503D" transform="translate(109,275)"/>
<path d="M0 0 C3.82812323 2.11517679 5.21749733 3.45889912 6.78125 7.62890625 C6.46875 11.12890625 6.46875 11.12890625 4.40625 13.94140625 C-0.83511645 17.84455148 -6.04775041 18.94404643 -12.53125 18.12890625 C-17.0121391 16.63527655 -20.85596335 15.14183623 -23.53125 11.12890625 C-23.59375 7.62890625 -23.59375 7.62890625 -22.53125 4.12890625 C-16.57720054 -1.82514321 -7.86716771 -2.70737407 0 0 Z " fill="#0E1008" transform="translate(55.53125,324.87109375)"/>
<path d="M0 0 C4.14183036 1.39441622 6.54873707 3.32310561 9 7 C8.91755154 10.87507778 8.51762199 12.48237801 5.75 15.25 C0.21533604 18.77205888 -4.47649758 19.89941977 -11 19 C-15.48176097 17.44744458 -18.34244871 15.98632694 -21 12 C-21.5 9.125 -21.5 9.125 -21 6 C-15.08422608 -0.80495467 -8.47920075 -0.74697721 0 0 Z " fill="#0E1008" transform="translate(232,180)"/>
<path d="M0 0 C3.56508961 1.31345407 6.84955227 2.77432841 9 6 C9.5 8.875 9.5 8.875 9 12 C5.72292665 16.00531187 2.61970054 18.69529163 -2.5859375 19.30078125 C-8.14350179 19.32413236 -12.24098823 19.21233294 -17 16 C-17.61875 15.5875 -18.2375 15.175 -18.875 14.75 C-20.82549191 11.71590148 -20.54172882 9.4911413 -20 6 C-14.4380213 -0.6675708 -8.09493793 -0.60315224 0 0 Z " fill="#0D0F08" transform="translate(311,222)"/>
<path d="M0 0 C3.36522864 1.30766711 5.45954565 3.45954565 8 6 C8.4375 9.375 8.4375 9.375 8 13 C3.86438086 17.25049745 -0.35334249 19.29429546 -6.25 19.4375 C-11.90874159 19.35406011 -15.76452031 17.73718796 -20 14 C-21.462958 11.074084 -21.44523109 9.24382653 -21 6 C-15.12188843 -0.80052292 -8.44849327 -0.76991129 0 0 Z " fill="#0C0C05" transform="translate(288,286)"/>
<path d="M0 0 C1.62890625 1.0703125 1.62890625 1.0703125 3.62890625 3.0703125 C4.05980507 6.94840187 4.28397942 9.17261964 1.94140625 12.3828125 C-3.99468741 16.71455653 -10.24944614 16.87980966 -17.37109375 16.0703125 C-20.68472256 14.72712071 -22.85273285 12.5886734 -25.37109375 10.0703125 C-25.80859375 7.2578125 -25.80859375 7.2578125 -25.37109375 4.0703125 C-18.5613576 -4.49049866 -9.19451552 -5.01519029 0 0 Z " fill="#0B0E06" transform="translate(167.37109375,308.9296875)"/>
<path d="M0 0 C6.042017 2.54349425 6.042017 2.54349425 8.484375 6.20703125 C8.984375 9.08203125 8.984375 9.08203125 8.484375 12.20703125 C5.54425999 15.58906539 2.19519769 18.06107295 -2.30859375 18.4453125 C-9.29149935 18.59798823 -13.90598276 18.5417548 -19.515625 14.20703125 C-21.07992748 11.0784263 -20.87189784 8.651002 -20.515625 5.20703125 C-14.69932202 -0.7708357 -7.94294463 -2.50375429 0 0 Z " fill="#0C0E08" transform="translate(264.515625,116.79296875)"/>
<path d="M0 0 C2.46836692 1.81879668 4.03147354 2.98391611 5.375 5.75 C5.375 8.75 5.375 8.75 4.375 11.75 C-0.16464811 16.17018368 -3.81009315 16.91501272 -10 17 C-11.12148437 17.02578125 -12.24296875 17.0515625 -13.3984375 17.078125 C-17.65902766 16.64484464 -20.05269703 14.88856422 -23.4375 12.4375 C-25.33164661 9.74581798 -25.13714964 7.95093523 -24.625 4.75 C-18.4623624 -2.74509978 -8.874035 -3.06001207 0 0 Z " fill="#0B0C06" transform="translate(158.625,198.25)"/>
<path d="M0 0 C0.33 0 0.66 0 1 0 C1.53264064 3.65239297 1.67735611 5.83819178 -0.20703125 9.0703125 C-6.13661081 16.37466577 -13.96262683 19.90170969 -23 22 C-26.46269526 22.32156641 -29.89897492 22.37003425 -33.375 22.375 C-34.26960938 22.39949219 -35.16421875 22.42398438 -36.0859375 22.44921875 C-43.96632362 22.4835809 -50.02711377 20.60127545 -56 15.375 C-59.29062567 11.46738202 -59.093654 9.05731583 -59 4 C-58.34 4 -57.68 4 -57 4 C-56.566875 4.7425 -56.13375 5.485 -55.6875 6.25 C-52.30421412 11.76350292 -47.93076926 13.83004558 -41.86328125 15.45703125 C-30.18437585 17.67172136 -18.7002703 15.56812114 -8.4375 9.5625 C-4.71294538 7.0166019 -2.02757538 4.05515076 0 0 Z " fill="#E2503D" transform="translate(213,154)"/>
<path d="M0 0 C0.391875 0.556875 0.78375 1.11375 1.1875 1.6875 C6.40343186 8.34230961 11.79853016 11.67196515 19.9375 13.75 C31.19299554 14.66881596 43.47250861 13.77510499 53 7 C55.20396597 4.80549311 57.14842439 2.49682166 59 0 C60.07308563 3.29847797 60.0327477 3.91579163 58.6875 7.375 C54.94984027 13.45196424 47.53715514 16.7144908 41 19 C29.12102602 21.55955793 16.33854999 21.07697221 5.625 15.125 C2.84906356 12.87781336 0.85256812 11.06386266 -1 8 C-1.3125 4.25 -1.3125 4.25 -1 1 C-0.67 0.67 -0.34 0.34 0 0 Z " fill="#E3503D" transform="translate(327,257)"/>
<path d="M0 0 C1.57421875 1.0703125 1.57421875 1.0703125 2.57421875 3.0703125 C-10.06728493 5.04967111 -22.69673915 6.76358716 -35.42578125 8.0703125 C-33.97944381 4.46619596 -32.23441457 2.95628682 -28.98828125 0.8828125 C-28.20582031 0.37363281 -27.42335937 -0.13554687 -26.6171875 -0.66015625 C-18.70715765 -5.24261561 -7.90105426 -3.94322486 0 0 Z " fill="#E1A733" transform="translate(244.42578125,333.9296875)"/>
<path d="M0 0 C1.94846489 0.96905953 3.83792576 1.98414659 5.70703125 3.09765625 C5.64453125 5.41015625 5.64453125 5.41015625 4.70703125 8.09765625 C-0.37484005 11.10529437 -4.44437719 11.74749976 -10.29296875 11.09765625 C-12.58858381 9.97178135 -14.27738555 8.71012281 -16.29296875 7.09765625 C-16.02890559 3.84087727 -15.72550597 2.47776472 -13.23046875 0.28515625 C-8.59963242 -1.58688397 -4.61419423 -1.81580727 0 0 Z " fill="#44CE8F" transform="translate(154.29296875,200.90234375)"/>
<path d="M0 0 C1.01964844 -0.00773437 2.03929687 -0.01546875 3.08984375 -0.0234375 C6.45175251 0.42717314 8.3533123 1.36259978 11.0625 3.375 C11.875 5.5625 11.875 5.5625 12.0625 7.375 C7.38288863 11.42223146 3.77868082 11.94650603 -2.3671875 11.6953125 C-5.6119691 11.29094762 -7.60169541 10.71080459 -9.9375 8.375 C-10.5 5.875 -10.5 5.875 -9.9375 3.375 C-6.7792167 0.27602718 -4.3424395 -0.03285578 0 0 Z " fill="#45D191" transform="translate(280.9375,289.625)"/>
<path d="M0 0 C1.54300781 -0.02513672 1.54300781 -0.02513672 3.1171875 -0.05078125 C6.52012812 0.36022327 8.39267361 1.27433221 11.125 3.3125 C11.9375 5.5 11.9375 5.5 12.125 7.3125 C7.46559117 11.34225899 3.81914075 11.91898417 -2.3046875 11.71875 C-5.71540427 11.17967015 -7.57607451 9.84924537 -9.875 7.3125 C-9.5625 4.9375 -9.5625 4.9375 -8.875 2.3125 C-5.45170149 0.03030099 -4.03362332 0.01508837 0 0 Z " fill="#45D291" transform="translate(224.875,183.6875)"/>
<path d="M0 0 C0.78375 0.495 1.5675 0.99 2.375 1.5 C2.6875 3.8125 2.6875 3.8125 2.375 6.5 C-2.85612728 10.50195529 -8.30219836 10.32964939 -14.625 9.5 C-17.875 7.5 -17.875 7.5 -19.625 5.5 C-19.33426678 2.68957887 -18.80936938 1.66652718 -16.6875 -0.25 C-11.01912793 -2.56362125 -5.61866591 -2.3249652 0 0 Z " fill="#45D291" transform="translate(266.625,121.5)"/>
<path d="M0 0 C0.804375 0.66 1.60875 1.32 2.4375 2 C2.08278937 4.57165205 1.6701403 5.77123704 -0.203125 7.61328125 C-3.29301535 9.42935919 -5.49640523 9.39953735 -9.0625 9.375 C-10.74859375 9.38660156 -10.74859375 9.38660156 -12.46875 9.3984375 C-15.77915072 8.97209801 -17.14795579 8.23700419 -19.5625 6 C-18.8125 1.25 -18.8125 1.25 -16.5625 -1 C-11.10448102 -2.78479524 -4.89890748 -3.29308983 0 0 Z " fill="#45D292" transform="translate(165.5625,312)"/>
<path d="M0 0 C3.6875 1.5 3.6875 1.5 6 3 C6 4.65 6 6.3 6 8 C0.7801814 11.29672754 -3.98146631 11.92517913 -10 11 C-12.40119954 9.90380021 -13.9581702 8.71943562 -16 7 C-15.63852271 4.37928962 -15.24023872 3.22652646 -13.2890625 1.38671875 C-9.17699547 -1.10437988 -4.65404771 -0.52383221 0 0 Z " fill="#45D392" transform="translate(310,226)"/>
<path d="M0 0 C0.92683594 0.00386719 1.85367188 0.00773437 2.80859375 0.01171875 C5.75016132 0.33299634 7.93049316 0.96632366 10.5625 2.3125 C11.5625 4.75 11.5625 4.75 11.5625 7.3125 C10.20689612 9.31023203 9.09768077 10.09446339 6.875 11 C1.36652987 11.74438786 -3.45100947 11.95240675 -8.4375 9.3125 C-9.0975 8.6525 -9.7575 7.9925 -10.4375 7.3125 C-10.26305112 4.60854237 -9.70445814 3.5630393 -7.72265625 1.703125 C-4.93458003 0.00644956 -3.24216753 -0.05845794 0 0 Z " fill="#46D694" transform="translate(46.4375,327.6875)"/>
<path d="M0 0 C4.10657897 1.59214882 6.67761714 4.55593877 9.5625 7.75 C10.08046143 8.31912109 10.59842285 8.88824219 11.13208008 9.47460938 C14.94314133 13.71387326 18.61868877 18.05517004 22.1875 22.5 C22.65679932 23.07459961 23.12609863 23.64919922 23.60961914 24.24121094 C26.11737588 27.43264608 27.61231158 29.9254707 28 34 C24.76398357 33.74880238 23.95046692 32.94316731 21.7734375 30.4453125 C20.96529118 29.34485435 20.16630965 28.23762646 19.375 27.125 C14.62425574 20.68640925 9.44980267 14.86383361 4 9 C2.17912245 7.03874642 0.57459161 5.1718505 -1 3 C-0.67 2.01 -0.34 1.02 0 0 Z " fill="#100706" transform="translate(401,118)"/>
<path d="M0 0 C3.0625 1.625 3.0625 1.625 5 4 C5.48406434 7.44895842 5.66144221 9.75979585 4 12.875 C0.8045594 14.67243534 -2.36473107 14.70202714 -6 15 C-6 14.01 -6 13.02 -6 12 C-3.69 11.01 -1.38 10.02 1 9 C1 7.68 1 6.36 1 5 C-0.03060547 4.90912109 -0.03060547 4.90912109 -1.08203125 4.81640625 C-1.98308594 4.73261719 -2.88414062 4.64882812 -3.8125 4.5625 C-4.70582031 4.48128906 -5.59914062 4.40007812 -6.51953125 4.31640625 C-9 4 -9 4 -12 3 C-11.67 2.01 -11.34 1.02 -11 0 C-7.49436695 -1.75281652 -3.73072034 -0.81689911 0 0 Z " fill="#140907" transform="translate(229,238)"/>
<path d="M0 0 C0.99 0.33 1.98 0.66 3 1 C2.67 1.556875 2.34 2.11375 2 2.6875 C0.8690399 5.30284522 0.84337026 7.1806646 1 10 C4.46222615 11.06723961 7.64039266 11.10173486 11.25 11.0625 C12.86648437 11.04896484 12.86648437 11.04896484 14.515625 11.03515625 C15.74539062 11.01775391 15.74539062 11.01775391 17 11 C16.67 12.32 16.34 13.64 16 15 C13.77191841 15.10853983 11.54230068 15.18583307 9.3125 15.25 C8.07113281 15.29640625 6.82976562 15.3428125 5.55078125 15.390625 C1.40633779 14.93469063 -0.14379714 13.98314521 -3 11 C-4.0625 7.5 -4.0625 7.5 -4 4 C-2.0625 1.5625 -2.0625 1.5625 0 0 Z " fill="#0F0605" transform="translate(187,239)"/>
<path d="M0 0 C2.96844435 -0.35338623 5.15598218 -0.5417682 7.734375 1.11328125 C9.20348819 2.35503168 10.60704814 3.67337918 12 5 C11.66896829 8.06204329 11.39949096 9.60050904 9.1875 11.8125 C7 13 7 13 3 13 C3.3125 11.0625 3.3125 11.0625 4 9 C4.99 8.67 5.98 8.34 7 8 C7 7.34 7 6.68 7 6 C2.545 5.01 2.545 5.01 -2 4 C-1.34 2.68 -0.68 1.36 0 0 Z " fill="#140907" transform="translate(315,163)"/>
<path d="M0 0 C0.99 0 1.98 0 3 0 C2.814375 0.969375 2.62875 1.93875 2.4375 2.9375 C2.293125 3.948125 2.14875 4.95875 2 6 C3.73956658 7.73956658 6.1936622 7.37190386 8.5625 7.5625 C10.08037109 7.68818359 10.08037109 7.68818359 11.62890625 7.81640625 C12.80259766 7.90728516 12.80259766 7.90728516 14 8 C13.67 8.99 13.34 9.98 13 11 C9.39427296 12.20190901 6.7897565 12.32670315 3 12 C0.0625 10.375 0.0625 10.375 -2 8 C-2.4375 4.875 -2.4375 4.875 -2 2 C-1.34 1.34 -0.68 0.68 0 0 Z " fill="#0D0504" transform="translate(291,165)"/>
<path d="M0 0 C0.99 0.33 1.98 0.66 3 1 C2.67 2.65 2.34 4.3 2 6 C5.3 6 8.6 6 12 6 C12 6.99 12 7.98 12 9 C8.24252497 10.25249168 4.93040706 10.45035914 1 10 C-1 8.8125 -1 8.8125 -2 7 C-2.3125 4.4375 -2.3125 4.4375 -2 2 C-1.34 1.34 -0.68 0.68 0 0 Z " fill="#140907" transform="translate(65,273)"/>
<path d="M0 0 C7.37042925 -0.36248013 7.37042925 -0.36248013 10.0625 1.1875 C11 3 11 3 10.8125 5.5625 C10 8 10 8 8 10 C5.375 10.125 5.375 10.125 3 10 C3.66 8.68 4.32 7.36 5 6 C5.66 6 6.32 6 7 6 C6.67 5.34 6.34 4.68 6 4 C4.02 4 2.04 4 0 4 C0 2.68 0 1.36 0 0 Z " fill="#120806" transform="translate(83,271)"/>
<path d="M0 0 C0.99 0.33 1.98 0.66 3 1 C3 2.32 3 3.64 3 5 C5.31 5 7.62 5 10 5 C10 6.32 10 7.64 10 9 C2.73684211 10.33157895 2.73684211 10.33157895 -0.5 8.875 C-2 7 -2 7 -2.375 4.4375 C-2 2 -2 2 0 0 Z " fill="#160806" transform="translate(173,151)"/>
<path d="M0 0 C0.99 0.33 1.98 0.66 3 1 C2.67 2.32 2.34 3.64 2 5 C4.64 5.33 7.28 5.66 10 6 C9.67 7.32 9.34 8.64 9 10 C7.741875 10.04125 6.48375 10.0825 5.1875 10.125 C4.47980469 10.14820313 3.77210938 10.17140625 3.04296875 10.1953125 C1 10 1 10 -2 8 C-2.3125 5 -2.3125 5 -2 2 C-1.34 1.34 -0.68 0.68 0 0 Z " fill="#130806" transform="translate(346,251)"/>
<path d="M0 0 C6.39559286 0.60335782 6.39559286 0.60335782 9 2.3125 C10 4 10 4 9.8125 6.0625 C9 8 9 8 7 10 C4.375 10.125 4.375 10.125 2 10 C2 9.01 2 8.02 2 7 C2.99 6.34 3.98 5.68 5 5 C2.03 4.505 2.03 4.505 -1 4 C-0.67 2.68 -0.34 1.36 0 0 Z " fill="#120806" transform="translate(363,250)"/>
<path d="M0 0 C6.39075249 -0.36174071 6.39075249 -0.36174071 9 1.1875 C10 3 10 3 9.875 5.5625 C9 8 9 8 6 10 C5.01 10 4.02 10 3 10 C3 8.68 3 7.36 3 6 C3.99 6 4.98 6 6 6 C5.67 5.34 5.34 4.68 5 4 C3.02 4 1.04 4 -1 4 C-0.67 2.68 -0.34 1.36 0 0 Z " fill="#100705" transform="translate(190,149)"/>
</svg>
