<svg width="512" height="512" viewBox="0 0 512 512" fill="none" xmlns="http://www.w3.org/2000/svg">
<g clip-path="url(#clip0_2093_19)">
<path d="M247.95 0.00341797C261.047 0.0428911 273.528 0.892545 286.267 4.37061C287.11 4.59513 287.954 4.81994 288.823 5.05127C311.008 11.0734 332.293 20.8431 350.837 35.3218C351.789 36.054 352.74 36.7861 353.721 37.5405C359.58 42.1441 365.039 47.1401 370.372 52.4204C371.223 53.261 371.223 53.2611 372.091 54.1187C399.497 81.7344 417.153 119.806 423.83 159.127C423.996 160.046 424.162 160.965 424.333 161.911C425.889 171.34 426.036 180.599 425.994 190.141C425.992 191.366 425.991 191.367 425.988 192.617C425.945 204.979 425.442 216.917 422.895 229.018C422.739 229.796 422.583 230.574 422.423 231.375C414.317 271.264 397.344 310.334 377.039 344.836C376.15 346.368 375.261 347.9 374.371 349.431C364.55 366.246 354.203 382.676 343.351 398.752C342.573 399.905 342.572 399.905 341.778 401.082C334.61 411.664 327.178 421.945 319.384 432.01C317.602 434.321 315.853 436.66 314.107 439.001C304.143 452.312 293.909 465.333 283.065 477.835C280.855 480.389 278.672 482.964 276.499 485.553C275.077 487.239 273.654 488.924 272.23 490.608C271.789 491.13 271.348 491.652 270.894 492.19C254.742 511.273 254.742 511.273 249.199 511.813C248.23 511.837 247.26 511.862 246.261 511.887C245.301 511.925 244.34 511.962 243.351 512C237.31 511.127 233.322 506.309 229.24 501.84C228.746 501.305 228.251 500.77 227.741 500.219C224.682 496.888 221.749 493.475 218.917 489.921C216.216 486.641 213.392 483.488 210.583 480.312C205.984 475.097 201.627 469.792 197.438 464.197C195.439 461.584 193.355 459.089 191.224 456.599C187.897 452.695 184.767 448.685 181.708 444.54C180.124 442.41 178.525 440.302 176.904 438.206C168.744 427.632 161 416.764 153.382 405.741C152.608 404.625 152.607 404.626 151.818 403.488C142.866 390.566 134.482 377.256 126.243 363.807C125.728 362.966 125.213 362.125 124.682 361.259C106.692 331.765 90.487 300.191 79.4533 266.958C79.1561 266.084 78.8581 265.209 78.5519 264.307C75.2526 254.547 72.4589 244.746 70.2706 234.634C70.0882 233.793 69.9049 232.952 69.7169 232.085C66.9184 218.427 65.9678 205.008 66.0011 191.078C66.0016 190.27 66.0016 189.463 66.0021 188.631C66.0411 175.133 67.0029 162.279 70.0949 149.143C70.3053 148.238 70.5157 147.334 70.7326 146.402C76.3785 122.738 85.5375 100.031 99.1046 80.2515C99.791 79.236 100.478 78.2205 101.185 77.1743C105.5 70.9227 110.182 65.0984 115.131 59.4087C115.919 58.5011 115.919 58.5008 116.723 57.5747C142.611 28.3289 178.287 9.51012 215.145 2.37354C215.991 2.19721 216.838 2.02102 217.71 1.83936C226.948 0.0891291 236.089 -0.0206296 245.442 0.00244141C246.269 0.00298438 247.098 0.00285855 247.95 0.00341797ZM302.234 116.698C282.346 99.966 252.754 90.8756 227.665 97.5327C226.908 97.7674 226.173 97.9953 225.439 98.2231C204.895 104.221 188.681 114.86 175.197 132.544C159.288 155.421 153.567 180.046 157.125 208.051C160.909 232.894 173.391 254.315 192.283 269.271C214.418 285.635 237.493 291.003 263.924 286.42C288.744 280.736 308.931 265.687 322.763 242.997C333.92 222.652 340.08 195.825 334.64 172.486C334.42 171.678 334.206 170.895 333.992 170.111C328.383 148.239 318.365 131.323 302.234 116.698Z" fill="#F2B233"/>
</g>
<defs>
<clipPath id="clip0_2093_19">
<rect width="512" height="512" fill="white"/>
</clipPath>
</defs>
</svg>
